<mxfile host="65bd71144e">
    <diagram id="KH6fHc3QVZIpsKAjWQb6" name="Page-1">
        <mxGraphModel dx="1881" dy="1067" grid="1" gridSize="10" guides="1" tooltips="1" connect="1" arrows="1" fold="1" page="1" pageScale="1" pageWidth="3300" pageHeight="2339" math="0" shadow="0">
            <root>
                <mxCell id="0"/>
                <mxCell id="1" parent="0"/>
                <mxCell id="15" value="" style="group" vertex="1" connectable="0" parent="1">
                    <mxGeometry x="90" y="125" width="145" height="250" as="geometry"/>
                </mxCell>
                <mxCell id="17" value="" style="rounded=1;whiteSpace=wrap;html=1;" vertex="1" parent="15">
                    <mxGeometry x="-25" y="-30" width="170" height="280" as="geometry"/>
                </mxCell>
                <mxCell id="2" value="Hzn - Rel Reps" style="rounded=0;whiteSpace=wrap;html=1;" vertex="1" parent="15">
                    <mxGeometry width="120" height="60" as="geometry"/>
                </mxCell>
                <mxCell id="3" value="Service Bus" style="rounded=0;whiteSpace=wrap;html=1;" vertex="1" parent="15">
                    <mxGeometry y="80" width="120" height="60" as="geometry"/>
                </mxCell>
                <mxCell id="4" value="NSIP Project" style="rounded=0;whiteSpace=wrap;html=1;" vertex="1" parent="15">
                    <mxGeometry y="160" width="120" height="60" as="geometry"/>
                </mxCell>
                <mxCell id="18" value="Curated - Service User" style="shape=datastore;whiteSpace=wrap;html=1;" vertex="1" parent="1">
                    <mxGeometry x="990" y="170" width="120" height="130" as="geometry"/>
                </mxCell>
                <mxCell id="20" style="edgeStyle=none;html=1;entryX=0;entryY=0.5;entryDx=0;entryDy=0;" edge="1" parent="1" source="17" target="13">
                    <mxGeometry relative="1" as="geometry"/>
                </mxCell>
                <mxCell id="24" style="edgeStyle=none;html=1;entryX=0;entryY=0.5;entryDx=0;entryDy=0;" edge="1" parent="1" source="21" target="22">
                    <mxGeometry relative="1" as="geometry"/>
                </mxCell>
                <mxCell id="21" value="Standardised" style="shape=datastore;whiteSpace=wrap;html=1;" vertex="1" parent="1">
                    <mxGeometry x="560" y="170" width="120" height="130" as="geometry"/>
                </mxCell>
                <mxCell id="25" value="" style="edgeStyle=none;html=1;" edge="1" parent="1" source="22" target="18">
                    <mxGeometry relative="1" as="geometry"/>
                </mxCell>
                <mxCell id="32" style="edgeStyle=none;html=1;exitX=0.5;exitY=1;exitDx=0;exitDy=0;" edge="1" parent="1" source="22" target="28">
                    <mxGeometry relative="1" as="geometry"/>
                </mxCell>
                <mxCell id="22" value="Harmonised" style="shape=datastore;whiteSpace=wrap;html=1;" vertex="1" parent="1">
                    <mxGeometry x="775" y="170" width="120" height="130" as="geometry"/>
                </mxCell>
                <mxCell id="23" style="edgeStyle=none;html=1;exitX=1;exitY=0.5;exitDx=0;exitDy=0;entryX=0;entryY=0.5;entryDx=0;entryDy=0;" edge="1" parent="1" source="13" target="21">
                    <mxGeometry relative="1" as="geometry"/>
                </mxCell>
                <mxCell id="13" value="" style="rounded=1;whiteSpace=wrap;html=1;" vertex="1" parent="1">
                    <mxGeometry x="314" y="55" width="170" height="360" as="geometry"/>
                </mxCell>
                <mxCell id="9" value="Representation Contacts" style="rounded=0;whiteSpace=wrap;html=1;" vertex="1" parent="1">
                    <mxGeometry x="339" y="75" width="120" height="60" as="geometry"/>
                </mxCell>
                <mxCell id="10" value="Applicants" style="rounded=0;whiteSpace=wrap;html=1;" vertex="1" parent="1">
                    <mxGeometry x="339" y="162" width="120" height="60" as="geometry"/>
                </mxCell>
                <mxCell id="11" value="Agents" style="rounded=0;whiteSpace=wrap;html=1;" vertex="1" parent="1">
                    <mxGeometry x="339" y="248" width="120" height="60" as="geometry"/>
                </mxCell>
                <mxCell id="35" style="edgeStyle=none;html=1;exitX=1;exitY=0.5;exitDx=0;exitDy=0;entryX=0.5;entryY=1;entryDx=0;entryDy=0;" edge="1" parent="1" source="12" target="18">
                    <mxGeometry relative="1" as="geometry"/>
                </mxCell>
                <mxCell id="12" value="Appeals" style="rounded=0;whiteSpace=wrap;html=1;" vertex="1" parent="1">
                    <mxGeometry x="339" y="335" width="120" height="60" as="geometry"/>
                </mxCell>
                <mxCell id="28" value="" style="shape=image;verticalLabelPosition=bottom;labelBackgroundColor=default;verticalAlign=top;aspect=fixed;imageAspect=0;image=data:image/png,iVBORw0KGgoAAAANSUhEUgAACOIAAAI/CAYAAADQ7ORKAAAAAXNSR0IArs4c6QAAAARnQU1BAACxjwv8YQUAAAAJcEhZcwAADsMAAA7DAcdvqGQAAP+lSURBVHhe7P0PcJT1vf9/v3rTWU85J45nQo/fkrFD+Pm9k3qGANqgTmKq4c8kQCFQSIiGpvxJkUBQ/lggyiEU5U8riSigNqAnTRRBC4GfkIyQqDGZIjmtsE41+R3LMvUsPRzJlJv8Tnrcb5ncn2v32mSz2Q3JZkGE52Nm2Wuvva7dazfL9b7en+t9fT7f6DQEAAAAAAAAAAAAAAAAYFD+P/Y9AAAAAAAAAAAAAAAAgEGgEAcAAAAAAAAAAAAAAACIAgpxAAAAAAAAAAAAAAAAgCigEAcAAAAAAAAAAAAAAACIAgpxAAAAAAAAAAAAAAAAgCigEAcAAAAAAAAAAAAAAACIAgpxAAAAAAAAAAAAAAAAgCigEAcAAAAAAAAAAAAAAACIAgpxAAAAAAAAAAAAAAAAgCigEAcAAAAAAAAAAAAAAACIAgpxAAAAAAAAAAAAAAAAgCigEAcAAAAAAAAAAAAAAACIAgpxAAAAAAAAAAAAAAAAgCigEAcAAAAAAAAAAAAAAACIAgpxAAAAAAAAAAAAAAAAgCigEAcAAAAAAAAAAAAAAACIAgpxAAAAAAAAAAAAAAAAgCigEAcAAAAAAAAAAAAAAACIAgpxAAAAAAAAAAAAAAAAgCgYZCGOR67aUj0xM0333D3W3O7Vro+t+W2qXe2bN2u70ywFAEAknCrzxhdzK6o20QUAAHTzyFmeq/tNnLz/8Wq5L9uzAQC40bSdVNW6fE1KtfPDx2vIDwEAAABcRbS7YXAGUYhjfnzb52hWcaXqz7Z3zfvS+hGe/0BHj/nmuSqOq8U79VUJOIlrbtO2ney7MOhUadeyyw6T0gMAwjhfrWUB8WXZAbf9RGhth4u6li07Zc8EAGBQWlT3Yos3v/E01Kn5gm/utdGm6iJ/HCw1WVd412sMDNyuft0oCgYAo2c7W89bmmYVFmtXbYvao9lIfc7kXtMXqeyIU20d9rzLX9oTAAAM0mWP3KeqtWvdIj2ceW93XEudoIfzVmnru323+QEATJawvTsviF7bj1v787tfd1r5ta44+Crb3XAjiLwQp/XXeqrC5Z10jFmolw416L36D7V8jJlx+wPKmpkoh2KUtHiCEr1LXSXWQdInNdq/eZVmlffV/Ovjfm2Ldp6ijx4AwBVcdKn58E49Ob9YtefteX1oKt2i6nP2AwAArolETV45zmRdDsVmTFbyMHs2AABfiXa5TtRoT3GuJuXtlNNfNDMo7arfsUFN3teKV1bJXr1T36D3tmUp1vs8AACD0NGiPQUPaNr8Ddpz5KRazwecO+poU+snddrvvIbl+ANsjwSAG9rZRlV7R+LxcVdUqznap/j73O/S7obBibgQp631tHx1wA5lL1ui5DtiFHObwztHJhVOf2qvfvv7Br1akGSWuIouHNXWvGJtfbNOrn4l+C5V/bxcTmpxAAB9cFbM1KMlu1V7ql3/Y8/rU0ejtv6C7tEBANeSQwmPvKz3fv+h3tmUqbgh9mz0S8z3C/TSrpcDbpuUd5f9pMZreY/nzO2nyYqxnwUAGMlr9LpVFGPdag7o1U1LlHyb7ylP6249VR6N4epdOl1rT6b8WIXTEhV7W4xirmpjIwDg5tCm2uJ87bIv3HYkZGpByQsBOcALWvdYjlKuYRIw4PZIALiBtR6rVKs97dVxUPW/j+4J/r73u7S7YXAGMTSV3zjFf8eevN4Nj1OcdX92t35e9dUOmAUAuHHEmvhitQN7GkpUag/NCAAArm+O4UlKvm9cj1v8P9pPariSgp5LHuWL9wAAm+MWDbOKYqzb7fFKyliol6rWK8V+2l1xXKejOUTVnSPpBQcAED1nj+vXDfYJ3ZT1eqtqkwqnpQbkAKnKyl+j5+cn+ZYBAFw7l1vUeMgeGnBalrK8Ex7tf/dkFIr9gWsjCoU4XyPxOZr/iLcUR64dm7X/rHcSAIBBaXtooVZ7W5s9qt2w0+42HQAAAABuMsMfULq/EkcuuS/YkwAAXG8uurt7WrhzJD0dAMB1xNNcrd3nrCmHsjMWKnmid7b0ZrXqL9rTwHVuwIU4zu1jdc/dYzWppNGe06iNmb5599xdKqd3nlNl3sfmVlQdMExHm6qLApf1yHV4i+alW4/TtCdgnDedd6p6+yo9nHmvvfy9mpS7SE++5pS3r4Hz1Vpmzc/coCbvCkZFvr3sWC07HGpwkBg9sHiNsoda005tXb9ProFemWNt14vFejR3gu633+ue9Jl6dF2lmnu9ZfDnNXOaK/XkfHtds94T5SfV5t+G9hbVms88y/t9jNWDM1eprMGu9gvlcpuaK8y2zEyz3yNNswqLVXWCgVEA3BzaTlVr17pFAbHC2neaWFERsG8NdLldrgazHy6cqQft5a198cMrt6j+c98i/jg3r8L3OHScC/LNkcpauUbe62M69mnV9saBVWV7t2uftq7M7YoBvrhn4kCtq/drnSq1l7HjXYcrIH6Y9eZvUXVrd888bScCYk/qBM1bt0/OvjruseNR1/dq1nl4ZalqA14TAG5IV8pBgnj3rwExJXwMCsqPrOP48iJNSrX2satUa3blnhNbuvKLh99w2ev15Hoj196uqdrziTWnd77RS1fsy/W9n7WsvV9v6jX2tQkBrTUqM/HIv+z9mbl6YnuNrmYIsOJ54Ht6t8/Ka06FeNOB5EDB8bLtpPY87ouH968e+HCS/fkbeZq22O/Zx9/ovNmOlf7fjS/e77lCDtf/3xqAr5P2s42q6pHP2DlAU9A+YUBtUT5Xbd96RZfk+Ys9qXjFDbMnA/Qr1vjb/e7OV5U9q892vwHkMG2Hi7pep+yU2Xd/Vq2t+b7P/mB5z2ja/7jYe3/vW9e/7zbf6crdag4Re7uYv4PzcKmeyOuZrz5q8rfWEAkmsQFAvww0x7Hb2rrbp3wxYVdti9pD7F/87Wj33F2k6hD7uLDPD+RY/WrtH791q28EBcvvP73CuSKPmn/h/w5zw1zk7VHTZnv7pu5Wq//1rkJ75GDiU1TPUQFAf/RjP9iTR6cbDvrOiwwvUFZynNJn5Ni9FNep7kSoCNbTlXKt/u13Q7W7ubU/3z9vi5pCnQjyNGqr93lzMzGtx9ZGNffC9e4r7RGn5Y0CzSrZJ6e3cq1dl+xg3/buBs3KzNfGijq1nvf/gj1qaz2p2hNnfP/xIjU0VYXrM33/WT/eojJ/t1b90VajZdZ2ldeoubWtezsuutR8pFSPTjcHk97qvNDOmER/6qJS1Z6y1zXr1b+4SFNXmgPLDqfK8nPNAWGdXHYlX/vZOlU9PlPLjoT4z3euThtnT9Cj5uCq+az/v7DZkZ0wB2CFk/Xwi9EYhxsArl9tR4o0af4G7TlyMiBWWPtOEyu2W/vWarkDE2hPi6oKJmjW42Y/fMLVffBj9sWt7+7T6cEe54zI0Zql8d5Jz5tbtLO5/3th56+s7dqi/e+2dMUAX9wzcaDYHJBu72Of3v6ByvJmBsQPs96pfdqYm69dH3vktmJPYUDs6WiT88gWzcvfKWeIF/V8slvzTPJuvV7X92rWaX3XHCjnTtETR0i+AdyYBpSDXHarvmSmJln714CY0hWD8sw+NmzvaO2q+8VkPfpio8kBzMOOL/U/f5McyVlaONy3ROvbJ9W7zMPkHG/bw+uOmquMu3yTfTI5xq48f+xr8b2fd75vv37yz/ZjL49aX8nXpFyT/Jt45F/Wc75F9RXFenj6KtX2ketEps33PZp4Hvie3u0zec3JPwUFqsHkQO3HtXX6Iu1q8MVDj/neB8pxd7qyvBd1hPsbedTcsM83OTxLqQm+yUDtp0rN78xsx7v+340v3u8Kt/2D+q0BuH555HwxV5NmFqmsRz5j5wD/FnDMPeC2qGu4bw3Bc+qg9nsLEc1+c06qRvfoXeDqxJpB5TAt+7Qoe4P2f+z77O1d+9TBbau1v5/nXde/7zbf6bs79eiPilQbqhjnXI2emDhB80oqVf9Jz3y1+UijPu0qbjKIDQD6KaIcx25r626f8sWEPcUmbl2t/Utfx+pXc/+YkKm8Ufb0x1v0cJ5ZrysWBnNodNoM+yRwi6rN6/fiOanGN32TcdNTlWDFwKi3Rw4uPkX1HBUA9Eck+8H2D1T9hi9K+fenge1m9XuPKvwR/gByrYjEKTN3vD29T40hzgN5mhu13zvlUPaM8YrxThuc27/pDLgQJ6mgQe/VN+j1n42z54zT6r2+ee/VL/X1BtAv+1S2o13Zz72t3zZ/pN/9/iMtH2Nmm4OV3euqfY2aI3L0/KEPvc/9rvlDvXPgBRXeeYv1jDRssp6x3nPvGiX75khzXrC3o0HPZIQfNTpm4lrzvO+Qqal0S+gEOJS/mQPA28Ypr6RCh9/3b5f5Lkqy5D312tGorW8G1yb77dPW5y4oe9MBvWO27/ArS5RiN+J6GnZqUV6BqpSjZw4cN9v/tl5dmmof1HnU9OLB7i4SLR6ndi1dpWqr6npEltZVNfi25cTben6OtSXmYKy8WDtP8d8VwA3sstmf3zdX6155W++d8MWR39Xv1bppdjFMw2btD+hpzX1os8q8+0WHUn62V+/412k0+9y1Wfq23UDsj3PPz/E9HkicS8jfpMIR1pRbVZvLQxa6hGSWS8hYoedNDPDHxN++/bIWjPFFAldFuY6GiVXNL27Wof+9Qq8eMttXc0DPeOOAxaU96+fosZKTSl5q4pbZ/ncObFK2d/uMs7u17/2gxoXzNVr1U1+jhGPMQr30th3rzPe6Os3alnbVr9uiUFc4AcDXWn9zEC+T0P+qSE8ctpaOV1bJXr1n7bvNsoefy/HmBZ7W3XqqPEzy/NEOlR0xscV/DP/7F5R1u5k/JFGp0+3rMT85qubgK4LOnlS1fWIzPXdy95Wb4Vx2af/ifO2xLxGNf8gXZ7zxzMSLlwJin6XtyEr9ZIe1zQ4TC1/WYTtOvle1xpe3XKzTk5sDezsdPM+Jcj3p/R7N9plc7nCj7z1/d+K43npuieJ9YdBnkDlQ84ulqv7+Gr1eb7/HC1kKnzGG4RinrHz/36hazcFXwbZ/oKN2w3tSfqav4b2Hem19ap9iCl7QWzXWcYX1ORcqyZsXWttfosqeid/gfmsArluuNwo0r7zF9393xHgtf87XVuTdL+xao6zAXmQG2BZ1Lfet8nypCxfb1W7dPm9R05sb9JOllb54ett4rc8fZ7dt+Qwo1vjb/epfULb12BKq3W+QOcz+HaVqt74nf374mC/jG1xc3KdVSxs1eq0vD3uvxmzLRLv53fy9dh22C2v9rL9hdrHdxb55v0fW+/I7a91De/XM4nj9nXdBC7EBQD8NNMfZ4d+3WO1tS7pzh0MVWj0z0bs/t/Yvi56u6z6JGiVhj9Wv+v4xTtmbn1WW3Vbmaa3UkzPT9KBVyPNJ7095pYsn2t8/ap94TVJeRqJ3KtrtkYONT1E7RwUA/dTf/WCg9qYa1Xqnuven3nazmXabzMdH1RSyJ53+51qDOQ8Uc994pdvT1U2nAuKKJfAiLas3Hzsj4tz+TWngPeIMjVHMbTEaNtSfSjvkMI+teTG3+ef1h0eJS7eZpDhOjsD/ZH85J7e/KvkHk5Vyh/2aQxyKHZGqBY9l+g7CzGPfe95iHwwYt9xqzzO3PjclRumPlfgOMszB3IbN/eyW/B8f0Pq3X9byaUmK87/BkBglTFuoPLsayNP8aa8DMB+Pkh/foeUZ8Yo12xc3ZqGeecpfMeeW6+w4rduxRhkjYs32xylp/iat9493d+60Pg1oMHAf2qY93kbfJK0uXa+su+xk3hGnlJWbVOg9GHSrquZk0H9+ALhxxKSU6J1dK5Q1Jq57n39borJ++mO7QNMc8LR075Hbzvkbp8cp/aFExfrXGWr2ubPXd18BY8e5mK72iAHEOXMwOHfDQl+D+Nnd+vme/jV+xucd1eub5irFxAB/THQMH6fCxTm+B2pU62ehX8lzW46e3zhXSXeY7bs9XhldccA465LnkRf07HwTt8z2x47I1Oqnl3SdvK39JDBime+rokRNVgwemqNndyxR8nD785rvNbukxD64bNT+d0NHOgD42upvDmL5/KDKyn37waSfbdO6aYmKsfbdZtm4tDV6ZrFvL+uuOKqQnaOZ98nauk3Z/mP4AAlpWfY+2qnGj3pmKK4T1XbD53iNv6/3usHaj+3UVrsgNT6/Qq9v88UZbzwz8SI5MPZZjfSbfcMqOmZv08uLxynO/gpi7srpzlua9qkuuPhkENr/y90VJ1MmpSrObgSWI1bxaQtN7tRdKjPYHMijGXp2U44SbrNnRCghw8Rc71SLapp7XkXVfqLObigar5yJ/mgbyK3YvDf06uJUxd9uHVdYn3OJXi6ba//dXdpdG3Bhx2B/awCuTxdrtOsX9v/1EXP1atWzykvztRV59wv35WjdIwHNvgNsi7qW+1Y1b9HD6Wl60LpNz9WyzSZWdcR486vXDz2rDKvQ1G+gsaar3e/WPtr9Bp/DeP6vFfrlSvM9db2JMei46FHyihe0brYvD4u53WzL+k3Ksp91v3+6R9th62tbtN97HOJQSskBvboyy5ffWevekaiMghXd3yWxAUB/DTTHqfDtWxxp6/XaCwu7c4c7kpT9VIWene1b31Nbpv1RrsgId6x+TfaPw8drXdUBrbOLjSzt1tBWeSa2rd7Xc6inIeY98+0Y3eviiXY1v1vjm5w4R5l3+Caj2h4ZjfgUpXNUANBf/d4PdmlT3ZE632TKDI2396eWhIn+Nhmnqo4FFbdbBpJrDeY80G2pyszwTXoON6qlx8gMIXpHMzi3f3P6CoemGqfp5sffy7BEjfb+2Iw3N2vjm065r8Yv7vZMrV/rq+j1NJSo9Fg/6rgdsYodapb/vEXNtfu068UteiIvVw9nztTGZnuZT9xhKsIzlfVQd2OHJSYptbs3n4wsjfd/bq8YJYy1q/ys/3Jd/4nb9HGTvRNJnmEOiH2TXczBYNJD9vSR0wqxGwKAG4IjNlaOyx65Pzmp2jd3atfmVXrY7JMnZW+Qf5fcer57jxyf4E8sG/Xcht1qCtvV7OA4RhXoXwp88c3V68r20GLMZ5GnTa5Tjaqu2Kkya+xSa9zrRZX2EuYQrC309sbNnKykwOPCwDigOE2f2vMqVN2ZqBR7Un/7H3vCYmLbYTvgzkjvuiKmy21JSrGDVqs1vIlvEgBuDAPIQdqcjfaY0KHzmYQx/mtiDup0yBiQo/T7wiT0AV2jNx37IGBf2z0slWNOttKvWEzSpqZau9FiaI5WL07qGQuCtTar2m6kz57gv+qxW3fe0qLGP0QvAsTeObqrOHT/1g3af8otT2DjRZco5EChYlsk7pisHLsx2vl2o7pLcQIb3scrJeTfaLxyMnr/ZhzJkzXd/v15PjvT9Xcf/G8NwPWoremo6r1TDmX/bKndK1YfBtgWdU33rSHEZazQvzyWpYTgmtGrEmsGn8MkT09VvN043mXQ25qprOCCzKHf0yh/Itaj7dCpugo7moxaodXTgtYLQmwA0G8R5ThxWvjTLMUF7xfNnjBleoEdX9xq/sNgh/UIEvJY/RruH4fGK+upvXrfKnydktQ1hEj7sS29hnqKmzjHLvJ0quZEwPfQflJ1vqp8pT+U2vUaUW2PjEZ8iso5KgDovwHvBz8/rkNNvsn0KeN79mYc0CbjPtCo1qD90oBzrYjFKHVajm8/3LFPdQEjM3QPSxXQm89Vyr1w/fsKC3ESNLJHULeZH9vcpxcqwfrP0dGi6s35mnbfvZr0ePRPmsZmrNFqbxLsUe2Gnb4raPpitqeqME33T8/Vo8VbtKd8n+o/aZHLHIJajSJ9G6ZhwY0Q5oC262Dp9m93HZz53TrU3xfxSbn+y540B7qfNtiTzRs07e6xuifo9uhr9vOBY6kCwA3G80mlHp14r6blLdKTm3drz5t1av3kjPRPsb0SUUvMxOV6xu4OvP3ETi2bmaZ70vO93bi3RTWRdCgpf43yvDHOpV2b9sl1hdd3H9ugh9MnaNb8Im3cvltV1tiln1zQsBHBkaG3EcO+bU91u+Wb9oSsam970s8RcEXp2XPdjdHnz6jFHwdfW9Qrttxz99Tuhv7LxBcAN5gB5CDuzxrtqZPaODV4X2luXUWUHn0Zav+fMlIjezVs+8UpZap9ZU5TnT7wX3H4+UnVeIelcih7UlCBZUgBOcPYRI28wgptLrvLXqNqUYjPNLW7yDWqja93/VhPF/i7ua/W1vlTdf8PJmhZeaNcPb72wedAKf/7/7KnBitG6dPsHusCu0K+2Kgab8N70PjfPQzX8JAFOt9WrP9cQdOZruKeQf/WAFyXuv9vj1NCj3GiwhhoW9Q13LcqZb3esbpTDxj2w11rcpviarmD9ktXJdZEIYdJGNn7xO7gtzVEG2A4gZ/h7u/ZJ7nDIzYA6LeIcpx4WdeKhRQ7TP7zhs2f97dgsn9CHqt/BftHq3fqvI0Veq/mZRX6eyG1hnpaG9C2d9t4Zc32TQYW5ncNozI0R9np3UEgmu2RVyU+RXSOCgD6b6D7QVdTtV1YKdUXm2V77OvS9OQx+8lz1WoMKqwccK41CI6705Xlzcc82v++f4s9Ot100DfZozcfzu3frL7CQpzwHGOW6PWaA3r+sUwleRsqPWprsP5zTtC8V7oPNgZtSJyy1q739QzQsU9bX+yru6c21Rbnq+yEOUgdmqQFm/Z6x3n+bfNH+m1NuQrH2osBAK6+8zVa9dNSNV+0YsZCPVP1tt57/0P97vcf6p0Xl3ZfyRHI7PMztjbonVfWKy/NLta56NT+zfmaNHuD6gOubhm0oeO0ZL09zMTHW1R2yK3AvmcCeT7eqcdWW124S/HT1uglaxzmRmuc1Aa99S/+zssBAFfbNctBrqD7CstGNX3kayB3nzjqa4QYXqDJvbrs/arEKq7rCh6XzvXRFn+p44I9lai4HoUoDiUt3qt3DrzQfeVpR5uaXizSrMx87fnkWn3rA+NITle2t7Gl+ypYa1gq71VXQ3OU6R//OxJ3xYUp4gFwc4qkLeor2Lfaw35sL/H3PL1Bj/2qf8P0AgCunuslx/nauX2cFrywV+v8PZl9XKn6z+xpE+mSH7J7QegqzG9X07u+HkkdsyerRzpwLdsjAeB6NJD94OUW1Vf1tz8Yt3a//RUO4+QYp6x8X5mo59hJX+88nlOqt3vs7NWbD25K12UhjldMvFLyN+nVYx/qnar1yvI28nrk3LGqX8N89NvwLC3/me+qU/drP9fO33p8O4Fg5z5QdYPvP0/C0hIVZliNyDFyeK9m/R9r066RWMX7zzD7rzwKe1thj5UHADcWd1O13YtZopb/yxJlWCetYuy9tzng6WuXHDvG7PefO67fNr6tlwrsoTrOVuuJHXVhhhaMjCN5qVbb42c3Pb1FhwJ6qw10+p3d8o1gnaPlxTlKtsZh9l/Z+n/s+2th2HDvFaxe+RUhYkrA7YUsDiIB3Jj6kYPE3jHON6FUrasJsY8MuC0fYy86ELelarzdzW59w0kTm9xqett3ZU1SfmbX2NJ9i1HcXfak64IuXOFKy9jvdHfdnvdK6M/ivz0/rTsCDIvzd7HbqLrmcFHUreYafyPKaMWF6BU1ZkSq78rTE8f1ekmWLx51OLXrZ7+W72u/znKggMYW31Ww3Q3vcfmTldTH3yjk1beeT9Vqd7us7w6T/5rTq/5bA/CViLndv+90qe1KHQoMoi3qq9i3xk0r0fo0Xw4UPExvpLGmT1cph7kq2xrOPw7r7uXhXLjh7rsRGwAM2IBynD5i08ULOmtPptzZ3T/NLTH+aROUeh3retTu79VmoL7q/eOQOD0wMdV+4Nalv9qThiM5Swu9eY1dmH/R5EPeHhritHBi6IgZjfbIaxqfACDK+rUfbG3UIbswJ73kbb1X3xDi9rbW2e1mnsP1Oh2QEw0o14qChJQsX6yyeuf5zGzP7+t9QwgG9Y5mPj3n9m9S128hjt8Qh2LvytK6tXPtGW6dbo3u/5742WtV6D0AdavqNbvLqGD/daarW79bHb5GhS7nmlXf1eff1Ran733fPgRtOqg6/9EvANxE2j4/aU/dquBdsvtEXXc3rH0ZGqfkxZu02n8AVHvaLoiJFodSzOtneItqGlX5mn+bA7XJ3bUfd9gN6n4eNTf4RjS9JoZ8T9+zD2D15tErD9cIADeyPnKQuMRku0G4UYfejW7k8AkY+qjWxLSPG1XjHWs6VdPTupqiryBeo39gL3uuXDuPhKkG9fvf37N74ZH21zT2dV63h/ik8V2N4/U7dqopRJrmPrxFZfZY2Y456T2vDg3miFXCtPVa/Yj9+Nxpfeodnuv6y4ESMub6Gkasq2DNscdRb8N74PjfoexT/Yne36777X32+OFSyn1junrEufq/NQBfhe59p1u7f9V7CKceotEWdU33rbHKeNzfcBw0TG+EsaZPVyuHuRrbGo5jtEb7P8Oxcu0+1fe7ERsARKyvHOef/fsWE5uqakIMFeJR04Fy86wlSalJAcX5t/uLQ06qyRlUUnLxAx09Yk8P1LXYP35co/2fhCmDuezWB8f8Q5zE6dZv2ZOWIYnKyPdFO6swv7nhqK93zFFzleG/ICKcwbRHXsv4BABXS9j9oEfNb/tjTapS7o1TzG0xIW5xGv/QeO9S1mg31e9378cHlGtFw13jlefd77t1qMmp0w0HvfvmXr2jma3i3P7N6forxDlfo7Lt1XJ+3i6P/z9Ih1tN73Yf9IxOCKjmHWr+09mTOmYOeMx67eedqg3VChyOOXBasHmJfXWQJ/QBzHdG+oawMpqrKtX0uVnqskdtZ2u0dekGNdnPXQsJ0xba2+LU1vmLtKfBpbaLvq32tLfL/UmNqtZtUa23YQUAbjxx8f4rUk6qqqpRbqvB1dMmV+0WPfa0P1705HytWFXW/tLfOGvtwz9pVP0f7McZo7uvpjS6r+gxyxxvMfvZdrmO1NlXj/bTbeO1Zn2mt7rbY+JLb7Eaeaf/iGyfKt8072MtZuKe85WVWvbaFU6cRlWM0nPt4bTMAeyqBRu0/5Rb7e12fLlovt8T1Sp7fHfXGK0AcMMYSA5y1wzNtxMD5y/y9Wh5o1zn7fU8Jhf5vEW1FcXaWhv5xQPdQx/VqKaq2bffnThZ42+3JvonYfZyuxjUo6aSmZq3zff52k08az/vUpPZxiq7QMaKV3P93em+uVI/eXqfb1krBJh4aS3ffLhUy14JigDmuyi0ez7QuX1aNn2Clm3ep9oTJ9Vcu09bH5+gWSX+BuIkLc8e57viydZWW6qyw0657Vhj8Xxu4q4/uRo+Wt+zP/N1lwPdMVk53hMDTtW8eNCXD/YY/zsUj/avztfGw77jivaLJt6/uaH72GX4XC3MCMh1r8FvDcBX4K4cPZ7h2xtaQzjNKihVtXXc7d0vmGPuhko9+Zq9v42gLeor37eOmKHlBXZmZQ/T6xVprOnTVcphrsq2hhOjjPl2m6Rcqpo/R09U+Pb33t/E505Vby/t/hsQGwD010BynISA2FRbrEU/MzHnbFvXfmj/0/la9aZv3xpfsFJZAce8sUmpdgGmVP90sfbYMc2KVWWLN/gKVCJyDfaPlz/V1rw0PZhfrF2HG9Vs5TH+XKYoVxv9sXNEllLvtKdtXUMKf3xUu37j+05TfjTBF5MCRLU98prGJwCIjn7vBwOGdVLKeD3QRxtYzNjUrjyp9nhjd486A8m1bIM7DxSvlOm+KOj+8Nfa7+3NNHTvaJzbvzldhz3ifClXxQbNm56m+5PH6p67zS11qpa94auHi8/fpLkJ3kmfmHEab/+nshp/nzDrPZiZr6MDzTcTfqx/8TcUhHL7ZOXYQ4zorNXIfK/uSb5Xk2YWq/kH67Xc/z/+Wrg9S6u32t0KXzypXY/P1KR0sz3mu7r/B2mallessiNuq5NiALghxU7IsU9QmlT8jSJNSzWx4r4JmlV8UiklK7oOwnq4UKMya39pLWvFFmsfnrfFd9Xk0FStWzq+u7DTsLoV9EeFpm25Zj+bplnrTpsoNTAxE1d2dc8eStJ0/xWjHjX9wrzPfb64N+8VafVT/quUrg3HmKX65VJft5Ce1mpzQDhVD/7Aji/p5vst3GAOmi/5FgaAG8pAcpBYZa191u7SvV3NLxZpVqa93n0mF5meqye318httx1ExDFOmXbuUX/MGvLIoewZPePUFd02Xut/tURJdjGO8zXf53vQxLMHM2dqmdnGL/wN8ub1kwqeVeEYbwRQ64EtvmWtmGTipbX8oyWVaup1sWisMjaVa0GCHec62tT05hY9WbhIjxZv0f6GNl8RztBE5b1QqmzvdxbA41JVSb6m2bHGG2+mF2m/98qgeOU9/WN1fe3XXQ4Uo5QJmd4p58e+Rpwrj/89V4UF0tES33HFg+km3m+u9l35Zb6jBU8vVVKPQ4Zr8FsD8BWIUfpTFfY+1+wKT1Vqo3Xc7d0vmGPux0tVe8H7VGRtUV/5vtXElPwVXflaU6m/MTnSWNO3q5PDXJ1tDSthobb7/w4mKtRv9+3vvb+J6fnaWOEK+BsQGwD010ByHCs2vaHVE30Zh+vdUi2bOaFrP7T1QIv3uD5+2rPa/lN7OBG/O2aocI6dqXQ0apcd06xYtf/2FVo9w/dURK7R/rH94xrtKSnSo1Ye489lTtg7+RFZ+uWOhb2HCL4tVZkZ1oTT5APW/XhNTguRDUS1PfIaxycAiIZ+7gfb36/WfrtYJyFldN/tK7c/oHR/LnTsqOq6ilcGkGvZBnseKC5thu98VHOd6q1htcL1jsa5/ZvS9VeI84+jlVWQqeSE2O4DutvilfDQXK175bjeeizoQM8+SFw3O0mxdpLvuD1Jif/Uc6krsxoKSpQX3DjcxaGUnx3VS49lKul232tb75NdslevLn1A/+Cdc+3ETVyvt2pe1urZ45Vgb48lZkSikqcsNN9VibIGcMUsAHytmAO01Yde1vIp/n2/Q7FjcrRub4WW3xv6NGX8D9Yo+6FExd9mz7DWSRinjMdeMPvTF5TlHds5gEn2X355idJH+F8vRvEPjbzCCbZQYpXxs7VKsWNULyNy9PL+Tcp7KN5OvK33WaKXfmO2aaR3xjXkUML8Cr2zd5MWTBkX9F0lKn32Gj1/oKDrSicAuGEMNAcZPl7r3jyul9bmKD14nfsytaCkQuunDDxiBEqaWNB9NeXQGUq/u8cW9IvjroV6teaAnjc5THJXPLNyBhP/CjYp6/9rz7BYhSDlx/X6poXKuM8fk4yhsUq4a7yy15p4OT9EBBiapMIq8x09t8Ksl9iVk/WMs3u1PKX39xGTlOWNN8H5THr+eu92L7cbTvyutxwo5gdZXSeae4//HVpyfoX5jud2H1+Y30zylBUm7u/taijq4Rr81gB8Bex9rm/fGbDP9e4TFuqZKf5h7gbeFnVd7FtNvrbwZ3Yvph2N2rC9zneVaqSxpk9XKYe5Ktsanu/vUKF1+YF/B+szWO81Vw8Ms2dZiA0A+mOgOc7QeGVvOtL7uD5wnZLxigsuSDGvkrzyYI9YZa2Tvvhlvb0tSyO/6ZsVqau6fxxVoLd2rddyKwb2+p5ytPq5A3rvzfVKD24z9IpR6rScrnUcc7KV3hWDukW9PfIaxycAGKz+7Qfb1XS8xvuslKgss3/rW6wemOgfNaFRhxoCRhbod65lG+x5oNvHa7J/KEUjaWpqr97R/Di3f/P5RqdhTwMAAAAAgP7wnNTW9EXeK7Yc+RX67WOhGrzbVF00we7Wfq5e/b2/JzwAAAAAX2eeE1v0g8J98sihvFc+1PIx9hMAAADGdTg0FQAAAAAA1zfP7+tV7e02OfT43wAAAABuVB6dbjjoHbJLwws0eZR3JgAAQBcKcQAAAAAAGJA2HX3NuvrVCDf+NwAAAIAb0/mjqnzDmw0oKT9TCb2G7AIAADc7CnEAAAAAAOiPjna1n29RdUmBPdxUvBasmhF2/G8AAAAANw7PxXa1fVKtjYs3yJsOjFio5dPJBgAAQG8U4gAAAAAAcCXnq7UsNU0PZuZq42GXmeFQSskLKhzl8D0PAAAA4IbVdrhI96enaVLeBlWfNTOGpmrdjiVKIh0AAAAhUIgDAAAAAMCVfPMWe0KKGZWp5buO6vlpXP0KAAAA3BS6hp+KUdKUFXrpNy8oa7g9CwAAIMg3Og17GgAAAAAAAAAAAAAAAECE6BEHAAAAAAAAAAAAAAAAiAIKcQAAAAAAAAAAAAAAAIAooBAHAAAAAAAAAAAAAAAAiAIKcQAAAAAAAAAAAAAAAIAooBAHAAAAAAAAAAAAAAAAiAIKcQAAAAAAAAAAAAAAAIAooBAHAAAAAAAAAAAAAAAAiAIKcQAAAAAAAAAAAAAAAIAooBAHAAAAAAAAAAAAAAAAiAIKcQAAAAAAAAAAAAAAAIAooBAHAAAAAAAAAAAAAAAAiAIKcQAAAAAAAAAAAAAAAIAooBAHAAAAAAAAAAAAAAAAiAIKcQAAAAAAAAAAAAAAAIAooBAHAAAAAAAAAAAAAAAAiAIKcQAAAAAAAAAAAAAAAIAooBAHAAAAAAAAAAAAAAAAiAIKcQAAAAAAAAAAAAAAAIAooBAHAAAAAAAAAAAAAAAAiAIKcQAAAAAAAAAAAAAAAIAo+Eb7pf9fpz0NAAAAAAAAAAAAAAAAIELf6DTsaQAAAAAAAAAAAAAAAAARYmgqAAAAAAAAAAAAAAAAIAooxAEAAAAAAAAAAAAAAACigEIcAAAAAAAAAAAAAAAAIAooxAEAAAAAAAAAAAAAAACigEIcAAAAAAAAAAAAAAAAIAooxAEAAAAAAAAAAAAAAACigEIcAAAAAAAAAAAAAAAAIAooxAEAAAAAAAAAAAAAAACigEIcAAAAAAAAAAAAAAAAIAooxAEAAAAAAAAAAAAAAACigEIcAAAAAAAAAAAAAAAAIAooxAEAAAAAAAAAAAAAAACigEIcAAAAAAAAAAAAAAAAIAooxAEAAAAAAAAAAAAAAACigEIcAAAAAAAAAAAAAAAAIAooxAEAAAAAAAAAAAAAAACigEIcAAAAAAAAAAAAAAAAIAooxAEAAAAAAAAAAAAAAACi4MYrxDlfrWV3j9U92532DAAArq62w0W6x8SeslP2DAAArkfhciVyKAAAAODGc70e51+v23W5Tc0VxZqXbrbNbN+D5UHb13ZSVevy9aC17Xenac/H9nx8DThVZv3diqrVZs8BAOBqi7AQxw5avW5pmlVYrKoGl9ov24sCADAI/iKX4Nv9mbl6Ynu1nOftBQEAiLLW8qm+uLO6Ru32PAAAouq8dVJvkWbZJ/18bWs71Rwm8LS31qhs5Uz7JOC9mpS7Snsa3PLYz4cSyTpqb1Ht9lVd2+XNv8ob5e6wn++H9tpVvs80kJNen+zWNO92lqrfp2cjWQcAgB48cu4o0KPba+S6I1N5BTlKGmI/ZelwqqxgkcqOuBQ/Za4WzB5tP9Gm2tVpuic1V3s+7jOyAsCNyV9cmbpFzX3uBt3an28ds+dr/+f2LOAGN8gecWIUf1eiEvy3EZLrhEnuH5+pSSur5aYYBwAQJY7bA+KNucW0t6i+YoPmZc5U2SkSXQBAlHlOqrrC7Zs+dlR1FH5eVe2f1XivLt1D73IAbiLuw6v0YOYilb37RznG5mhBwUIteCRVw/7iVluIghf3kVX6YW6xqj68pKTZZtnZD+jW83Xa9fhUPbzdGbKwJpJ1dK5GT0zP1ZMVH+hSkrVdOUr9llv1LxZpWl6pnP0pxvE4tXtHnf2gv9pU/eJO2dG3nyJZBwCAIGcPakuFS5q4Sb95ZZOWL16j5+cn2U9KrsObVXVWSt94UK9uXKHCtS9owSj7SQC4md0+WXPnOKSOfdp1KPxRuedEpco+lhxzlijrDnsmcIMbZCFOlv6laq9e998ONOh39Xu1Os0hT8MGPVbRYi8HAMDgJC/e0R1vzO2d9z/U4edyFC+XqpaWqP6ivSAAAFHg+X29qjtMxjMtyzxq1KEGTvFdTa4jxSo74tQl+zEA3OjajxVrVkmdhk1br9drjuv1bWtUuHiJCldu0kt7NynjdntBv/PV2rquTu0j5uols/zza82ya5/VW29XKM+6MK6iWDuDL1CIZB2rsGVzscmv4pX38nG985y1XWv0ywPH9Wp+vHS2Uk+VhyngCeA6sE1V5+wH/eRpKtfWJvtBP0WyDgAAwdr+0KhWc5+SMk6xgT3heLWp9YR1ritVKd+P9c3qEquMrQ36XeNeLRjlsOcBwM3EoeTcFbJKF50V++QMmSi4Vf3iPpNDJGl57jizBnBzGGQhTgi3JSp70zZZzdWuV+roEhYAcHUMcSgubY1+uTJR6qhRdRMj/AIAoqVd9QetBoLxSv7peGWbOc6KGrXS4ycAIBo6GrVrQ408Keu1fV2WEmLs+WF51FyxWU2KU+HTK5QcuPzQJC1/eol5xq2q/R8EDKUYyTpmrRO+wpa4xZu0vMdKDiUt3aTC4ZK74g019jVm47lqlf3CqZRH5irZnnVFHSe1c/M+fdusY7Up9ksk6wAAEMoVcr3/IRcEgPDumKFCq1ecc5WqrO+dKPh7w4nLX0lvOLipRL8QxzL0e0pOM/cdLTpDF+4AgKsoPinVW0Hd9Bk9FQAAouR8nY4eM/cZmUoZPk7p3saEajVal0gCADBI7iPl2t8Rp8LFWYrrddV9CJdb1HjYIw3PUupd9rxAd6Vq+nBzX9vcfQVqJOsYLR8elEdxmp6WaM8JMCRRqTPjzESNmkNf6mre163qX2xW04glWpI7sp9Xu3rkLN+iqouZenzBBP2DPbdvkawDAAAAIPocSs729YpT/6t9QRey+XvDSdX8OUn0hoObytUpxFGsYkNUtLWfbVTVukV6OPNe3XP3WHNL06yVpaptDXEZzalS3zLbw/Spc6XnAQA3h9g4jbYne7jcJufhUj2RO0H3e2POWN2fmasntlfL2VeR6OV2tdYGrmfFqt1qNuu0HS7yvs6yw330vmPet7miWPP8sS59pnnPGoUKdV4et28782bqwa7tzNeTFSfVxtU2APCVcDcclDXKRfaUBxRjNSZMyjH/urX77ZMKc9qxK0aUnTIPBhILzldrmbWMnde0najUk/MDY1CYfMkv+L1SJ2jeukpv3IqKiy41mdd/NCCePjhzlcpqW9TeK045VWYtU1QtK1L2+Cz+7QoKoc7tvtecV+F7XDXf99i6eb9LALjhmP12g9nnhyuQCeXzT9XcYe4fSlKCb06QkUpMse5Py+0fDiqSdeRSS7MV6dKVdKdvTrD4hFTv/enPQ18I4T6yRVsb4rRgw4+V0J8iI8Nzaod+XuFWytqVSr/NnnkFkawDADe7AeUakbZXnXeqevuqnueACotVdaqPnKaLx+QHM33v9Xi13BG2i/nPQ81K9+cW9jY0uHrlMP48blJJo/dxU8kEe50iVZ9vU3WRNT1BG73DIDZqY6b9mnbOY/HlNNby9oxAl9vlajDfe2Hg92i1T9bJFSK57Pk3uleT5pvtPjHIXsAHlNMFfZ72FtWav6f/u+zrNxBxTuwX9F5XWmdA5xv7Yr9v8G92f2u47B9ASCNmaOFsh3S2XNUnuv//dPeGU6DJwcPvAje4q1SI45LrI+s+Tt/+R+8Mb+HMgzOLVPbuH3XL93O0oGCh8qbE68K75sAiN1+7PiaoAQAGzuNqUbO5T7g9oNv0c3XaOHuC5pVUqvFinNIfWWjizlylf+cLNVZs0Lwf5WrXqRBxx7p6c+UEPVxcqfrztyp1trXeZMW7fq1Hf1SkX//7FWLVJad25U3WsjfcGj7hx2bdHKXfdkH1JvF8ONMksF0N3H4moV851budzR0jlWlio7VOsqwEcJGmrqzpSuoBANeK2QdXOKWhZh+ebF+nM2qyFg43MeeNennPT/ZlwLHA75KcL+Zq6qoKnYubrLkmJmQ/NMzOlyZo2eEQJzztePfo9jq5vzNeeVaO9VCcXEdKTdzK1Z5B51hOlaXP1DLz+me+NU7ZVpx6JFPxF+tUVZyreb9yhi1MOnO4yPtZ2v/3DPNZcpQS0y6ntV2zt/hODNtik6zYt1AZo3yPk6b4Hlu30bG+eQBwQ/F8qlbrZJ5VINPh6nHCKezJrS/csjplS463eqMJxaFht1vPtch90TcnonUufyH3J+Y+eaSGhymicQwbJmut1vMhTnKd3aenShoVV1CihaP6ea1rR6PKllbKnVai9VP6ueOPZB0AuKkNNNeIrL3KfWyDZplYtrHiA13w5ydT4k2KVKOy9132UuF45HpjpRZVuORIW6+3tvWz17gePGp9JV+TrPNQRz6VxvrOQy2YPc6EO7MNj8/UD4trehT4OL6b6l0mO80XL+PS7HUKUjVyqEMj03yfPcXqRc5EwJQ5vlxlQVo/en3raNGeggma9XipaltMePW2M+Yo9Vtukx9W6/Rf7OUsl828kpmaVFiq+j/bbZmPjFfcWbPdhZP1cHn43Ktvked0+lONnpieqy3v29tu1ku0fwOTZpfKGZDX9RBBTuz5ZLfmZeZ6j4P8f7fspEtqtNaZvkq1wUVO0TrfeK5ay+z39b9Otsmprd9s40ALeoCbnkMpMwsUb/Yq+391UL7IQm84uMl1RuR0Z+nYMZ13j91mpnr78uS2zh+a5+/b+mHnl/a8TuevO39+6NPOS3+zH/v9+687f2K91trjnZfsWV4fbTOvb+Y/F+odjHDP/+fBzqK+1gMAfK1cOLTUu78vOnTBnhPgb//ReXCpFY9+3LnvT/55n3bunmHNm9H585r/sGd2u+Qs7/xJink+ZW1n3V/smbaWPTO87/WjrR90XgiKV//xm6Wd91nxJcS2+LfxRzPmdP5kz+mgWPdl55m99ro/O9oz1nVe6Kx5rrzz5H/aD/3+dqmzcdM485pTOne32PMAANfGH8p75zJGy54p3n39qpqee3K/iGOBP3+ZMaMzd1555+mgl//y39/oLLLi1tiVnTWBcSsg3pWeDFrpT+Y1rXVmlHe2BG5HuFwpbA51urNy48HOluCP/LcznZU/tt7bxNIez9l5Ysq4zvtmbOvssVldsW1MZ+7eM/bMbqefs15vTGfpR/YMALhRud7ozLX2lZt2dO609uMPzehcZU0/u7bzJxm+/eTdZh96+r/t5Y0+cyKbf5nid3w730jW6YoHSw+aTCUM/zLB7Xj/bWKA9XkCY8+VXs/K5x4zn7lHbtZ3m2NE6wDAzcq/Hx5orhFBe9WXzh2dP/K+V0lnjb+Nzu/Sp537agL20CHyj/8wMcnKl+577I3OMwExcCAuvbPW9xohPqsVP2rW2+1+ez61Z3brO25esNsfl3YeDP5ODF8uE/yc+Q6teDV2XIj80Dz7/sHOxoC36mqTfO7Dnsv6457J+yJrIxxoTuf/PFO8uW2vttW/Xehs3Orb1h/+quf36P8OB5wT/+V4Z7G3rdZ8h0G/nUsnt3l/V/cFH3cM9Hyj/1ihxzHJl+b37PusO532LD/zOVtcwV8agCu71Fm31hcnSj/6svPL3272/r//odnfB7axATeL6PaI0+GW880N+snySrmHpmp13rju6rZRc7VuWqJigquY70xVptUVb+1pXakmGgAAr8setZ1t1J6iXG/XsPH5K5VlD4nYXv9r7TorxS3epHUZva/+jBm1UE8/lmRiVo0qjwVc8dNep1/vMJFo+BI9szJVsUHxKm7mNj1rda3YB1dcjp6dnxQU6xyKn7NGy60r/Y+9oZrPfXN9YpXx2EIlB3fJOCRGyWkzzIRbp1vpEwcArh2Pmt8uN3tfh7InBeQyRsLEub6xrvceta/qCW3gscB2Nk7ZmxcqKaCDN4vjzhyttuKW6rQvIG75413Sz7ZpeXLQSndkaUm+iYFnq9X4mT0vIknKeypLCUEvryHxSslMNBM1Ov1H36weOhK1vHSFemyWiW0puSu8w6O0nmihxzcAN6+Lvp5q9OZuVX53vQ4fO6Bfrl2iwpWb9Orbx/VSfrzZf1fqqQivfG//68DXimQdtbd3b5/Vs2hxgar+K1Xrdizs55BUHjl3FGljQ5zydpT0c3ipSNYBAAw01xh4e5WJA8/ulsvkD6tL1yvDbqPrEpOo7AzrfUJra9qix6yhocYs0b9uylH8UPuJAWnR/u01JlKM1/rS3p9VQ+KUUbxG2ea1Xa9UX7mn00HynCjXhgaPHLO36eVe+aH5htOylOLv1M3fJjlqjX65dFzPZc12Z/20QHHm2z3U1GLPHIgIczrzN/X8YK1WB7etDolVyuO+79FdEfp7HGhO3HqgTLUdJgffuq2rfdcvJrlACyea77O2Ts2BHdRE5Xxju77w9s6TpMQR3hndzOdMGBH8pQG4shil51n7LLeq9pdrt7c3nPEqzKc3HNycBlmIU6l53jET7VvqVM3bXK1Wx3it/lcTNL3d9fXUftap5tp92vXiFj2Rl6uHM+doq9XtLQAAfegeo9ncku/1djO768SXSnjkBb281H8g55Hz32rMfaLyJlrJZGhxaTOUYu6dTc7uE4Etp1Vr7hLyxodpOHYo8Z/H2dOhpWQ8oNAdo8cpZbq1rlOuP4XIUD1utZ5oVHXFTpVZYxvnzdSkon32kwCAa8ZzSvWHzX56eIEm20MldbkjVZnWvI+PqilUIY0t4liQNlkPhBkrOy5lhpLNvfMzl4l0Fn+8S9X0h+K9c4LF35Vq/o1SQedFl5wnarT/xZ3autLkcLkT9PAv+mgEHv6ARgc3ZFruiPd+Dn3m1gXvDAC4iQ3N0bObgobdsE5wLvaf3Doa0UnCuNiBnzSKZB0NHybfWoHFMaHbAkNxH7aGH3ErpeQFLR/Tv2b5SNYBABgDyjUC9Le96nyzGj829xPnKDNUHtAHz6lSLTKv6U5YqJetYs6IinCMs6dVZxVVzM4KX6jpGKdM6yK7joNq9lbFXj0tHx4032ecFk5PveLJZ4+z2dsmmfKjCYoP1SZ5Z6K3HdP90SAuaBhoTme2OiM9zIlz8z2mW/VYHaflCjHM1MByYpdO17u9x0WZ94V6txgljA1fMDS4842x+t5YK5+u0a5t1Wr1D9UJYHDuylHhRHNfu1t7TGyIW7xQGRTQ4yY1yEKcGMXflagE+5Y+e6FWP3dA7x17Vtl3BgXNc3XamHuvHpyZr0eLt6jy8Gm5b41X8rQZ9viaAACE57i9O94k3JepvMfW69W3P9DrPXqv8V/JMFpxfcWW20fKe9rywiVd8s6Q2v7su05i9B29e9Hpr/i40Gmm5e++6YuL7rbAyzc8aq1YpAfvm6qHC4u0cfs+NbkuKe6fxyt7SvgrhQAAV0d7/X7tt8a5P7dTDycHXHDgvU3VVqtxWU5VWQP8hzHwWGCLjwvTWGmYOOdd89wFE+ks/njXqI2Zwdvpu90fjYLOy27VP52r+9Nnal5hsba+dlCnz9+q+O/PUFZaH/EyfpiG2ZM9DPk73/25S/rSNwUAN68pqUoOdbLRMUapU6wJl76wqxYd37pyocylDt/Cjr/3xZpI1tHQGLu4pg9//dJXTDn0Vm9s8hXHuBRfUKIl/SyOsU66ens+SCvR+mn9y78iWQcAYBtQrmEZYHvVn8+oydxZBRMDKu38/TYtWlop1/C5en7PEiWFKcJpO1wUMue55+5Sk53Z7B7nEsxn7SsaxcVbhSAetV+KoNq139p05jPr9VOVeKdvTl/a23y9EfW4CDHwdl+R9nuXCGDiYshl7y5S9Xl7GUukOZ3Gafg/2ZMh3PJN698WuUMUrwwsJ26X2yqc6ajUvF45uO82K1TBUJTONybM2abVE2PkOrxBD6ffq0mPl6r6FP23AoMTo4z8JfLtYcarcHb4C6aBG90gC3Gy9C9Ve/W6fbO60s1Oi+/dHZzHqV1LV6n680QtsAp1mj/Sb2vMOrs2afniAqWHvogTAIAuyYt3dMUbb/zIz1LS8HCptUOOUFeQBPv7W3ol512N0FdLwHa1HVmpn2w/qWHT1ujVtz/U737foLfseFr4o9H2UgCAa6NdTe/WmfueFxv0vJlcxyzhPtSo1svelSLTnxgVypBb7Am/JGUULNSCPm6p3400rnnk/FWRnjhwRokFL+it+o/0u8bjJg6/rGdWLtFCkjgAiMw/jfT1DmYXsvTmUIz3ROQpnbPPA8X8L99JxWZ3+MERL7itk1Spiv+O73Ek6yjm24qz3vsjt8Ku9YXvRGdKvNW07tT+kkYTMSRXeb7uDz55lrnBe2JWTRs0yTvPOmHapqN7Kr3DRXgaiu35gbd8VVnrdPXCbZ1QjGQd7wwAQH8F5BqRtlfd6hhg7hE/WklWsce5RtU2hY9Xju+mhsx1FhSM7lVg1N9tcAx0WyPSz/ZJW9KUUJ8x4JY2svvYIXZ06GUKUjWyq6Dpaud0Dt0ScW5r3/sNT1V2yM/TfRvt/2NH83zj0Hhlb23Qewde0PIpieY4o1Ib50/Q/fN3q9W6SAdAZO4ap4es+5RUJdMbDm5igyzE6afWD1R5Voqbv1aFvQp1vlDblQdrBACgHxy61XvpTbNcfQwbovNnfOMEx8boVu8Mw45NrWfCJ/7/87e+r5bx/Hf4592uk+ZfhxK/688a29R8zGq0zlThypxeRUXt/stfAQDXxudHte+YuR+1RNv9hZ+9bhVaY3Wve65c1WHGCxlYLAjQccl7IjOkP58xkc2smeC/ktUf727VA9lLVLg4/C17zICuSQ3QosbXTLQcXqA1i1MVH9RwcuECSRwAROT24Uqw7ps/9eUkvbTrgreIZJxG+q/oHpGodHPnOXUmTIFMi5zvmrvho/U9/9AjkayjeCWmmbsOp86EGGrC0vpxvfk3TqMTfBHp2yELV+2bWcab5QyNted927vOrYG9nfa6+Ypeuwtjh+nWb0a2DgDANqBcI4L2qm/d6u35oLk1xPBWffnHCVq+41lljXCpenWRtjaF7okkZkxOyFyncPF4u8cFo5/b4MvJ4nRrV4Pg1dDP9kmbvxe7mPvmhPiMAbfZSXa8M+4YH3qZxeZv1rXQYHK6C/L81Z7sxerxx7oPOFYJMLCc2HxX1mtcTFRmyM/TfUu/w7fG1TjfGDMiVXkbK/Teibf1/Jx4c/y0Uz/5RV1AL1EAAAzcNSnEaXO1eA9+RgzzJdw9nD2txlDJvf8Koc/OmLDeW2uzlfgDABAoRslp4819i6qOhR82pO3DOu+Vmelp47oS2Ng7R/sS9kONoRuqL7vUdMhKFsOrbjgZOtnvaFTNm+aZoTOU7G11t7j1aYN1P0zDuhJkP4+c/2b1ygAAuFZaj1V6uzVPmpra3ZjbS4zSp+WYe4/2vxt6nz+wWBDgSKOaQ15x51FTzT7zr0NZ3rHxLdY4+VaX8I2qa75KTYPnz6jF2p5Qw0yZmHj6/fCFqwCAPgwZo9Q5DumTo2o+a88L1HFazVaeMCpVo/znqGLG6QGrELT5oJpCrfNJow6dk+Kmp/qKfCyRrNOVT53UoYYQZ7Eut6jxgNn/D89SqneojSTlhSxctW/PLfW17Y1dqhe88+aaNWKV/lTQcj1uJZpurdPVC/d6pcdGso53BgDAMqBcI4L2qjvH6SGrF5Y3q1UfYqiiPg0fr3U71itlqEv7iwpUFml+c2eqplsFHX1tg8epumMmJ+uKY1dLjEbfl2ru+26f9ItJHG3io9RkcsmoZneDyulaVHMiTEXL2eM6ZDWsBh6rBBhYTjxSSWnmuKijRs3WEFX9ENH5xv5yxCll5RrlmUnP4dNhiqYBAOifa1KIExufaA7lzIHEsQ/kDuzCvf2kylaUqiXU2J/DE5VsHTg17davT/Q8/GhvLtWTL9LwCwDoLSb9x1owQnK/WKyNtb1jRfvHu7XqF40mW1uouekBLQoJMzQ/xdx/XKqnXnGqPTBeXW5X846VKvtjz6uAgnneLNXW4Pe87FZ18UrtN4lv0tIcJXe9RJy+Z11tqnrVBfWq4D6wUk8esR8AAK4+/4lFpWp6n+PkS47kdGX30cg8sFgQoGOfyn5R0zNfMqyYsMpqrBy1QtkBK8ZN/LEyzHbUP12s/a0hmmvPn9Se7TUhL2rol9tHKtH6nE11+iCwIbOfMXGg4uKthmrJ+e/keQBudA4lTy9QvJzauqJUPc43mnhR+/QWEy8cysibHFAYGqP03LnmsVNlz+2TK/BkaoeZ99ROuYdm6vHZ/pOolkjW8eVTecPN/nhHqfZ/FpineMy8Yu06Z7btsRwlRDoUBQDg2htQrhFBe9WQJP14baqJcHXasGK3nMHpSXuL9h+xLnsIY3iWnv3XNd5inKpF+So71fN9+2VIorIW97ENVozdVKIqE8dSFs+46nEsNqOgz/bJtoZ9qvcPo3jHZM3NMN//sRI9+UZLzzZJy+U2NZeXqnagwy4OMqdz7ijRno+DvkjvOb0t5ujCoeyfzgg4Vuk2sJzYf1zk1q6ntqgpxGdsb63Wxte6fz8RnW8MyS3nCbc8wd/3lx79v9b9KH8vUQAARObaDE11V5ZWW1WtTRs0a2q+nty2U2Xr8jUpc5GafrBWS8bay/WQqOzHMk1AdauqcIImPb5Fu17cqa2Pm+nlp5W9cq69HAAAARxJKtyxSem3uUyCN1X3Z/rizq4Xt+iJmWl6MH+nnI7xembHEiX1yDdjlbXWWs9qYDYxyo5Xuzav0qyJaVp2YrxWLx5nLxta3lM/1hdPT9WDM1dpq4lZvnWnamODRzETN+np2YGDFMcq/SdzvYlm1aIJmrXSinO+bZxWKj2+wupxAQBwLXiaq7XbapicOFnju4bnCMMxTpmzrQBSp33HejeoDiwWBHhkvfIulmjaxJl6YnN33Jr2dKM8t5m4tTlH8YGNxWbe+h0mjnQ0amuuiW/+97PWy51g4t8i7RrU5XtJmv4zqyG7URuzJ2jeulLt2laseVMn6NH3U68YEwcqdmyq9ypQ5+Zc33ttLtKej33PAcANJ2GhtpeYfezZSj2aae9j7XjxZO0XSigo1/qJPbshcIxZqqcLEqWGLZo11Y4VZl85aVK+qs7GK29Hicll7IVtkaxj5VNLnl6oBLP/32r2//48ZVnmA5pX4VJ8fu9tAwBc5waUa0TWXhU7ZZtetmLOqZ2a94M0zSosVpnJT6zzQA/+IFdbvUMZhee4M0fPWvmNXKqaPyeiYpxe2+Dddvtc1A9MjD3s9sbYZ6dcg/KKXu2TuV3f/bLMezXp8UZdshf1Fs8+Va68ER41/SJXD3b9nXZq68pcs+0mB3vRJHcDHnZxMDldqpb/bLRq8ido0vzuv6V1Tq/qrMP7PS5P6dGw2mXAOXHXcdE+33djv5+1rY9abbm5G3S0+8uK8HxjKG2qKzR/G/N9P2p9N/7POKlI1eaXmLc8dKERAAD9dW0KcYbEKWvTG3omf7zivnSq9rXdOvSHbyvzqQN6/bEH9A/2YsGsoPz2yyuUMSZG7Q37tKd8n5qHTNazeyuU/c/2QgAABBueqV8eOqDnH8vU6G+5vHFnT/lBnb5lnLLXvqx3jj2rDKvXtWDe9fb2iFeVDV8oIf9lvV21RA9cqb15ZJae/83Lmht/RjXl5j3f/ECXbh+vvE179X9vylRc0NU2jjEr9LI3zjnkftfEudeO68I/F+ilQy8oa6S9EADgKvPodMNBb9fW6Q+lqj+nFpMmFngb5JxvhxjOcICxoMs3Rypr21G9lDtSrmNW3Nqnxr/GKT1/k14/FDpuWXHkrZqXtXzKOA27WKf91vuVH5VryBhll1TonW2Zg7qCL27aNr2+aa7S/8kj55FK7TnSomEZJXqrasWVY+JA3ZGjZ19eopTbv/S+V2XDJcV8y34OAG5AcdNe0Dt71ys76Va5rH3smyelxEwt33VUry9O8l7p3ZNDSYv36u1dJn8YcUmNb5p9/pFPNezeJXqp5oCWm5yit0jWseLLEr1uYtnyKfG69KHVHndQLbc9oMJdx/XWY6G2DQBwXRtgrhFZe5Udc15Zr7yH4nTJWaMqk5/s/zePkvPX69U5Vtl936z3ffVluxhnab52DbgYJ2gbvDFst6qa2jXyoYV6Zu/xMDH2KunRPulWvRWHTb52Ln68lj+3QuMDx4samqTlbx7XS2bZ5Nsu2MvuVo1LGj3bfH81LygjguRuMDndP9xr/h5712q8TnpzzaojLt2a1Nexii2CnNh3XLTJ/N3MD+z/8f129hw8qUv/K9V8Vwf0zk8Dfj8Rnm/sLV6TS8x3Y37/LdZ3Y97T+r2OnrKmz+MkAAD66xudhj0NAAD60Ha4SJNKGpWy8bievxZXzwAAvjb8MSLvlY+0fIw9sz/OV2tZ5gY15Vfod49duXEaAAAAAICrxbl9rOZVpGpdzQvKulKPsQEizokBALhBXZsecQAA+NrzqOUPjeY+TqPvpAgHAAAAAAAAAAAAQG8U4gAA0B8X61T9prkfmq7kO32zAAAAAAAAAAAAACAQhTgAANicr21Q9Sft9qMAF53as6JE9WYyZUWOkkKMZQwAAAAAAAAAAAAAFOIAAOB3oVob89J0f2aunti8U7teLNWThTP1YHq+dp3yKH7OC1o/Pc5eGAAAAAAAAAAAAAB6ohAHAABbUv5ePVOQqdG3faHGN3drT3mlaluk4Q/N1bpXjuutn6Uqlt5wAAAAAAAAAAAAAITxjU7DngYAAAAAAAAAAAAAAAAQIXrEAQAAAAAAAAAAAAAAAKKAQhwAAAAAAAAAAAAAAAAgCijEAQAAAAAAAAAAAAAAAKKAQhwAAAAAAAAAAAAAAAAgCijEAQAAAAAAAAAAAAAAAKKAQhwAAAAAAAAAAAAAAAAgCijEAQAAAAAAAAAAAAAAAKKAQhwAAAAAAAAAAAAAAAAgCijEAQAAAAAAAAAAAAAAAKKAQhwAAAAAAAAAAAAAAAAgCijEAQAAAAAAAAAAAAAAAKKAQhwAAAAAAAAAAAAAAAAgCijEAQAAAAAAAAAAAAAAAKKAQhwAAAAAAAAAAAAAAAAgCijEAQAAAAAAAAAAAAAAAKKAQhwAAAAAAAAAAAAAAAAgCr7R9sX5TnsaAAAAAAAAAAAAAAAAQIS+0WnY0wAAAAAAAAAAAAAAAAAixNBUAAAAAAAAAAAAAAAAQBRQiAMAAAAAAAAAAAAAAABEAYU4AAAAAAAAAAAAAAAAQBRQiAMAAAAAAAAAAAAAAABEAYU4AAAAAAAAAAAAAAAAQBRQiAMAAAAAAAAAAAAAAABEAYU4AAAAAAAAAAAAAAAAQBRQiAMAAAAAAAAAAAAAAABEAYU4AAAAAAAAAAAAAAAAQBRQiAMAAAAAAAAAAAAAAABEAYU4AAAAAAAAAAAAAAAAQBRQiAMAAAAAAAAAAAAAAABEAYU4AAAAAAAAAAAAAAAAQBRQiAMAAAAAAAAAAAAAAABEAYU4AAAAAAAAAAAAAAAAQBRQiAMAAAAAAAAAAAAAAABEAYU4AAAAAAAAAAAAAAAAQBRQiAMAAAAAAAAAAAAAAABEAYU4AAAAAAAAAAAAN5Lz1Vp291jds91pz7hOXK/bdblNzRXFmpduts1s34PlQdvXdlJV6/L1oLXtd6dpz8f2fHwNOFVm/d2KqtVmzwEA4GqLsBDHDlohbg/OXKQnK06q7bK9KAAAg9B2uMgbX5YdvnKa5Pl4tx5ONbFodQ1JFQBg0FrLp/ryHBNX2u15AABE1XnrpN4izbJP+lkn9mYV7lRzmMDT3lqjspUz7ZOA92pS7irtaXDLYz8fSiTrqL1FtdtXdW3X/Zm5eqK8Ue4O+/l+aK9d5ftMAznp9cluTfNuZ6n6fXo2knUAAOjBI+eOAj26vUauOzKVV5CjpCH2U5YOp8oKFqnsiEvxU+ZqwezR9hNtql2dpntSc7Xn4z4jKwDcmPzFlalb1NznbtCt/fnWMXu+9n9uzwJucIPsESdG8XclKqHrFi+dPWkS9UWaNNskvwNIzgEAuB55zp1U9fYiPXkkTNOxx63mw6VaVkzxDwDcUDxm/1/h9k0fO6q6877JrzViFgBcV9yHV+nBzEUqe/ePcozN0YKChVrwSKqG/cWtthBtau4jq/TD3GJVfXhJSbPNsrMf0K3n67Tr8al6eLszZGFNJOvoXI2emJ6rJys+0KUka7tylPott+pfLNK0vH6293mc2r2jzn7QX22qfnGn7OjbT5GsAwBAkLMHtaXCJU3cpN+8sknLF6/R8/OT7Ccl1+HNqjorpW88qFc3rlDh2he0YJT9JADczG6frLlzHFLHPu06FP6o3HOiUmUfS445S5R1hz0TuMENshAnS/9StVevd90O6L0TB/TMNKsgp1KLdpzs++oaAACiyDFqoV5v/Ejvbc1UrD1vsNr/rVIbKxrVHq6nt780q7KkUk3tX9ozAAA3As/v61XdYTKeaVnmUaMONdwAp/iIWQBw3Wg/VqxZJXUaNm29Xq85rte3rVHh4iUqXLlJL+3dpIzb7QX9zldr67o6tY+Yq5fM8s+vNcuufVZvvV2hvBGSq6JYO08FtcJFso5V2LK5WPUX45X38nG985y1XWv0ywPH9Wq+r73vqfIwBTwBXAe2qeqc/aCfPE3l2tpkP+inSNYBACBY2x8a1WruU1LGKTawJxyvNrWeaDH3qUr5fnCLY6wytjbod417tWCUw54HADcTh5JzV8gqXXRW7JMzZKLgVvWL+0wOkaTluePMGsDNYZCFOCE44pVRvEbZQ00y/EajTjNEFQAAAICvlXbVH7QaCMYr+afjlW3mOCtq1EpuAwCIho5G7dpQI0/Kem1fl6WEGHt+WB41V2xWk+JU+PQKJQcuPzRJy59eYp5xq2r/BwFDKUayjlnrhK+wJW7xJi3vsZJDSUs3qXC45K54Q419jdl4rlplv3Aq5ZG5SrZnXVHHSe3cvE/fNutYJbD9Esk6AACEcoVc73/IBQEgvDtmqNDqFedcpSrreycK/t5w4vJX0hsObirRL8SxOP4vJYy1JlxyX/DOAQAAAICvh/N1OnrM3GdkKmX4OKV7GxOq1WhdIgkAwCC5j5Rrf0ecChdnKa7XVfchXG5R42GPNDxLqXfZ8wLdlarpw819bXP3FaiRrGO0fHhQHsVpelqiPSfAkESlzowzEzVqDn2pq3lft6p/sVlNI5ZoSe7Ifl7t6pGzfIuqLmbq8QUT9A/23L5Fsg4AAACA6HMoOdvXK079r/YFXcjm7w0nVfPnJNEbDm4qV6cQR/9j5cNGnL79j94Z3S575D5VrbKVuZqVPlb33G1uqRM0b12lms/by3i1q3a19fy9Kjtlz+rFrf351jKrVHvRngUAuHmdr9YyK65sd9ozemo/26iqdYu648/daZpVWKyqBlevoafaDhd5l5lU0uh93FQywV5nrJYdbut+r8wN8vaE3rRBk+zn7ymqllmii/99H868134N874rS1Xb2tdlpACAr4q74aB335495QHFWI0Jk3LMv27tfvvKQ++2najUk4Uz9aB3f3+vJs3fomprf3+q1BcDwsQotbeodvuq7hiVPlNPbK9RqFDhj1HePClovQdnrlJZravndg4gZgEArrY2NTeYWBCuQCaUzz9Vc4e5fyhJCb45QUYqMcW6Py23fzioSNaRSy3NVgRJV9KdvjnB4hNSvfenPw89ZKP7yBZtbYjTgg0/VkJ/iowMz6kd+nmFWylrVyr9NnvmFUSyDgDc7Ly5yvwJut+bC1yhbcrjlvNwqZ7I8+c2Y3V/Zr6erDiptr56hznvVLXJT3q0gVltb6f60wbmkXP7TN97PV4td4S90ESn/a9I1efbVF1kTU/QRm8i1aiNmfZrBuRRzu3+5e0ZgS63y9UQmCNa32OuyfXq5AqRXPb8G1n5pNnuE4PM2C661FRRrEdz/a/rzxtbQg7F3+PzBOWbff0GeuSpl83xjnnPef7fQR/5bZcB5MSWqLW32u8b/Jvd33ql7B9ADyNmaOFsh3S2XNUnuv//dPeGU6DJwcPvAje4q1OIc75Z9c3mfuJoJQWVtrUdWalp8zeo6qMvFT9xoRYULFT296WWI6V69EdFqu06WIlR+gyrwduj/e+Haaz+vFE15j+vY042STcAoA8etb6Sr0kzi1R25FNpbI43/iyYPc4EoBqVPT5TPyyu6ZHgO76b6otRadYVn+ZAMc1ex9xSv2uC29CRSrUez0mVd4nhqcq2n1+QFnDl56lSk9ya9333j7rl+77XyJsSrwvvmsQ6N1+7PiapA4DrS4tqK0z+MTRH6cn23nzUZC0cbqLJG/Xynp8MyddoPKmwVLXOS4qfMtfs83OUrOPaavb3Ze+Hbwz0fLJb8zJzvQ2a/hiVnXRJjRXFenj6qoAcKcglp8ryc7Xl9w6lzLbiS5J0tk5VxXO07E2XvZDR35gFALj6PJ+q1TqZZxXIdLj6d3LrC7esTtmS4325SW8ODbvdeq5Fbv+FapGsc/kLuT8x98kjNTxMEY1j2DBvLGk9HyKund2np0oaFVdQooWj+hldOhpVtrRS7rQSrZ8Sa8+8gkjWAYCb2iU5X8zV1FUVOhc3WXOtfOOhYXbb1AQtOxxcXNmm6pVTNa+kUs0dI5XpzR2s3MYqWFikqStrQhbzu49t0CwTyzZWfKAL3xmvPLOe1QZ2yVlj8qGA/CQkj1xvrNSiCpccaev11rZ+9hrXQzTb/1I1cqhDI9N8nz3F6kXORMCUOdZjc+tPHtXRoj0FEzTrcZMjtpjwanI267VSv+VWfUW1Tv/FXs5y2cwr8eWT9X+OU/ojZtlHxivurNnuwsl6uNxpPl0kTM6YPlPLttfpzLfG+fLARzIVf9HKG3M171d9vO6favTEdJNvvm9vu1kv0f4NTJpdKqdV8BuKyVN35U3WsjfcGj7hx97PnH7bBfOZTX6bWaTqrgLgbgPOiaPV3nquWsvs9/W/TvZDcd7fbONAC3qAm55DKTMLFG/2Kvt/dVC+yEJvOLjJdUbkdGfp2DGdd4/dZqaC/OcHnaVzxpnnZnTubrHnBbhQs61z928v2I+6XXp/c+d95jV/uOdTe47x5YedW1LM+6Rs7jz5pT0vQMueKeZ9xnVu+W2IJwEAN4QLh5aaff2YzqJDvWNHL/95sLPIik/P9YxOl95Z640x980r7zx9yZ7p97f/6KxZP8P7Hj8KjEG2K76//z2XHuwMuYTz150/P/Rp56W/2Y/9/v3XnT+x1lt7vDN4kwAAX6E/lHf+0IoZWz/sDMwyfLnHmM5VNaH32l2x5rE3Os/8tz3Tdunkts4fWft86xYUozr/cryz2JvzLO08+Cd7ns2/3n1BscIfm+5LeaCz6Df/Yc+1+ePL2M2djcFp0pViFgDg6nO90Zlr7Ys37ejcOcPcPzSjc5U1/ezazp9kWO1pZt6MbZ2nA2JJf3Ii/zLF7/giRiTr9CtO+JcJzmP++3RnqfV5ZpR3tvhznyu9nsnFDj5mPnPK2s66v9jz+mpztESyDgDcrPz74RkzOnNDtIl9+e9vdBZZucjYlZ01XftUy4XOmufKO0/+p/3Q72+XOhs3WbFqSq9zP186d/hynhklnTVBeU3npU8799UE7KH92xWQG/2HiUnh8qn+unrtfxc6Dy61vieTswV/J8bp50I9Z75DK16NHdf5kz2ne7ULXnj/YGdjwFu17LG37bkPey7rj3thzrdd2enOyo0HO1t6fR9nOit/bG23iadBz/k+z5TOH82Y0/nzmqB8828XOhu3+rb1h7/q+T36v0Nrvd6f+cvOM3t9f+O7f3a05zFEBDnxwNtb7WOFHsckX5rfs++z7nTas/zM52xxBX9pAK7sUmfdWl+cKP3oy84vf2uf+zf7e87k42Y0yB5xqvXzvFw97L/NTNM9mUXaf3G8Vu9/QwtC9H0bm7FCC+7rfbVKzH2pyjL37o9auqupHeOUlR8ndRxU/e+DKlitsa4PuKXhBcryX6kKAEAvLdq/vUYejdf60oVKirFn+w2JU0bxGmUPlVyvVPfR00GERs3VummJigm+iufOVGVaXdHXntaVrgkCAFwrHjW/XS63HMqeNK7HlToJE+f6xrree9S+qidQQKwpyVG8iSmBYpJX6Jc/s9burfVAmWo7zPtt3aasO+yZtpjkAi2caLaqtk7NoS7Gm7JJz84M6ungzhwtnG1NHNRpqysEAMD15aKvpxq9uVuV312vw8cO6Jdrl6hw5Sa9+vZxvZQfL52t1FMRXvne/teBrxXJOmpv796+y25VFxeo6r9StW7Hwn4OSeWRc0eRNjbEKW9HST97uo5kHQCAzsYpe3PvNjGHyR1WP2blKXXadywwy4lVxmMLlRw8hMiQGCWnzTATbpNrBPaJY+LAs7vlMhnT6tL1ygjKaxSTqOyM0PmQpa1pix6zhoYas0T/uql3PtU/X3H7XxDPiXJtaPDIMXubXp6f1KtdMDYtSyn+02Ttdfr1Dpc0ao1+uXRcz2XNdmf9tEBx5ts91NRizxyIJOU9laWEXt9HvFIyE81EjU7/0TerJ7c8P1ir1RlB+eaQWKU87vse3RWhv0dXXI6e7fWZHYqfs0bLR5nJY2+o5nPfXEtEOXFU2lvb9YW3d54kJY7wzuhmPmfCiOAvDcCVxSg9z9pnuVW1v1y7vb3hjFdhPr3h4OY0yEKcdrk+aVGr/3a2XbEZ6/XWoU3KvrOP/1KXPXJ/clJNhyu1a1uxHs3L1ayMIu23nw6UkGE1eHtU3XDK/BugtVGHTJBMys/s95jTAICb0NnTqrOSqtlZ4RtqHeOUaY1f2nFQzVfppGX7Waeaa/dp14tb9IRVvJo5R1utbt8BANcPzynVHzZZx/ACTbYaCAPdkapMa97HR9UU0Gjoda5FzVeINfGJo+2pQC6drnd7h8HKvC9U/hSjhLHhG0fTvz86REOGQyMSxpl7k3P9J11pA8B1y+z7n90UNOyGdYJzsf/k1tGIThLGxQ78pFEk62j4MBOlLIHFMduU5R2648rch63hR9xKKXlBy8f0r1k+knUAAEbaZD0QXFRji0uZoWRz7/zM1fP8i8XjVuuJRlVX7FTZukV6OG+mJhXts58McL5ZjR+b+4lzlBlc0HAFnlOlWmRe052wUC9bxZwRFeEY10n7n1/LhwfN9xmnhdNTr3jy2eNsVq25T/nRBMWHOtd1Z6JSzF2Pi9gH6qJLzhM12v/iTm1dmauHcyfo4V/0VdjjUEZ6mBPn5ntMt+qxOk7L5S1k6Skl4wGFHjgyTinTrVzVKdef/L+2weXEg2tvjdX3xsab+xrt2latVv9QnQAG564cFU4097W7tcfEhrjFC5VBAT1uUoMsxJmrV3//kX5n3U68rZcKktReu0GzflbdY5zNQJ5PKvXoxHs1LW+RlpWUan+TS5duH6302ZneK0x7uWOCppujDM8b9QENEP4rVccrZ2JQRS4AAIHsK04T4uP6THzj4n0nLdsvRdDa3ZdzddqYe68enJmvR4u3qPLwablvjVfytBn2+NIAgOtFe/1+7bfGuT+3Uw8nj9U9dwfepmqr1bgsp6qsAf4D/dcZNZu7K8Wa3trlthoJOyo1r9f7+W6z+mgcHfbt0CdO/+6bvq2IqIcDAMC1MSVVyaFONjrGKHWKNeHSFxe8c+T41pULZS51+BZ2/L0vBkSyjobG2MU1ffjrl/KuNfRWb8zzFce4FF9QoiX9LI6xTrp6ez5IK9H6af1r14tkHQCAzeQpoQsjjCEmDlj35y6Y7MTPo9aKRXrwvql6uLBIG7fvU5PrkuL+ebyyp4Q4i/PnM2oyd1bBxJWjT4Dfb9OipZVyDZ+r5/csUVKYIpy2w0Uhc6V77i412Zntq27/66FNZz6zXj9ViXf65vSlvc3XG1FTyYQQn9Hc7gtxEbuJiyGXvbtI1eftZSyX3ap/Olf3p8/UvMJibX3toE6fv1Xx35+hrLS+4uk4Df8nezKEW75p/dsid4jilfi4sL+2rlzV3eb/tUWYE0epvTVhzjatnhgj1+ENejj9Xk16vFTVpyIudwLgFaOM/CXy7WHGq3C2VUwH3JwGWYgTwBGn5MXlejk/Xp6GDXrqzRAdv52v0aqflqr5tiytfuVt/bb5I713YK9e37ZGhYvnhC7EMYeI46eMN/f7dPR9Ozj7r1SdOF4pVNEBAPrhVkf/GoUd/VyuXzxO7Vq6StWfJ2rBcwf0nol7v60xcW/XJi1fXKB066ILAMB1ol1N79aZ+xjF35WohJC3eG/DsvtQo1pDXHgwbOit9tQADU9VdsFCLejjNjp8WyYA4Ovkn0Z6ex7wF7L05lCM90TkKZ2zzwPF/C/fScVmd+/BEf0uuK2TVKmK/47vcSTrKObbirPe+yO3wq71he9EZ0q81bTu1P6SRlmnGl3l+bo/+ORZ5gbviVk1bdAk7zzrhGmbju6p9A4X4WkotucH3vJVZa2jSs3zPrZOKEayjncGAKC/htxiT0htR1bqJ9tPati0NXr17Q/1u9836K2qvb6hFH8UqqdPn/62vXWJH60kq9jjXKNqm8LHK8d3U0PmSAsKRvcqMPpK2v/CcsgxgNEckqaE+owBt7SR3ccOsaNDL1OQqpFdBU0eOX9VpCcOnFFiwQt6q/4j/a7xuF6velnPrFyihYNumHTolkhHqwhebyA5cTTbW4fGK3trg9478IKWT0k0xxmV2jh/gu6fv1ut1kU6ACJz1zg9ZN2npCqZ8/i4iUWvEMfLoaSCNcobblLxX5Ro/1l7tq3t346qyQSvjMUrlD0mrudBSPsXvitqQohJz/Z2y1v77klvVXb7+9Xab40ZOWP8wCqsAQA3n2/d6q2+bm4N0cVuALfrpPk3TrdGeA41pNYPVGliYdz8tSpMiw8at/gLtV15sGIAwLXy+VHtO2buRy3R9qq9ej3krUJrrO51z5WrOnC8kCG3eBtEm/495OD6Pv/Hvu/BoVutq/UuJipz8RIV9nFLDxorHwDwNXX7cCVY982fegtLemvXBW8RyTiN9F/RPSJR6ebOc+pMmAKZFjnfNXfDR+t7/qFHIllH8UpMM3cdTp0JMdSEpfXjevNvnEYn+M6GfTtk4ap9M8t4TxgOjbXnfdu7zq23By3X4+Yreu0ujB2mW78Z2ToAAFvHpfBtYn/29e7pSPD3mtOm5mNWkWWmClfmKGl4z4KVdn93bYH62fbWyz9O0PIdzyprhEvVq4u0tSl0TyQxY3JC5kiFi8fbPS4YX2X7Xy8mz/MGpma5goc1DsHfi13MfXNCfMaA2+yk7vNhd4wPvcxi8zfrWqhFja+Zo43hBVqzOFXxQSfDL1zoq2Hygjx/tSd7sXr8se4DjlUCeP47/F/A9/07lPhdf1VNBDnxVWhvjRmRqryNFXrvxNt6fk68OX7aqZ/8oi6glygAAAYuyoU4xtBxWrI2x4RPp7Zu6zlElfuzRu99qC7UrXEwrVQ+JP/YnbU1arrYrqbjNd6Dh6zkngeBAAD0cmeqplsJ3ZvVqg831q/HqbpjJkkcnqXUfnQZ219trhZv8j9imK/BuYezp9UYpnEbAHDttR6r9HZrnjQ1tbsxt5cYpU/LMfce7X/3ZHcDr32yUwcDh9MN5DE5zD57OtBIJaWZnKajRs39HsceAPC1NmSMUueYff8nR9UcdAGbV8dpNTeY+1GpGuU/RxUzTg9YhaDNB9UUap1PGnXI5BZx01N9RT6WSNYxcS45zeqV+qQONYQ4i3W5RY0H3AF5U5LyQhau2rfnlvp6/xm7VC945801a8Qq/amg5XrcSjTdWkdZ+hfv4/VKj41kHe8MAIDlSKOaQ/buYfKUmn3mX4eyxvqHDnHrUysOaZiG9TqN45Hz36xeRIPcOU4PWb2w9NX2Fs7w8Vq3Y71Shrq0v6hAZc0Rlj58he1/vcVo9H2p5r5FVcfCDzXsF5M42jtaRFOD70L0qDl/Ri3W3z3e/C19c7pddun0++F7IbK2veZEmIqWs8d1yOryLvBYJUC1+Rwh0+KORtW8aZ4ZOkPJXQcfA8+Jr2p7qyNOKSvXKM9Meg6fDlM0DQBA/0S/EMdwpCzRMxkmeDZt1tba7irmOHMwZHm3LigQf16tVesO2g9CS5pYoDjV6YNjR81NSsgbr4RIu70DANw8hiQqa3GqHCaGbFixW87gjPayW7WbSlR1zqGUxTN6xZbY7/r6M21u+WPoJPL2kfIu8VGLzgQtEBufaN7XhMNjH/QoTFX7SZWtKFVLV1exAICvlP/EolI1vc9x8k2uk5zu7a2zRwNvzAPKyTfrdezT1k01Pff5hvvASj15xH7Qg0PJ0wtMHHFr11Nb1BRiGI321mptfM0qEYqCPmIWAOBa8e/7ndpqcoIe5xut3OTpLd5eoDPyJgcUhsYoPXeueexU2XP75Ao8mdph5j21U+6hmXp8tv8kqiWSdcxa6T/29XS9o1T7PwsMFh4zr1i7TN6U8VgObXIA8HVi8pSyX4TOU1ZZhRGjVii766LnOH3P6h1N9aoLusogbF4zJEk/XttH21t7i/Yf6SOnGZ6lZ/91jbcYp2pRvspORZCsDLL9L9piMwq0YIT5zl4s1sba3gUvbQ37VO/P/+6YrLnW+bRjJXryjRa1Bw+DfLlNzeWlqh3osIsm/0u0ctemOn0QWJxyuV3NO1aq7I/+v3lozh0l2vNx0BfpbdPcYo4uHMr+6YyAY5VunjdLtTX4M5vvv7p4pTnGkZKW5qj7GvuB58TRa291y3nCLU/w9/2lR/+vdT/K30sUAACRuSqFON5kf+lapZgkvWlzSdcBQuxDBcqzDj5eW6RJM1dp64s7tXXlTD04fbP0+Fpl+xYL7a5M5Y2SajdvUa2SlJUy2PErAQBfJ80vLtXDebkhb1Uf2wuFETtlm14uSJRO7dS8H6Rp1sot2mViUNm6fE36wVQ9edithIJyPTslRHp1V6r3hKvnjSJNfdyst624R5GplOi7orVjn5ZNLzKxrVRPbq6Rd4m7srTauqqjaYNmTc3Xk9vs98xcpKYfrNWSsd4XAAB8xTzN1dptNUxOnKzxXcNzhOHvrVN12nfM37hoDdG7SQsSHHIdLta0iTP1xOad3pgxL/NeTdtxi9assHrSCSFhobaXpMpx1sQRs+yk+cUqMzHKWvfRmWl6MHeDjl6ylx20PmIWAODa6dr3V+rRzAmat65Uuzav0qyJJjep/cKbm6yf2LMbAseYpXraymkatpjcwo4zm4s0aVK+qs7GK29HidKDhpyIZB05krTk6YVKUKO2Zk+wc6ctJkY9oHkVLsXn9942AMB17pH1yrtY0p2nmP36EybXmPZ0ozy3jdczm3MU31WYEqv0n8z1FkZULeqOA97lS6XHw+Q1vdreCn15jdUO9uAPcrXVO5RReI47c/TsDut9XaqaPyeiYpxBtf9Fm4mnhTs2mTjrUnXxVN2fmdv13Xvzvscb1Z3mxSj9qXLljfCo6Re5erDr72SdP8s12z5Bj77okgY87GKSpv/MKk5q1EYT073HG1aOOtW83vupWr14nL1cKKla/rPRqsmf0JWj+ts0q846vN/j8hQrL+4t76kf64unp+pB+xyg/xhnY4NHMRM36enZQef2BpoTR629tU11heZvY77vR63vxv8ZJxWp2vwS85aHLjQCAKC/rlIhjjE8ywTqJFndzW3Ybo+lODRJy8tf1vIpSXL8V532l/9adX9J1MKXj+r5aSO9q4UXp/E/8vWoo4lzlOkfDxIAcFPwnG9R6yehb18EX7nQi0NJi/fq7VfWK++hOF36cJ/2lO9WVVO7Rj60UM/sPa7XF5vYZC/dg2Oclv/remWPusV7tcqeIy0mngUu6VDy0je0bnaSbjnfaGJbtVqHxPhea0icsja9oWfyxyvuS6dqX9utQ3/4tjKfOqDXH3tA/+BdHwDw1fLodMNBb69n6Q+lqj+nFn29dUrOtxvVdZ2fyXUKq47qpccylXSLW/Vv7vbGjGEZJXr90LPK6CPdiZv2gt7Zu8nEKLPQ/1OjKhOj9hw8qUv/K1XLnzugd35qdVQeDX3ELADANeXb95s8I+lWuY5Uas+bJ6XETC3fdTRMbmLnNLtWKGPEJTV648ynGnbvEr1Uc0DLx4Tam0eyjllrzBK9/hur/S7ezp0OquW2B1S467jeeixM3gQAuH59c6SytplcJXekXMdMLCjfp8a/xik9f5MvV7GGdArgGLNCL79sYoeJE+53TRx47bgu/HOBXjr0grLC5jVBbW9OX16z/988Ss5fr1fnXDmnsd731ZftYpyl+do14GKcQbT/XQ3DM/XLQwf0vMkRR3/LzhHLj+pc/HiT563Q+MDxoqxzZ28e9+aTybddsJfdrRqXNHq2+f5qXlBGBPVDcdO26fVNc5X+Tx45reMNO0d9q2qFHrhC8vsP95q/x961Gq+TJnc03+MRl25N6utYxTYyS8+b44i58WdUY+W2b36gS7ePV96mvfq/N2UqLkRvRAPKiaPW3hqvySXmuzG//xbruzHvaf1eR09Z0+dxEgAA/fWNTsOevu61HS7SpJKTyt71gVbfRxAEAAAA8DVxqlT3zK+Uo6BCv10crcIaAAAAAACix7l9rOZVpGpdzQvKulKPsQF85+8alffKR1o+xp4JAMBN7Or1iBN1btX9plEamqPM7gEkAQAAAOC652pp9t6n38kQuwAAAAAAAABwI/v6FOJ8UqOqj6W4/MlKCtF1HQAAAABcly63qL6qxUykKjmpP4NfAQAAAAAAAAC+rr4ehTiX3ar+VbncQzP1+OxEeyYAAAAAXB/aaku154Rbnsv2DD+PS7Ubi7XrnBT3yFxNHkDX3gAAAAAAAACAr5/ruhCnrbZYT2zeomVTZ2pjg5TysyVKv81+EgAAAACuFx6XdhVO1f0TZ+rRdaXa9eJObV2Zq0npM/XkYZccaWu0ffE4McguAAAAAAAAANzYru8ecS63q/7NfWrWOOU9d0DPT4uznwAAAACA60dsxhq9tDZH6cOlliOV2lO+W/s//ELDkjK13OQy72zLUfxQe2EAAAAAAAAAwA3rG52GPQ0AAAAAAAAAAAAAAAAgQtd3jzgAAAAAAAAAAAAAAADA1wSFOAAAAAAAAAAAAAAAAEAUUIgDAAAAAAAAAAAAAAAARAGFOAAAAAAAAAAAAAAAAEAUUIgDAAAAAAAAAAAAAAAARAGFOAAAAAAAAAAAAAAAAEAUUIgDAAAAAAAAAAAAAAAARAGFOAAAAAAAAAAAAAAAAEAUUIgDAAAAAAAAAAAAAAAARAGFOAAAAAAAAAAAAAAAAEAUUIgDAAAAAAAAAAAAAAAARAGFOAAAAAAAAAAAAAAAAEAUUIgDAAAAAAAAAAAAAAAARAGFOAAAAAAAAAAAAAAAAEAUUIgDAAAAAAAAAAAAAAAARAGFOAAAAAAAAAAAAAAAAEAUfKPti/Od9jQAAAAAAAAAAAAAAACACH2j07CnAQAAAAAAAAAAAAAAAESIoakAAAAAAAAAAAAAAACAKKAQBwAAAAAAAAAAAAAAAIgCCnEAAAAAAAAAAAAAAACAKKAQBwAAAAAAAAAAAAAAAIgCCnEAAAAAAAAAAAAAAACAKKAQBwAAAAAAAAAAAAAAAIgCCnEAAAAAAAAAAAAAAACAKKAQBwAAAAAAAAAAAAAAAIgCCnEAAAAAAAAAAAAAAACAKKAQBwAAAAAAAAAAAAAAAIgCCnEAAAAAAAAAAAAAAACAKKAQBwAAAAAAAAAAAAAAAIgCCnEAAAAAAAAAAAAAAACAKKAQBwAAAAAAAAAAAAAAAIgCCnEAAAAAAAAAAAAAAACAKKAQBwAAAAAAAAAAAAAAAIgCCnEAAAAAAAAAAAAAAACAKKAQBwAAAAAAAAAAAAAAAIgCCnEAABiktsNFuufusSo7Zc8AAOB6dL5ay0y8ume7055hCzcfAAAAwNfX9Xqcf71u1+U2NVcUa1662TazfQ+WB21f20lVrcvXg9a2352mPR/b8/E14FSZ9XcrqlabPQcAgKstwkIcO2j1uqVpVmGxqk6EDmWej3fr4VRzALO6hmAHAOgXf5FL8O3+zFw9sb1azvP2ggAARFlr+VRf3DH5S7s9DwCAqDpvndRbpFn2ST9f29pONYcJPO2tNSpbOdM+CXivJuWu0p4Gtzz286FEso7aW1S7fVXXdnnzr/JGuTvs5/uhvXaV7zMN5KTXJ7s1zbudpQp5etZ/8jbMbdlhWhwBAJHwyLmjQI9ur5HrjkzlFeQoaYj9lKXDqbKCRSo74lL8lLlaMHu0/USbalen6Z7UXO35uM/ICgA3Jv/xeeoWNfe5G3Rrf751zJ6v/Z/bs4Ab3CB7xIlR/F2JSvDfbv9SrhMmuS+crHkVLX0n9AAADIDj9oB4Y24x7S2qr9igeZkzVXaKiAMAiDLPSVVXuH3Tx46qjsLPq6r9sxrv1aV76F0OwE3EfXiVHsxcpLJ3/yjH2BwtKFioBY+kathf3GoLUfDiPrJKP8wtVtWHl5Q02yw7+wHder5Oux6fqoe3O0O2w0Wyjs7V6InpuXqy4gNdSrK2K0ep33Kr/sUiTcsrlbM/xTgep3bvqLMf9Febql/cKTv6hvZfbjWbu+D80H/79rd8iwEAMCBnD2pLhUuauEm/eWWTli9eo+fnJ9lPSq7Dm1V1VkrfeFCvblyhwrUvaMEo+0kAuJndPllz5zikjn3adSj8kbznRKXKPjbH8XOWKOsOeyZwgxtkIU6W/qVqr17332o+1Ht71yhlqEfO7Tt1NKix2jFqoV5v/Ejvbc1UrD0PAID+SF68ozvemNs773+ow8/lKF4uVS0tUf1Fe0EAAKLA8/t6VXeYjGdalnnUqEMNfZ4WxCC5jhSr7IhTl+zHAHCjaz9WrFkldRo2bb1erzmu17etUeHiJSpcuUkv7d2kjNvtBf3OV2vrujq1j5irl8zyz681y659Vm+9XaG8EWY/WlGsncEXKESyjlUMs7nY5Ffxynv5uN55ztquNfrlgeN6NT9eOlupp8rDFPAEcB3Ypqpz9oN+8jSVa2uT/SCcy1963zs4P/Tf1k2kxREAMHBtf2hUq7lPSRmn2MCecLza1HqixdynKuX7wXEmVhlbG/S7xr1aMMphzwOAm4lDybkrZJUuOiv2yRkyUXCr+sV95jg+Sctzx5k1gJvDIAtxeotJyNGS+XFmqlGuP/vmAQAQdUMciktbo1+uTJQ6alTdRBfkAIBoaVf9QauBYLySfzpe2WaOs6JGrZd9zwIAMCgdjdq1oUaelPXavi5LCTH2/LA8aq7YrCbFqfDpFUoOXH5okpY/vcQ841bV/g8ChlKMZB2z1glfMUzc4k1a3mMlh5KWblLhcMld8YYa+xqz8Vy1yn7hVMojc5Vsz7qijpPauXmfvm3WsUpgw/o/vru42Ct+aQAA9N8Vcr3/IRcEgPDumKFCq1ecc5WqrO+dKPh7w4nLX0lvOLipRL0Qx+IYaiXDDt3Sq3IYAIDoik9K9VZQN31GTwUAgCg5X6ejx8x9RqZSho9TurcxoVqN1iWSAAAMkvtIufZ3xKlwcZbi+tN2drlFjYc90vAspd5lzwt0V6qmDzf3tc3dV6BGso7R8uFBeRSn6WmJ9pwAQxKVOtO6+K5GzaEvdTXv61b1LzaracQSLckd2c+rXT1ylm9R1cVMPb5ggv7BnhtK259d3nvH33MdLQAAAHB9cCg529crTv2v9gVdyObvDSdV8+ck9TM/AG4M0S/EuexSc02LSfRzlJpgz/M7X61ld4/VPdud9oye2k5U6snCmXrQWubuezVp/hZVt7ZLp0rN4/Drqb1FtdtX6eHMe33Lpc/UE+Un1Xa5TdVF1msVqTpomCxLz/cbq/szc/XE9kbRpwIAfI3Exmm0PdmDiQHOw6V6IneC7u+xn6+WM0RM6HK5Xa21geuladbK3Wo267QdLvK+zrLDfUQK877NFcWaFxiTttfICmchedy+7cwLjEf5erLCimP2MgCAa8rdcFDWyBjZUx5QjNWYMCnH/OvW7rdPKsxpx64YUXbKPBhILAjKkbw5yvzAGFSq2rBBxAh+r9QJmreu0hu3ouKiS03m9R8NiKcPzlylstoWtfeKU06VWcsUVXtzqh6fxb9dQSHUud33mvMqfI+r5vseWzfvdwkANxyz324w+/xwBTKhfP6pmjvM/UNJCm5q8xmpxBTr/rTc/uGgIllHLrU0W5EuXUl3+uYEi09I9d6f/jz0hRDuI1u0tSFOCzb8WAn9vEDPc2qHfl7hVsralUq/zZ4JAIi6AeUakbZXnXeqOvBcjfU+hcWqOtVHTtPFY/KDmb73erxa7gjbxdrPNqpq3SLNSvfnFvY2NLh65TD+PG5SSaP3cVPJBHsd65yS//zSBG30Dp3YqI2Z9mvaOY/Fl9OEPgdltTO6GkKdh6qTK0Ry2fNvZJ0jM9t9YpBnrAaU0wV9Hvvcm/+77Os3EHFO7Bf0Xldax/937vFbu1L+HErw+UX797K/NVz2DyCkETO0cLZDOluu6hPd/3+6e8Mp0OTg4XeBG1xUC3E851tUvXGltv4xUQueXqqkfpe1+Q6wJhWaIOm8pPgpc7WgIEfJOq6tufkqe7+PwHmuWsvMgcuTFXU6960HlF2wUAsmjpRr7yJNXVkR8mAm8P3qXXHKtNZ5JFOjv+VWvTmIoE8FAPj68Lha1GzuE24P6Jr8XJ02zp6geSWVarwYp/RHzH6+YK7Sv/OFGis2aN6PcrXrVIgAYV29uXKCHi6uVP35W5U621pvsuJdv9ajPyrSr//9CgnYJad25U3WsjfcGj7hx95Yln7bBRNbik0yZxLYrgZuP5PQr5zq3c7mjpG+eOSNf1YCaMWxGopDAeCaM/vgCqc01OzDk+2EZtRkLRxuYs4b9fKen+zLgGOB3yU5X8zV1FUVOhc3WXNNTMh+aJguvFupJ3MnaNnhEFmKHe8e3V4n93fGK8+sk/dQnFxHSk3cytWej6+0sVfiVFn6TC0zr3/mW+N8uZbJm+Iv1qmqOFfzfuUMW5h05nCR97O0/+8Z5rPkKCWmXU5ru2Zv8Z0YtsUmWbFvoTJG+R4nTfE9tm6jY33zAOCG4vlUrdbJPKtApsPV44RT2JNbX7hldcqWHG/1RhOKQ8Nut55rkfuib05E61z+Qu5PzH3ySA0PU0TjGDZM1lqt50O01Z3dp6dKGhVXUKKFo/rZKNjRqLKllXKnlWj9lCvv+N3uk+bfVMV/x/cYANAfA801Imuvch/boFkmlm2s+EAX/PnJlHiTItWo7H1fj2bheeR6Y6UWVbjkSFuvt7b1s9e4HjxqfSVfk2YWqezIp9LYHF9uMXucCXdmGx6fqR8W1/Qo8HF8N9W7THaaL17GpdnrFKRq5FCHRqb5PnuK1YuciYApc3y5yoK0fvT61tGiPQUTNOvxUtW2mPDqbWfMUar3PFS1Tv/FXs5y2cwrsc9Z/dluy3xkvOLOmu0unKyHy8PnXn2LPKfTn2r0xPRcbXnf3nazXqL9G5g0u1TOgLyuhwhyYs8nuzXPe57PxHn775addEmN1jrTV6k2uMjpVKketP7O7/5Rt3zft7z1W/P9pvO1q7+5cNf5xZNdr5NtcmrrN9s40IIe4KbnUMrMAsWbvcr+Xx20z7XTGw5ucp0ROd1ZOnZM592hbvO2dTb+6Ut7uSD/ebCzyFrmudP2DJ9L76ztvM/Mv++xNzrP/Lc903bp5LbOH/lfO2i9zr992rl7hvXcjM4tjRfsmba//UfnwcfG2du1tPPgf9rzLa43OnOt+T872nnhb/Y826WWM51BrwQA+ApdOLTUuy8vOhRi72zt65da+/kfd+77k39ed2z4ec1/2DO7XXKWd/4kxTyfsraz7i/2TFvLnhne9/rR1g96xYf/+M1Sb6wKtS3+bfzRjDmdP9lzuvNSj3W/7Dyz117XxJ1L9lyfC501z5V3ngyMUZa/Xeps3GTFsCmdu1vseQCAa+MP5Z0/NPvs+7Z+aPbg3Vr2TPHu61fV9NyT+0UcC/w50owZnbnzyjtPB738l//+RmeRFbfGruysCYxbAfGu9GTQSn8yr2mtM6O8syVwO8LkY2Hnm7yvcuPBzpbgj/y3M52VP7be28TSHs/ZeWLKuM77Zmzr7LFZXbFtTGfu3jP2zG6nn7Neb0xn6Uf2DAC4UfnbpDbt6Nxp7ccfmtG5ypp+dm3nTzLsdiyzDz0d0D7WZ05k8y9T/I5v5xvJOl3xYOnB8G1j/mXWHu8Zz/7bxADr8wTGniu9nr/trkdu5m9zNN+BPSeQP1503x7o/NEjKztLD53ulcMBwE3Pvx8eaK4RQXvVl84dvvM4M0o6a/xtdH6XPu3cVxOwVw+Rf/yHiUnhzhH1V9d5phCf1Yo5Nevtdr89n9ozu/UdNy/Y7Y9B55lsvtgU/Jz5Dr3np8aFyA/Ns+8f7Aw8pdXVJvnchz2X7TrPNSPCNsKB5nT+zzPFm9v2alv924XOxq2+bf3hr3p+j/7vcMA58V+OdxZ722rNdxj02/GfH7wv+LjD+evOnx/6tNf32vnvv+78ifUewcv7jy96HJN8aX7Pvs+602nP8jOfs8UV/KUBuLJLnXVrfXGi9KMvO7/87Wbv//sfmv19mMoB4IY2yB5xYhR/V6IS/LcRMdKpSi2bPkGPVjhDdmvXW4v2b6+RR+O1viRH8UPt2baY5BX65c+sUeV6a6//tXadleIWb9LqlKCrZobEKWvTNmUHvZ7XRd9VQXEJ8YoNqqqOsebZ0wCA69Rlj9rONmpPUa63a9j4/JXKusP3VGBsWJfR++rPmFEL9fRjJq501KjyWMAVP+11+vUOlzR8iZ5ZmdorPsTN3KZnra4V++CKy9Gz85MU02Ndh+LnrNFy60r/Y2+o5nPfXJ9YZTy2UMnBXTIOiVFy2gwz4dbpVvrEAYBrx6Pmt8vN3teh7EnjelypkzBxrm+s671H++xBc+CxwHY2TtmbFyopoIM3i+POHK224pbqtC8gbvnjXdLPtml5ctBKd2RpSb6JgWer1fiZPS8iScp7KksJQS+vIfFKyUw0EzU6/UffrB46ErW8dIV6bJaJbSm5K7zDo7SeaKHHNwA3L7tNSm/uVuV31+vwsQP65dolKly5Sa++fVwv5ceb/Xelnorwyvf2vw58rUjWUXt79/ZZPYsWF6jqv1K1bsfCfg5J5ZFzR5E2NsQpb0dJ/4ekui1RCQ/ZvRU8kqnku4bpwid1qirJ16TZW9REgAGA3gaYawy8vcrEgWd3y2Xyh9Wl65Vht9F1iUlUdkboczyWtqYteswaGmrMEv3rpt7niPon4DxTae/Pap0vyihe4z1f5Hql+so9nQ6S50S5NjR45Ji9TS/3yg/NN5yWpa5TWv42yVFr9Mul43oua53n+mmB4sy3e6ipxZ45EBHmdOZv6vnBWq0OblsdEquUx33fo7si9Pc40Jy49UCZajtMDr51W1f7rl9McoEWTjTfZ22dmgM7qBk1V+umJfb6XnVnqjKtoT9rT5tv7Era9YW3d54kJY7wzuhmPqf3fCeAAYpRep61z3Kran+5dnt7wxmvwnx6w8HNaZCFOFn6l6q9et1/O9Cg372/1wTAYWrenq9lb1451Olci5qtYDc7K2zSHZ842p7qqcVZY/5NVN5E64AhhKHfU8JYezrQiNHKsA4UXtmsXSfMAUW/CoYAAF+l7jGazS35Xm83s7tOfKmER17Qy0v9B3IeOf/tCrHBiEuboRRz72xydp8IbDmtWnOXkDc+TMOxQ4n/PM6eDi0l44EwxZxxSplureuU608hMlSPW60nGlVdsVNl1tjGeTM1qWif/SQA4JrxnFL9YbOfHl6gyfZQSV3uSFWmNe/jo2oKVUhjizgWpE3WA2HGyo5LmaFkc+/8zGWf9PTHu1RNfyjeOydY/F2p5t8oFXRedMl5okb7X9yprStz9XDuBD38iz4agYc/oNHBDZmWO+K9n0OfuXXBOwMAbmJDc/TspqBhN6wTnIv9J7eORnSSMC524CeNIllHw4fJt1ZgQc02ZXmH7rgy92Fr+BG3Ukpe0PIx/W+WT8rfq9e3rVHhYl/x0ktVB/TeiQN6ZppVwLRPq7bViYEkACDIgHKNAP1trzrfrMaPzf3EOcoMlQf0wXOqVIvMa7oTFuplq5gzoiIc4+xp1V3hPJMc45RpXWTXcVDN3qrYq6flw4Pm+4zTwumpVzz57HE2e9skU340QfGh2iTvTPS2Y7o/GsQFDQPN6cxWZ6SHOXFuvsd0qx6r47RcIYaZGlhO7NLperf3uCjzvlDvFqOEseELhtrPOtVcu0+7XtyiJ/LM58qco63WMJv9EqvvjbXy6Rrt2latVv9QnQAG564cFU4097W7tcfEhrjFC5XR36J74AYzyEKcEGISlWVXFjt3HJTzSkUu/3VGzeYuIT7uigckPbXJfda6H624fib5XW4brxVb5yrBBPw9hVN1/0RrDO5GucjUAeC65bg9oAe2+zKV99h6vfr2B3q9R+81/isZrhAbbh8p72nLC5d0yTvDRJU/+4pHR9/Ruxed/oqPC9+n2t990xfl3G2Bwcaj1opFevC+qXq4sEgbt+9Tk+uS4v55vLKnhL9SCABwdbTX79d+a5z7czv1cLJd/Nl1m6qtVuOyySGqrAH+wxh4LLCZfCjsmibOedc8d8E+ueiPd43amBm8nb7b/dEo6LzsVv3Tubo/fabmFRZr62sHdfr8rYr//gxlpfURL+OHaZg92cOQv/Pdn7ukL31TAHDzmpKq5FAnGx1jlDrFmnDpC7tq0fGtKxfKXOrwLez4e1+siWQdDY2xi2v68NcvfcWUQ2/1xiZfQY1L8QUlWtLPghrrpKu354O0Eq2fFnn+1cURr4x1m1RockBPbTW94gBAsAHlGpYBtlf9+YyazJ1VMDGg0s7fb9OipZVyDZ+r5/csUVKYIpy2w0Uhc5577i412ZnN7nHuSueZ4uKtQhCP2i9FUO3ab20685n1+qlKvNM3py/tbb7eiHpchBh4u69I+71LBDCxNOSydxep+ry9jCXSnE7jNPyf7MkQbvmm9W+L3CGKVwaWE7fLbRXOdFRqXq8c3HebFapg6FydNubeqwdn5uvR4i2qPHxa7lvjlTxthlIGcL4wYc42rZ4YI9fhDXo4/V5NerxU1ac4kAAGJ0YZ+Uvk28OMV+Hs8BdMAze66BfiWPyNBh0unennpY7DTAIfGYdi+pfn9xCbskKvv39cr5bMVcotLardXqRZP5ipjT26YAQAXC+SF+/o7oFt1yYtz89S0vBwAcAhR6grSIL9/S29kvOuRuirJWC72o6s1E+2n9SwaWv06tsf6ne/b9Bb5vN5u6b/Ueje4AAAV0u7mt6tM/dBw+/2uMV7G5bdhxrVOpheNfsTo0IZcos94ZekDGtojj5uqd+NNK555PxVkZ44cEaJBS/orfqP9LvG4yYOv6xnVi7RwvTQPfEAAK7gn0b6egezC1l6cyjGeyLylM7Z54Fi/pfvpGKzO3yb1QW3dZIqVfHf8T2OZB3FfFtx1nt/5FbYtb7wnehMibea1p3aX9JoIobkKs/X/cEnzzI3eE/MqmmDJnnnWSdM23R0T6V3uAhPQ7E9P/CWryprHVVqnvdx0AnFcIYkKtm68laN+rSPnusAAGEE5BqRtlfd6hhg7hE/WklWsce5RtU2hY9Xju+mhsx1FhSM7lVg1N9tcAx0WyPSz/ZJW9KUUJ8x4JY2svvYIXZ06GUKUjWyq6Dpaud0Dt0ScW5r3/sNT1V2yM/TfRvt/2N7nNq1dJWqP0/UgucO6L3mj/TbGru9eHGBBvSxhsYre2uD3jvwgpZPSTTHJpXaOH+C7p+/W63WRToAInPXOD1k3aekKpnecHATuzqFOPpSX4a4yDMkc4BnHTw0/XvIgSh9/o99H+TvvMG6VWdCdH/n8z/WsUZ4Q2KVNG2Fnq/5UO9VrVHKUJeqVxep6jP7eQDA14xDt3ovvWmWq6/G1/NnfOMEx8aoqwzUTgBbz4RP/P/nb31fLeP57/DPu10nzb8OJX7XnzW2qfmY1WidqcKVOb2Kitr9l78CAK6Nz49q3zFzP2qJtvsLP3vdKrTGOsl3rlzVYcYLGVgsCNBxKXzq8mdfL6KOBP+VrP54d6seyF7iG54jzC17zICuSQ3QosbXTLQcXqA1i1MVH9RwcuFCP4YhBgD0dvtwJVj3zZ/6cpJe2nXBW3gyTiP9V3SPSFS6ufOcOhOmQKZFznfN3fDR+p5/6JFI1lG8EtPMXYczbFtb68f15t84jU7wRaRvhyxctW9mGW+WMzTWnvdt7zq3BvZ22uvmK3rtLowdplu9V91f2Zd/s/6N063f8j4EAPgNKNeIoL3qW7d6ez5obg0xvFVf/nGClu94VlkjfOdltobp0ixmTE7IXKdw8Xi7xwWjn9vgy8lMrIj0uvB+6Wf7pM3fi13MfXNCfMaA2+wkO0Yad4wPvcxi8zfrWmgwOd0Fef5qT/Zi9fhj3QccqwQYWE5svivrNS4mKjPk5+m+pd/hW0OtH6jyrPkrzl+rwjRz3NCjqOcLtUWQqsaMSFXexgq9d+JtPT8n3hw/7dRPfsFwlwCAwbk6hTgdp9XcYO6HJmpkmLFHu9gNAzpYH2bsa4+ajofqVj1W8UnWodVJHQpXLX22UYeso8h+iLkrR6tXWN0SunTyE7qeA4Cvpxglp4039y2qOhZ+2JC2D+u8V2amp43rSmBj7xztS9gPNYZuqL7sUtMhK1kMr7rhZOhkv6NRNW+aZ4bOULK31d3i1qdWrNQwDetKkP08cv6b1SsDAOBaaT1W6e3WPGlqandjbi8xSp+WY+492v9u6H3+wGJBgCONag55xZ3Jh2r2mX8dyvKOjW+xxsm3uoRvVF3zVWoaPH9GLdb2hBpmysTE0++HL1wFAPRhyBilznFInxxVs3fI9SD+NrVRqRrlP0cVM04PWIWgzQfVFGqdTxp16JwUNz3VV+RjiWSdrnzqpA41hDiLdbnl/8/e/wBHVef5/v9riq32ym4ot2DG3XQ5RfPzW2ScIoBOUCttVsOfSoCBgBIIBjMIGSSAyh9HCLKERREcSUQRdQI6mWQEogOBKyQlJM5gUoNkZ4S2RpO7Dk2t0+yykhoquZtZ+g7Vv8/pPg2dTickTaMIz0dVc7pPn9N9utOc93l/Pu/zOWrcY/b/yTlyBy+1kar8mIWr9u2lxaHRf0Yv1ivBeXPMGoOV+UzUcl1uJZpqraMc/XPw8Vplhr+H3vg9arQKiwa6lcqgbQDQVb9yjTjaq24fowesUVjeqVFDjEsV9Sp5rNZsXRs8Sbp6SaHK4s1vbndrqlXQ0ds2mFhRf8jkZBfj2NWSpJH3uM209/bJsKSUkSY+Sk0ml0xodndFOV2Lao/2UNFy6rD2WQ2rkccqEfqXEw9TaoY5LuqsVbN1iao+aPO2BF9/6JBQgW8Xp06osccT9/vA4VT68pXKN3f9+0/0UDQNAEDfJL4Qp6NF1cXLVW0CfOriicEDiF4l3aeZBU4TaHdr04Za+aKGePftWa7VB+wHUYZPmq90M/VsKdaOT6IOUTqOqWxZqVpiXFe0o/WYWmMcjPn/0m7+dcj5nW5HmACAb4ikzEc0b6iJH68Va31d94Sy45PtWvFCo8nW5mtOZsT+fvg0PWoFlU9K9cybHnVExqMLHWreulxlf+x6FlA0/zul2hT9nhd8qrkYF2cq7eJLOPU962xTNag+qhK1t9gHALgKwh2Lcmtqr9fJN9lCWqZye2lk7l8siGDyobIXYudDK6zGyhHLlBuxonP8I8oy29HwbLGqW2M01545ph1bahX3KQa3DlOK9Tmb6vVhZENmH2NifzldVkO1ye3+rbfGYAC4HjiUNrVQLnm0aVmpuvQ3mnhR9+xGEy8cysqfGFEYmqTMvDnmsUdlL+2W1+pUC+s08555Vb6B2XpyRrgT1RLPOqF8Kj/Z7I+3lqr688g8xW/mFWvbabNtT8zU8HgvRXFFPKopP6a26MtD+r2q21CiKhOvXI/mxI6zAHAj61euEUd71YBUPbLKbSJcvdYt2y5PdHpi9RkdsE576EFyjl78eeiKBVULClR2vOv79smAFOUs7GUbrBgbjBUOpS+cdtXj2OCswl7bJ9uO7FZD+NKLt03UnCzz/R8q0epdLV3bJC0X2tRcXqq6vlyqMdIV5nSerSU99LttNBHZodwfT4s4Vrmkfzlx+LjIp23PbFRTjM/Y0Vqj9b+89PsZ7Eoxa5mPdejDrr/pXvoEY/PJc9Qnf/T3fd6v/2tNR4RHiQIAID7fChj2/X4wCXvwms3WMLGha04HXfhS3ta2YDWqa8qL2rJmrJyRBzRnavS4dX3oggr97omIEp1Oj7bNK9SOVrPmLS5ljh8rl8On5sP18py/T88tTtbqZyul6PUM34EVeniNNUScQ4NHjVV2mlP+z+tV+4FPyYWrNPHTdSprcmtN7SvKsUfnadu/RBNKjmnw8Ps01hq6zqztPXRQDafMq2Ss1bubc7puNwDgaxPaZzcqveSwXp7Sx/TndK2eyi8OdpA6bk1V5rgxcg68tK/XLWP1XNWLyrLOlIkUaz2/Vw2H6uW7db6entyi9Zu7b0t4G/OfWStv6Tp5vmPi0XgTX86F1vWa10sav0G/3JDdJb74j5dq9qOV8lrx9IGJyrxdoW38r5Fas8yl9Sb29etzAwDi4j+6Uf9UtFt+s6/+9aZss1funWfL3Zpb4Vfqqvf01oxQ02O8seBijvTwWq354nmt9zhD+dAtl49bl+KIee2h9vtZuc2Rw2q08rKMDXr/pexLjYc95WM9zPeZz/SQ+Uz+gYOVauJU2i1nQznazTO15kFvMCbmv/mxlo6yVwjnielr9f4rOTEaLcN55By99ftlXU/a+GK35k61GnSTlDopR2kDvbpp8iuaN8J+HgCuM932sQNP2/HCoeGF5fr5wtRL7W1BfnleK9CC8hb5w21nalHNgUa1dbrM/niX2R9Hd6jFs44VX17VjxZvV2vnpTylZf9eNZ3xy2VixdsmVnRfK4ZwfOkxLsTSS6wIP2dd6urucXLfbqLe542q/6jFfJ4e2iIB4EYWZ64RX3tVRMyx1rvHrfQRJlc6fUz7DnjUEZlr9JB/XHrfnmNU76K2IbjtSTpvtqH2A4+JFT3F2Mu1P7apZsk4rW/q2s8U5tky2uSHMZ7r0s6YIneGdXmoDjumjum6vFUkm29inDWKXThm36KIOOfWc4deUVbfgulF/c/pLn2epSUu1ZTsVrvd72b9LXv7HuPOiY2L2xnRz3dTp0+epkY1W/12hRX6rXm/IKuoZ/l0rT9ilrbbb4ecC23boBlrlfO51ScYfRwRK1e155nvOy3drdTkmyJ+K/H+BgGExPo/B9x4rnBEHHPA9mmLWsO3Vr+c92Rr6bbDerekH4nvwFQVVR3U609kK/Umnxre2a4dB1o0JKtEb+8zB4HD7OVicE56Uf975wblP+A0B2q1qir/her/nKL52w7q7YX36e/s5SIl/WCmlk4aZYLzh6ouN+9VflDef3Br3oadep8iHAD45kvO1k/37dHLJq6MvNmrul9a+/q9OnHTGOWuekPvH4pRhGMJrrdTzxWYGHbeE1yv8siXGl7wht6rWqT7LtczOyxHL//qDc1xnVStFV/e+VDtt45Vvokv/ztGkukYtUxvvLFMWSap832wWzt+eVhnv1+o1/eZRLyX2AcASCS/ThzZa/6VMh9wqy9jY6aOLwye+ed5L8blDPsZCy76m2HK2Wxyorxh8h6y4tZuNf7FqcyCDaGcKEbcsuLIu7VvmNzGanisv5TbDBil3JIKk9tEFOHEwTlls97eMEeZ3/HLc6DyYo72btWyy8fE/rptpl58Y5HSbz0ffK/KI+1Kutl+DgCuQ84pr+j9nWuVmzpIXmsf+84xKcVqU7Pas2IVujiUunCn3ttm8oeh7WoMtp19piF3L9LrtXt66CiKZx0rvizS2yaWLZ3kUvtHJk8xuVTLLfepyGrv62sRzlXh0sQSE5duk7xW/mTiXvXH583nmaM1b/azLRIAbiT9zDXia6+yY86ba4N9Ne0eq6/G7Kf/1a+0grV6a1bX0spYrPd96405Zm/vVdXiAm3r98g4UdsQjGHbVdXUoWEPzNdzOw/3EGOvki7tk3a/l8nXTrvGaulLyzQ28npRA1O19J3DwT4yq1gmtOx21XqlkTPM91fb/yIcy5XkdH93t/l77FylsToWzDWrDng1KLW3YxVbHDlx6LjI6uczP7D/E/rt7Nh7TO3/4Dbf1R69/+OI388Ap3I27OrSfrvvD99W9jN79PYTsfsEY7OPK8zvv8X6bsx7Wr/XkZNW9nqcBABAX8U5Is5X7Hip7nq0smvVa59cqlSOp1oYAIBIF8+OWX9YL08iqAAALrl49l/U2YSX1dMoNQAAAAAAfMV6HOHnMuLOiQEAuE5d4Yg4Xw1vS3Nwmnm7KzjtM/9nam0y0+SRctFfCgC4In61/KHRTJ0aeTtBBQAAAAAAAAAAAEB3134hzoUWNVS1mDtupaX2b/zzjoYaVZupY/wYDQ/NAgAgPufqVfOOmQ7MVNrtoVkAAAAAAAAAAAAAEOmaKMRpqyvVjqM++S/YM8L8XtWtL9a205Lz4Tma2G0YPI+qnq1R6zn7YYSO49v1+LP15p5bT89giHcAwOV5frlONZ922I8inPNox7ISNZi76ctmKjXGtYwBAAAAAAAAAAAA4NoYEcfv1baiybp3/HQ9tqZU2157VZuW52lC5nSt3u+VI2OltiwcI4e9eKQv96zT7My7NSFvhTaZ9bZtLtZj0zN0/6OvytPpUu4rJcpJthcGAKA3Z2u0Pj9D92bn6annTUx5rVSri6br/swCbTvul2vWK1o71WkvDAAAAAAAAAAAAABdXROFOIOzVur1VTOVmSy1HKjUjvLtqv7oSw1JzdbSl/bo/c0z5RpoL9xFquZXbdC8SaM05NyHqjbr7fhlrVrkVGbBWr1Vu0dPpw+2lwUAoHepBTv1XGG2Rt7ypRrfMTGlvFJ1LVLyA3O05s3Devcnbg1mNBwAAAAAAAAAAAAAPfhWwLDvAwAAAAAAAAAAAAAAAIjTtXFpKgAAAAAAAAAAAAAAAOAbjkIcAAAAAAAAAAAAAAAAIAEoxAEAAAAAAAAAAAAAAAASgEIcAAAAAAAAAAAAAAAAIAEoxAEAAAAAAAAAAAAAAAASgEIcAAAAAAAAAAAAAAAAIAEoxAEAAAAAAAAAAAAAAAASgEIcAAAAAAAAAAAAAAAAIAEoxAEAAAAAAAAAAAAAAAASgEIcAAAAAAAAAAAAAAAAIAEoxAEAAAAAAAAAAAAAAAASgEIcAAAAAAAAAAAAAAAAIAEoxAEAAAAAAAAAAAAAAAASgEIcAAAAAAAAAAAAAAAAIAEoxAEAAAAAAAAAAAAAAAASgEIcAAAAAAAAAAAAAAAAIAG+1fblmYB9HwAAAAAAAAAAAAAAAECcvhUw7PsAAAAAAAAAAAAAAAAA4sSlqQAAAAAAAAAAAAAAAIAEoBAHAAAAAAAAAAAAAAAASAAKcQAAAAAAAAAAAAAAAIAEoBAHAAAAAAAAAAAAAAAASAAKcQAAAAAAAAAAAAAAAIAEoBAHAAAAAAAAAAAAAAAASAAKcQAAAAAAAAAAAAAAAIAEoBAHAAAAAAAAAAAAAAAASAAKcQAAAAAAAAAAAAAAAIAEoBAHAAAAAAAAAAAAAAAASAAKcQAAAAAAAAAAAAAAAIAEoBAHAAAAAAAAAAAAAAAASAAKcQAAAAAAAAAAAAAAAIAEoBAHAAAAAAAAAAAAAAAASAAKcQAAAAAAAAAAAAAAAIAEoBAHAAAAAAAAAAAAAAAASAAKcQAAAAAAAAAAAAAAAIAEoBAHAAAAAAAAAAAAAAAASAAKcQAAAAAAAAAAAK4nZ2r0+J2jddcWjz3jGnGtbteFNjVXFGtuptk2s333l0dtX9sxVa0p0P3Wtt+ZoR2f2PPxDeBRmfV3W1KjNnsOAABXW5yFOHbQ6nbL0ENFxao64lXHBXtRAACuQNv+JcEY8/j+y6dJ/k+2a7bbJMpP15JUAQCuWGv55FCeY+JKhz0PAICEOmN16i3QQ3anX6ht7VU19xB4OlprVbZ8ut0JeLcm5K3QjiM++e3nY4lnHXW0qG7LiovbdW92np4qb5Sv036+DzrqVoQ+U386vT7drinB7SxVzO7ZcOdtD7e+5I0AAHTnl2droR7bUivvbdnKL5yp1AH2U5ZOj8oKF6jsgFeuSXM0b8ZI+4k21T2dobvcedrxSa+RFQCuT+Hjc/dGNfe6G/SpusA6Zi9Q9Rf2LOA6d4Uj4iTJdUeKhodvQyXvUZPcPzldE5bXyHelxTh+n5r3l+rxYjpUAQBfD//pY6rZskSrD/QQiYhVAHB98pv9f4UvdP/QQdWfCd39RiNmAcA1xbd/he7PXqCyD/4ox+iZmlc4X/MedmvIn31qi1Hw4juwQj/MK1bVR+1KnWGWnXGfBp2p17YnJ2v2Fk/Mwpp41tHpWj01NU+rKz5Ue6q1XTPlvtmnhteWaEp+qTx9Kcbxe7R9a739oK/aVPPaq7Kjb2z/ZWKZmThujWiPjLh9++bQYgAA9MupvdpY4ZXGb9Cv3tygpQtX6uVHU+0nJe/+51V1Sspcv1dvrV+molWvaN4I+0kAuJHdOlFzZjmkzt3atq/nI3n/0UqVfWKO42ctUs5t9kzgOneFhTg5+ueqnXo7fNtzRL9r2KmnMxzyH1mnJypa7OXi9OdmVZZUqqnjvD0DAICeOUbM19uNH+vXm7I12J53pTr+tVLrKxp7HumNWAUA1yX/7xtU02kynik55lGj9h3ptVvwm4GYBQDXjI5DxXqopF5DpqzV27WH9fbmlSpauEhFyzfo9Z0blHWrvWDYmRptWlOvjqFz9LpZ/uVVZtlVL+rd9yqUb50YV1GsV49HldXEs45VDPN8sRrOuZT/xmG9/5K1XSv10z2H9VaBSzpVqWfKeyjgieDds1lVp+0HfeRvKtemJvtBTy6cD7532sKtl9ojI25rxicqEwQA3Eja/tCoVjNNTx+jwZEj4QS1qfWo1dflVvoPouPMYGVtOqLfNe7UvBEOex4A3EgcSstbJqt00VOxW56YiYJPNa/tNsfxqVqaN8asAdwYrrAQJ4ZbUpS7YbOs5mrvm/Wxh5EFAAAAgGtWhxr2Wg0EY5X247HKNXM8FbVq5fK7AIBE6GzUtnW18qev1ZY1ORqeZM/vkV/NFc+rSU4VPbtMaZHLD0zV0mcXmWd8qqr+MOJSivGsY9Y6GiqGcS7coKVdVnIodfEGFSVLvopdauztmo2na1T2gkfpD89Rmj3rsjqP6dXnd+vbZh2rTbFH/y80cQ6+7JcGAEDfXSbX+x9yQQDo2W3TVGSNinO6UpUN3ROF8Gg4zoLljIaDG0riC3EsA7+ntAwz7WzRyethCHcAAAAAN44z9Tp4yEyzspWePEaZwcaEGjVap0gCAHCFfAfKVd3pVNHCHDm7nXUfw4UWNe73S8k5ct9hz4t0h1tTk820rvnSGajxrGO0fLRXfjk1NSPFnhNhQIrc053mTq2aY5/qat7Xp5oXnlfT0EValDesj2e7+uUp36iqc9l6ct44/Z09N5a2//AGp46/5TxaAAAA4NrgUFpuaFSchp/tjjqRLTwajluPzkplNBzcUK5OIY4Ga3APFW0drbUqWz5d9985WneZ2/3TV6isrqXrJT/O1Ohx6/nsdQqOSNu0ThPs5e9aUqO24EKX9Ok1bZ4t1jJLVGMVCH1Rq00FGaF1yhm7BwC+8cLxY0vsfXrHqUZVrVmghzLtmHJnhh4qKlbVEW+3mNG2f0lwmQkljcHHTSXj7HVG6/H9JhL1I1aF33d29t32a5j3XV6qutbeTiMFAHxdfEf2BvftuZPuU5LVmDBhpvnXp+3vHVMP3Y4XtR2t1OqicG5ytyY8ulE11v7+eGkoBvQQo9TRorotKy7FqMzpempLrWKFinCMKjtuHkStF8qFvF23s5/5FQDgampT8xETC3oqkInli8/U3GmmD6RqeGhOlGFKSbemJ+QLXw4qnnXkVUuzFUEylXp7aE4013B3cHrii9iXbPQd2KhNR5yat+4RDe9LkZHhP75V/1LhU/qq5cq8xZ4JAEi4YK7y6DjdG8wFLtM25ffJs79UT+Vf6ne5N7tAqyuOqa230WHOeFRj8pMubWBW29vxvrSB+eXZMj30Xk/WyNfb+/QiMe1/Vh9Sm2qWWPfHaX0wkWrU+mz7NSPyqC59TtEudMh7JDJHtL7HPJPr1csbI7ns+jey8kmz3UevMGM751VTRbEeywu/bj/60KLyzd5+A13y1AvmeMe859zw76CX/PaifuTEloS1t9rvG/2brW69XPYPoIuh0zR/hkM6Va6ao5f+/1waDadQE6Mvvwtc565SIY5X3o+tqVPf/vvgDMOv1jcLNCHPHDiY59JmzNe8wplK/cuHqirO0w+Lay81AA8cJneheX6W27yCkexWrvXYumVEnk3Tj9eM1lav1Wa96k9CQbnDapwAAFyn7HgxfYnKDnwmjZ4ZiikzxkgttSp7cnowZkQm+I7vuoPL5GYEI5GcGfY65ub+rolEfY1Vx0tNcmve94M/6qYfhF4jf5JLZz8wiXVegbZ9QlIHANeWFtVVeMx+fqYy0+y9+YiJmp9sosmuBgX7J2MKNRpPKCpVnaddrklzzD5/ptJ0WJvM/r7sNz03Bvo/3a652XnBBs1wjMpNbVdjRbFmT12hup5GGW33qKwgTxt/71C6yYXyJ6VKp+pNLjRLj78TGjEgqM/5FQDgqvN/plarM88qkOn09q1z60ufrEHZ0lyh3KQ7h4bcaj3XIt+50Jy41rnwpXyfmmnaMCX3UETjGDIkGEtaz8SIa6d265mSRjkLSzR/RB+jS2ejyhZXypdRorWTBtsze+bzmVgpt1z/GHoMAOiLdnley9PkFRU67ZyoOVa+8cAQu21qnB7fH11c2aaa5ZM1t6RSzZ3DlB3MHazcxipYWKDJy2P3u/gOrdNDJpatr/hQZ/9xrPLNelYbWLun1uRDEflJTH55dy3XggqvHBlr9e7mPo4a10Ui2//cGjbQoWEZoc+ebo0iZyJg+izrsbn1JY/qbNGOwnF66EmTI7Zc6r9y3+xTQ0WNTvzZXs5ywcwrCeWTDf/hVObDZtmHx8p5ymx30UTNLveYTxcPkzNmTtfjW+p18uYxoTzw4Wy5zll5Y57m/qyX1/33Wj011eSbv7G33ayXYv8GJswolaenPjWTp27Ln6jHd/mUPO6R4GfOvOWs+cwmv81eopqLBcCX9DsnTlR76+kaPW6/b/h1ch9wBn+zjf0t6AFueA6lTy+Uy+xVqn+2V6HIwmg4uMEF4nIiUDp6VODO0ZvNve7OH9sc+KF5/p5NHwXO2/Pa318VuMea98TewJ/+as+0/LU9cOylaea1xgSK32+3Z9r+c29gifU+i/cGztqzIsXzmidesrb7x4EVP5kW+NG2jwJnI9cDAFxzzu5bbPbbowJL9sWKBFHCceOlrtHpYryYWx44ERVqAn/9U6B2rRUzRgUe3PGZPfOSy77/ZWJVwPOLwL/s+yzQHh1v/u0XgR9Z6606HIjeJADA1+gP5d1yGUvLjknBeLCiNvZe+1Jusitw8r/tmbZ2kx89aO3zrVtUjAr8+XCgON3MT18c2Pvv9jxbeL17omJFODbdk35fYMmv/mTPtYXjy+jnA42RH8ByuZgFALj6vLsCeda+eMPWwKvTzPSBaYEV1v0XVwV+lDUmFCumbQ6ciIglfcmJwsuE28HiWadPcSK8THQe898nAqXW55lWHmgJ5z6Xez2Ti+19wnzm9FWB+j/b8y7T5hhq14u83Rd48OHlgdJ9J2jjA4Bo4f3wtGmBvBhtYuf/bVdgiZWLjF4eqL24H7acDdS+VB449p/2w7C/tgcaN1ixalJge4s9z3beszWU80wrCdRG5TWB9s8Cu2sj9urh7YrIjf5kYlJP+VRfXb32v7OBvYut78nkbNHfiRGKTdHPme/QinGjxwR+tONEt3bBs7/ZG2iMeKuWHfa2vfRR12XDsXL0tG7fed+cCFSu3xto6fZ9nAxUPmJtt4nBUc+FPs+kwIPTZgX+pTYq3/zr2UDjptC2/vBnXb/H8Hdordf9M58PnNwZ+hvf+ZODXY8h4siJ+9/eah9fdDkmOW9+z6HP+qrHnhVmPmeLN/pLA3B57YH6VaE4Ufrx+cD53z4f/H//Q7O/j26iAm4EiR0Rp9Mnzzvr9KOllfINdOvp/DF2dVuLqrfUyj9wpl7cEFXJPCBJaQWFypRfdR8cU99rTK/kNY+pccAivbxwjAb3u6oaAPDNYscLjdXa0vlKTbJnhw1wKqt4pXIHSt43a3oZ6SBOI+ZozZQUJUXHm9vdyraGoq87ocudEwQA+Kr41fxeuXwmi8mdEM5lQoaPnxO61vXOg/ZZPZEiYk3JTLlMTImUlLZMP/2JtXZ3rXvKVNdp3m/TZuVEXd43Ka1Q88ebraqrV3OsRGnSBr04PWqkg9tnav4M685enbCGQgAAXFvOhUaq0TvbVfndtdp/aI9+umqRipZv0FvvHdbrBS7pVKWeifPM946/9H+teNZRR8el7bvgU01xoar+y601W+f38ZJUfnm2LtH6I07lby3p+yWpbknR8Afs0QoezlbaHUN09tN6VZUUaMKMjWq6wqt3AMB16ZRTuc93bxNzmNzh6SesPKVeuw9FZjmDlfXEfKVFX0LE6nfJmGbu+EyuEbnDNXHgxe3ymozp6dK1yorKa5SUotys2PmQpa1po56wLg01apF+vqF7PtU3X3P7XxT/0XKtO+KXY8ZmvfFoard2wcEZOUoPDwTXUa9fbPVKI1bqp4vHdF3WbHfOjwvlNN/uvqYWe2Z/pCr/mRwN7/Z9uJSenWLu1OrEH0OzuvLJ/0+r9HRWVL45YLDSnwx9j76K2N+j1zlTL3b7zA65Zq3U0hHm7qFdqv0iNNcSV06ckPbWDn0ZHJ0nVSlDgzMuMZ9z+NDoLw3A5SUpM9/aZ/lUVV2u7cHRcMaqqIDRcHBjusJCnErNDV4z0b65J2vu8zVqdYzV0z83QTM4XJ9x6oTqTUBzzJio9FgHUSaJTutvZ+QVvmbOpPvM7gAAcN2z44Vm5PTcuOsYo2zr+qWde9V8lTotO0551Fy3W9te26in8vM0O3uWNlnDvgMArh3+42rY75eSCzXRaiCMdJtb2da8Tw6qKaLRMOh0i5ovE2tcKSPte5G8OtHgC14GK/ueWE0SSRo+uufG0cwfjIzRkOHQ0OFjzNQv338ylDYAXLN6OrFsYbhz62BcnYTOwf1v7YpnHSUPsdvVIgtqItoCL8O337r8iE/pJa9o6ai+N8unFuzU25tXqmhhqHjp9ao9+vXRPXpuilXAtFsrNtf34yQ/ALhBZEzUfdFFNTZn+jSlmannc6/Zo0fx+9R6tFE1Fa+qbM0Czc6frglLdttPRjjTrMZPzHT8LGVHFzRchv94qRaY1/QNn683rGLOWH09fXGNtP+FtXy013yfTs2f6r5s57Pf06w6M01/cJxc0YUllttTlG4mvo9bYl4SrE/OeeU5Wqvq117VpuV5mp03TrNf6K2wx6GszB46zs33mGnVY3WekNf6zqOkZ92n2BebdCp9qpWreuT99/Cv7cpy4itrbx2s7402xw/mtbdtrlFr+FKdAK7MHTNVNN5M67Zrh4kNzoXzldXXonvgOnOFhThJct2RouH2LXPGfD39kkmAD72o3NsjgqZ9to+/ouBS0U6X2/T+d0Ze0WuO0XDX5Q5/AADXBTteDHc5e018na5Qp2VHexyt3b05Xa/1eXfr/ukFeqx4oyr3n5BvkEtpU6bZ15cGAFwrOhqqVW1d5/70q5qdFp1fTNYmq3FZHlVZF/iP9F8n1Wwml4s13XXIZ+UsnZWa2+39QreHemkcHfLt2B2n/+tvQlsR1wgHAICvxiS30mJ1NjpGyT3JuuPVl2eDc+S4+fKFMu2doYUdfxuKAfGso4FJlz9p7S/nFVxr4KBgzAsV1HjlKizRoj4W1FidrsGRDzJKtHZK1Jn28XC4lLVmg4pMfuWvq2FUHACIZvKU2IURxgCzG7Wmp89GFDL61VqxQPffM1mzi5Zo/ZbdavK2y/n9scqdFGNkm/84qSYzsQomLh99Ivx+sxYsrpQ3eY5e3rFIqT0U4bTtXxIzV7rrzlKTndm+7va/Ltp08nPr9d1KuT00pzcdbaHRiJpKxsX4jOZ2zxJVB5eIYGJpzGXvXKKaM/Yylgs+NTybp3szp2tuUbE2/XKvTpwZJNcPpikno7cYPEbJ37HvxnDT31j/tsgXo3jF5ezx13YxV/W1hX9tcebECWpvHT5rs54enyTv/nWanXm3JjxZqprjHEgAVyZJWQWLFNrDjFXRDKuYDrgxXWEhTo7+uWqn3rZv1lC6uRmu7sPB2ZwZ9tCxPd5G9nxA2IP4XtME+x62EQBwfRrk6FujsKOPy/WJ36Nti1eo5osUzbMKVZs/1m9rTczctkFLFxYq0zrpAgBwjehQ0wf1Ztr1ZIOuN5PrmCV8+xrVeiG4UhdDBg6y7/VTslu5MXOZS7eR/U2UAADXpu8MC448EC5k6c6hpGBH5HGdtvuBkv4h1KnY7Ot+ccSwsz6rk8ot1z+GHsezjpK+Laf13h/7YlyG0fZlqKMz3WU1rXtUXdIYHEHBW16ge6M7z7LXBTtm1bROE4LzrA7TNh3cURkcvdp/pNieH3krUJW1zsVRuKM6FHsyIEVp1pm3atRn0SPXAQAub8BN9h2p7cBy/WjLMQ2ZslJvvfeRfvf7I3rX7v8pejDWSJ8hfW17u8g1UqlWscfpRtU19RyvHN91x8yRYvX9fC3tfz1yyNGPfqjUSbE+Y8QtY9ilY4fBI2MvU+jWsIsFTX55frZET+05qZTCV/Ruw8f6XeNhvV31hp5bvkjzr7hh0qGb4u1ni16vPzlxIttbB7qUu+mIfr3nFS2dlGKOTSq1/tFxuvfR7Wq1TtIBEJ87xugBa5ruVhqj4eAGdoWFOH1086Bg5duXwyeGho7t8TbWrpDrg6vxmgCA648dL5pbYwyxG8HnPWb+dWpQnH2oMbV+qMpT5lUfXaWiboWqX6qtz9djBABcdV8c1O5DZjpikbZEnGzQ9VahlVYn3+ly1UReL2TATcEG0aZ/i3lx/ZD/Z0+7cGiQdbbeuRRlx8xlLt0yo66VDwD4hro1WcOtafNnMS+lbhWGng0WnozRsPAZ3UNTlGkm/uMneyiQaZHnAzNJHqnvhS89Es86ciklw0w6PToZ41ITltZPGsy/To0cHuoN+3bMwlX7ZpYJdhgOHGzP+3ZwnUG3Ri3X5RYqer1UGDtEg4Jn3V/e+b9a/5qc7ubgQwBAWGd7z21i/xEa3dMxPDxqTpuaD1lFltkqWj5TqcldC1Y6wsO1Repj21s3fz9OS7e+qJyhXtU8vUSbehjSLGnUzJg5Upe+n6+z/a8bk+cFg1mzvH0oDg2PYpd0z6wYnzHiNiPVjpHGbWNjL7PQ/M0uLtSixl+ao43kQq1c6JYrqjP87NneGibPyv8X+2431og/1jTiWCWC/797/guEvn+HUr4brqqJIye+Cu2tSUPdyl9foV8ffU8vz3KZ46dX9aMXuNwlAODKfDWFOK5UpQ80AfjAsZhnjsblarwmAOD6c7tbU62E7p0aNfR0rV+/R/WHTJKYnCN3H4aM7as2b0sw+R86JNTg3MWpE2rsoXEbAPDVaz1UGRzWPHWy+1JjbjdJypwy00z9qv7g2KUGXruzU3sbFFmfc4lfTYd32/cjDVNqhkPqrFVzfy/VCwD4ZhowSu5ZZt//6UE1n7LnReo8oeYjZjrCrRHhPqqkMbrPKgRt3qumWOt82qh9JrdwTnWHinws8axj4lxaxlgzPaZ9R2L0Yl1oUeMeX0TelKr8mIWr9u2lxaHRf0Yv1ivBeXPMGoOV+UzUcl1uJZpqrXNxFO61ygx/D70xOV2jVVg00K1URh4FgK4ONKo55ugeJk+p3W3+dShndPjSIT59ZsUhDdGQiwUdYX55/tUaRTTK7WP0gDUKS29tbz1JHqs1W9cqfaBX1UsKVdYcZ+nD19j+112SRt7jNtMWVR3q+VLDYUkpI018lJqOHEts4ceZk2qx/u4u87cMzbnkglcnftPzKETWttce7aGi5dRh7bOGvIs8VolQYz5HzLS4s1G175hnBk5T2sWDj/7nxFe1vdXhVPrylco3d/37T/RQNA0AQN98NYU4jjHKedRkwadf1erNjWqLLpy50KHW/etU9Yn9OOzWYQrmzh+36GR05I73NQEAN5YBKcpZ6JZD9Vq3bLs80RntBZ/qNpSo6rRD6QunaXjU0KiDvxtqxW1u+WPsJLKXWDXYlWLe1yTShz6ULzJOdRxT2bJStVwcKhYA8LUKdyzKram9XiffpCFpmcqNbmROuk8zC8x6nbu1aUNt132+4duzXKsP2A+6cChtaqGJIz5te2ajmmJceqOjtUbrf2mVCCVAb/kVAOArEt73e7TJ5ARd+hut3OTZjarudCgrf2JEYWiSMvPmmMcelb20W97IztROM++ZV+UbmK0nZ4Q7US3xrGPWynxE+cmSZ2upqj+PDBZ+M69Y20zelPXEzG5501fDo5ryY93bAP1eO6eTXI/mKK3r4A0AAJOnlL0QO09ZYRVGjFim3Is7T6e+Z42OpgbVR51l0GNeMyBVj6zqpe2to0XVB3rJaZJz9OLPVwaLcaoWFKjseBzJyhW2/yXa4KxCzRtqvrPXirW+rnvBS9uR3WoI53+3TdScLPP9HyrR6l0t6ujW19Wm5vJS1fXlUo2RTP6XYuWuTfX6MLI45UKHmrcuV9kfew+Ynq0l2vFJ1BcZbNPcaCKyQ7k/nhbzJBb/O6XaFP2ZzfdfU7zcHONIqYtnRsTq/ufEiWtv9clz1Cd/9Pd93q//a01HhEeJAgAgPt8KGPb9fjAJe/CazXP01u+XBat1L8sKtMuna/0RcxA1cLBSH5iotOSbdP60R01Nx+Q959C8io9UNMJePsiv5hfu02O7/HLc6lbOFJfaz31Py1ZlhwJgHK/p2TJacyvcWlP7inIuDr0LALhWte1fogkljSYOpMjVQ/Yz8emdyrf29Wdq9Hj2OjUVVOh3T0RGJ788rxVoQbl1xkSSXCZeZN6eZOLFMdV+4FFbp0PDC8v184WpwUSuC/8xbcpcEGwMH5wxTTm3tavj+8v1dFZ4Y3qJVRFxynFrqjLHjdGQc6H3HDRjrXI+X6eypn7EUgDAVeE/ulH/VLRb/vEb9OtN2SZS9M6z5W6TU/iVuuo9vTXDbnrs9GjbvELtaDW5yS0uZY4fK5fDp+bD9fKcv0/PLU7W6mcrpW4xSvKZWPeQiXXWmaiDR41VdppTN3X65GlqVPOpDjkKK/RbE6PCwrEx/82PtXSUPTNC+Pn0ksN6eUpk8LxMfgUA+Mpc3PeH27MGnlbDofpgW1bs3CQipwnHGbWo5kCjyWdcJibsMjEhOpuJZx2zlnU5hsXb1doZzp2klv171XTGL5eJY2+bONZ9rRjC+Vn6Wr3/Sk4fY01vbY72c9alru4eJ7fJ6To+b1T9Ry3m80iuKS9qy5qxcn4tRUIAcA0K74cfXqs1Xzyv9R5nKBbc0iHvoYNqMLmGbhmr56peVJY1mozNf7xUsx+tlPdiG5pCy//XSK1Z5tJ6k9fEyjW6tL3d41b6CJMrnT6mfQc86ojMg3pov7v0vj3HqN7F3/7Xcw5laVPNknFa3xS7X6nHPqfTtXoqvzh4AofVrunOsC4P1WHH1DFdl7eKZPNNjLNGsQvH7FsUEefceu7QK7rYHNlH3Y43bjkbylFvnqk1D3q1fnP3vDL8eZaWuFRTslvtdo5q/S17+x4v5qnPrJW3dJ083zHrjXcp6ZzXPsaRkkzO/csN2d1idb9y4rjaW+1jiC7HJPY8832npbuVGuxbDH/GeH+DAEJi/Z8DbjxfzYg4lgFO5Ww+rLc3zAley7HlQKV2lG9X9b+2a0j6Mr2853BUEY7FobTFu7RmRqpuOtOo6vIatQ5IuhTc43pNAMA3kf9Mi1o/jX37MvrMhW4cSl24U++9uVb5DzjV/tHuYLyoaurQsAfm67mdJpbESMKDHGO09OdrlTvipuDZKjsOtEgDI5fsJVZZcWrDLj1XMFbO8x7V/XK79v3h28p+Zo/efuI+/V1wfQDA18uvE0f2mn+lzAfcly3CsaSOLwye+ed5r1EXz/MbmKqiqoN6/Ylspd7kU8M724MxY0hWid7e96KyhtnLxeCc8ore37nBxCiz0P+pVZWJUTv2HlP7P7i19KU9ev/HXbsh43eZ/AoA8JUJ7ftNnpE6SF6rPeudY1JKtpZuO9hDbmLnNNuWKWtouxqDceYzDbl7kV6v3dNDR1E865i1Ri3S2796Q0snuezcaa9abrlPRdsO692+FuFcFS5NLAm1AXo/COV01R+fN59njta8abathCIcAIjpb4YpZ7PJVfKGyXvIxILy3Wr8i1OZBRtCuUpEEY7FMWqZ3njDxA4TJ3zW/vaXh3X2+4V6fd8ryukxr4lqe/OE8prqf/UrrWCt3pp1+ZzGet+33phj9vZeVS0u0LZ+j4xzBe1/V0Nytn66b49eNjniyJvtHLH8oE67xpo8b5nGRl4vyuSTS985HMwnrWKZ0LLbVeuVRs4w319t/4twLM4pm0P9Z9/xy2Mdb9g56rtVy3TfZZLfv7vb/D12rtJYHTO5o/keD3g1KLW3YxXbsBy9bI4j5rhOqtast+OdD9V+61jlb9ip/x2jCMfSr5w4Ye2t9nGF+f1f6lv0a+Sklb0eJwEA0FdxjogDAAAAAOiz46W669HKbqPbAAAAAABwrYj3qhKXG7kVAIAbzVc3Ig4AAAAA3KC8Lc3BaebtruAUAAAAAAAAAHB9ohAHAAAAAK6mCy1qqGoxd9xKS+3Lxa8AAAAAAAAAAN9UFOIAAAAAwBVqqyvVjqM++S/YM8L8XtWtL9a205Lz4Tma2I+hvQEAAAAAAAAA3zwU4gAAAADAlfJ7ta1osu4dP12PrSnVttde1ableZqQOV2r93vlyFipLQvHyGEvDgAAAAAAAAC4PlGIAwAAAABXaHDWSr2+aqYyk6WWA5XaUb5d1R99qSGp2Vr60h69v3mmXAPthQEAAAAAAAAA161vBQz7PgAAAAAAAAAAAAAAAIA4MSIOAAAAAAAAAAAAAAAAkAAU4gAAAAAAAAAAAAAAAAAJQCEOAAAAAAAAAAAAAAAAkAAU4gAAAAAAAAAAAAAAAAAJQCEOAAAAAAAAAAAAAAAAkAAU4gAAAAAAAAAAAAAAAAAJQCEOAAAAAAAAAAAAAAAAkAAU4gAAAAAAAAAAAAAAAAAJQCEOAAAAAAAAAAAAAAAAkAAU4gAAAAAAAAAAAAAAAAAJQCEOAAAAAAAAAAAAAAAAkAAU4gAAAAAAAAAAAAAAAAAJQCEOAAAAAAAAAAAAAAAAkAAU4gAAAAAAAAAAAAAAAAAJQCEOAAAAAAAAAAAAAAAAkAAU4gAAAAAAAAAAAAAAAAAJ8K22L88E7PsAAAAAAAAAAAAAAAAA4vStgGHfBwAAAAAAAAAAAAAAABAnLk0FAAAAAAAAAAAAAAAAJACFOAAAAAAAAAAAAAAAAEACUIgDAAAAAAAAAAAAAAAAJACFOAAAAAAAAAAAAAAAAEACUIgDAAAAAAAAAAAAAAAAJACFOAAAAAAAAAAAAAAAAEACUIgDAAAAAAAAAAAAAAAAJACFOAAAAAAAAAAAAAAAAEACUIgDAAAAAAAAAAAAAAAAJACFOAAAAAAAAAAAAAAAAEACUIgDAAAAAAAAAAAAAAAAJACFOAAAAAAAAAAAAAAAAEACUIgDAAAAAAAAAAAAAAAAJACFOAAAAAAAAAAAAAAAAEACUIgDAAAAAAAAAAAAAAAAJACFOAAAAAAAAAAAAAAAAEACUIgDAAAAAAAAAAAAAAAAJACFOAAAAAAAAAAAAAAAAEACXH+FOGdq9Pido3XXFo89AwCAq6tt/xLdZWJP2XF7BgAA16KeciVyKAAAAOD6c60e51+r23WhTc0VxZqbabbNbN/95VHb13ZMVWsKdL+17XdmaMcn9nx8A3hUZv3dltSozZ4DAMDVFmchjh20ut0y9FBRsaqOeNVxwV4UAIArEC5yib7dm52np7bUyHPGXhAAgARrLZ8cijtP16rDngcAQEKdsTr1Fughu9Mv1Lb2qpp7CDwdrbUqWz7d7gS8WxPyVmjHEZ/89vOxxLOOOlpUt2XFxe0K5l/ljfJ12s/3QUfditBn6q3TK+p97sqcbvK8WrX2NfBe8KmuZLoe30+3GgDgSvjl2Vqox0wM8t6WrfzCmUodYD9l6fSorHCByg545Zo0R/NmjLSfaFPd0xm6y52nHZ/0GlkB4PoULq50b1Rzr7tBn6oLrGP+AlV/Yc8CrnNXOCJOklx3pGh4+DZU8h41yf2T0zVheY18FOMAABLEcWtEvDG3pI4WNVSs09zs6So7TqILAEgw/zHVVPhC9w8dVD2Fn1dVx+e1wbNLdzC6HIAbiG//Ct2fvUBlH/xRjtEzNa9wvuY97NaQP/vUFqPgxXdghX6YV6yqj9qVOsMsO+M+DTpTr21PTtbsLZ6YhTXxrKPTtXpqap5WV3yo9lRru2bKfbNPDa8t0ZT8Unn6Uozj92j71nr7QQ9O1+jx7Mj3maOsoe1qrCjW7KkrVHfaXq4HHa01Wp8/Xav3e+05AADE6dRebaww8WT8Bv3qzQ1aunClXn401X5S8u5/XlWnpMz1e/XW+mUqWvWK5o2wnwSAG9mtEzVnlkPq3K1t++x2tBj8RytV9onkmLVIObfZM4Hr3BUW4uTon6t26u3wbc8R/a5hp57OcMh/ZJ2eqGixlwMA4MqkLdx6Kd6Y2/u/+Uj7X5opl7yqWlyihnP2ggAAJID/9w2q6TQZz5Qc86hR+4703JiAK+c9UKyyAx61248B4HrXcahYD5XUa8iUtXq79rDe3rxSRQsXqWj5Br2+c4OybrUXDDtTo01r6tUxdI5eN8u/vMosu+pFvftehfKtE+MqivVq9AkK8ayjNtU8X2zyK5fy3zis91+ytmulfrrnsN4qcEmnKvVMeQ8FPBG8ezarqtdCGut91qmp06nclw7a77NMz715WO+WuOU4V6/Vz8ceScd/+piqivM0IW+dalovtyUAAFxe2x8a1Wqm6eljNDhyJJygNrUetfq63Er/weDQrIsGK2vTEf2ucafmjXDY8wDgRuJQWt4yWaWLnord8sQ8PPep5rXdJodI1dK8MWYN4MZwhYU4MdySotwNm2U1V3vfrNc1dpVPAMD1YoBDzoyV+unyFKmzVjVNDEUOAEiUDjXstRoIxirtx2OVa+Z4KmrVyoifAIBE6GzUtnW18qev1ZY1ORqeZM/vkV/NFc+rSU4VPbtMaZHLD0zV0mcXmWd8qqr+MOJSivGsY52pWq5NTZJz4QYt7bKSQ6mLN6goWfJV7FJjb5eOOl2jshc8Sn94jtLsWd20HVODeR/dMUe5GV07NZ1TlmnpHeZOU72ao9O846W6d/ICldW16KZ7lum5J8bYTwAAcAUuk+v9D7kgAPTstmkqskbFOV2pyobuiUJ4NBxnwXJGw8ENJfGFOJaB31Nahpl2tugkQ7gDAK4iV6o7WEHd9DkjFQAAEuRMvQ4eMtOsbKUnj1FmsDGhRo3WKZIAAFwh34FyVXc6VbQwR85uZ93HcKFFjfv9UnKO3FaBSrQ73JqabKZ1zZfOQI1nHaPlo73yy6mpGSn2nAgDUuSe7jR3atUc+1RX874+1bzwvJqGLtKivGE9n+361/Oh6d/fpEGhexEGyfH3oXv/89fQ9JJBcj0wR89VHdGvt81R2t9zPi0AAADw9XIoLTc0Kk7Dz3ZHncgWHg3HrUdnpTIaDm4oV6cQR4M1OEZFW8epRlWtWaDZ2XfrrjtHm1uGHlpeqrrWGKfRHC8NLbOlhzF1Lvc8AODGMNipkfbdLi60ybO/VE/ljdO9wZgzWvdm5+mpLTXy9FYkeqFDrXWR61mxaruazTpt+5cEX+fx/b2MvmPet7miWHPDsS5zunnPWsUKdUF+X2g786fr/ovbWaDVFcfUxtk2APC18B3ZK+sk/dxJ9ynJakyYMNP869P2946ph27HizGi7Lh50J9YcKZGj1vL2HlN29FKrX40Mgb1kC+FRb+Xe5zmrqkMxq2EOOdVk3n9xyLi6f3TVwRHIujoFqc8KrOWWRK6lEiXzxLerqgQ6tkSes25FaHHVY+GHlu34HcJANcds98+Yvb5PRXIxPLFZ2ruNNMHUjU8NCfKMKWkW9MT8oUvBxXPOvKqpdmKdJlKvT00J5pruDs4PfFF7BMhfAc2atMRp+ate0TDeysyunWkxgw1049b1GJtZ6TOz9T6sZkOHaOR0ZfoGjVf725epqw7LjuMEAAgSr9yjXjbq854VLNlRdc+oKJiVR3vJae5yG/yg+mh93qyRr4428XC/VAPZYZzC3sbjni75TDhPG5CSWPwcVPJOHudJao506aaJdb9cVpvJYhq1Pps+zXtnMcSymms5e0ZkS50yHvEfO9Fkd+j1T5ZL2+M5LLr3+huTXjUbPfRXtoh+6JfOV3U5+loUZ35e4a/y95+A3HnxGFR73W5dfrV39gb+32jf7PVXP4S6J+h0zR/hkM6Va6ao5f+/1waDadQE6OP7YHr3FUqxPHKayXMcurb9hksVuHM/dOXqOyDP+qmH8zUvML5yp/k0tkPzIFFXoG2fUJQAwD0n9/bomYzHX5rREPs6XqtnzFOc0sq1XjOqcyH55u4M0eZ//ilGivWae6Dedp2PEbcsc7eXD5Os4sr1XBmkNwzrPUmyuX9hR57cIl+8W+XiVXtHm3Ln6jHd/mUPO4Rs+5MZd5yVg0m8ZydbRLYiw3cYSahXz45uJ3NncOUbWKjtU6arARwgSYvr72Y1AMAvipmH1zhkQaafXiafZ7OiIman2xizq4GBfsne9PvWBDWLs9reZq8okKnnRM1x8SE3AeG2PnSOD2+P0aHpx3vHttSL98/jlW+lWM94JT3QKmJW3naccU5lkdlmdP1uHn9kzePUa4Vpx7OlutcvaqK8zT3Z54eC5NO7l8S/Cwd/98081lmKj2pQx5ru2ZsDHUM2wanWrFvvrJGhB6nTgo9tm4ju16pBACuD/7P1Gp15lkFMp3eLh1OPXZufemTNShbmssajSYWh4bcaj3XIt+50Jy41rnwpXyfmmnaMCX3UETjGDJE1lqtZ2J0cp3arWdKGuUsLNH8EZc719Wl3H+eI1fnbq0o3q1Wexv8bS2qLl6u6k6X8v95plkKAHDl+ptrxNde5Tu0Tg+ZWLa+4kOdDecnk1wmRapV2W+89lI98cu7a7kWVHjlyFirdzf3cdS4LvxqfbNAE6x+qAOfSaND/VDzZowx4c5sw5PT9cPi2i4FPo7vuoPL5GaE4qUzw16n0K1hAx0alhH67OnWKHImAqbPCuUq8zJ6GfUtrLNFOwrH6aEnS1XXYsJrsJ1xptw3+0x+WKMTf7aXs1ww80qma0JRqRr+w27LfHisnKfMdhdN1OzynnOv3sWf0+nfa/XU1Dxt/I297Wa9FPs3MGFGqTzRhbRhceTE/k+3a252XvA4KPx3y01tV6O1ztQVqosuckpUf+PpGj1uv2/4dXJNTm39Zhv7W9AD3PAcSp9eaI7f/ar+2V6FIguj4eAGF4jLiUDp6FGBO0dvNve6O39sc+CH5vl7Nn0UOG/PC3h+EfiXfZ8F2v9qPw77t18EfmS91qrDgXZ7VtDHm83rm/kvxXoHo6fn/3NvYElv6wEAvlHO7lsc3N8v2XfWnhPhr38K7F1sxaNHArv/PTzvs8D2ada8aYF/qf2TPfOSdk954Efp5vn0VYH6P9szbS07pgXf68FNHwbORsWrP/1qceAeK77E2JbwNj44bVbgRztORMW684GTO+11f3Kwa6wLnA3UvlQeOPaf9sOwv7YHGjeMMa85KbC9xZ4HAPhq/KG8ey5jtOyYFNzXr6jtuicPizsWhPOXadMCeXPLAyeiXv78v+0KLLHi1ujlgdrIuBUR70qPRa307+Y1rXWmlQdaIrejp1ypxxzqRKBy/d5AS/RH/uvJQOUj1nubWNrlOTtPTB8TuGfa5kCXzboY20YF8naetGdecuIl6/VGBUo/tmcAwPXKuyuQZ+0rN2wNvGrtxx+YFlhh3X9xVeBHWaH95J1mH3riv+3ljV5zIlt4meL3QzvfeNa5GA8W7zWZSg/Cy0S34/23iQHW54mMPX14vfMtuwIrxpllrOXCt3GLA5V/iIzCPevL5wSAG1Z4P9zfXCOO9qrznq2BB4PvVRKoDbfRhbV/FthdG5FrxMg//mT251a+dM8TuwInI2Jgf7S/vyr0GjE+q9WGWLvWbvfb8Zk985Le48lZu/1xcWBv9HdihHKZ6OfMd/iE9V2NiZEfmmd/szfQGPFWF9skX/qo67JW22fwdabF2UbY35wu/HkmBXPbbm2rfz0baNwU2tYf/qzr9xj+DvudE//5cKA42FZrvsOo3077sc3B39U90ccd/e1vDOeqXY5Jzpvfc+izvuqxZ4WZz9nijf7SAFxee6B+VShOlH58PnD+t88H/9//0Ozv+3Z0D1xfEjsiTqdPnnfW6UdLK+Ub6NbT+WMuVbeNmKM1U1KUFF3FfLtb2dZQvHUndLmaaAAAgi741XaqUTuW5AWHhnUVLFeOfUnEjoZfaNspyblwg9ZkdT/7M2nEfD37RKqJWbWqPBRxxk9HvX6x1USi5EV6brlbg6PilXP6Zr1oDa3YC69zpl58NDUq1jnkmrVSS60z/Q/tUu0Xobkhg5X1xHylRQ/JOCBJaRnTzB2fTrQyJg4AfHX8an6v3Ox9HcqdEJHLGMPHzwld63rnQfusntj6Hwtsp5zKfX6+UqOutOG4faaetuKW6rU7Im6F413qTzZraVrUSrflaFGBiYGnatT4uT0vLqnKfyZHw6Ov/jHApfTsFHOnVif+GJrVRWeKlpYuU5fNMrEtPW9Z8PIorUdbGPENwI3rXGikGr2zXZXfXav9h/bop6sWqWj5Br313mG9XuAy++9KPRPnme8df+n/WvGso46OS9tnjSxaXKiq/3Jrzdb5vV+SKtIXNVq9cKMa2pKUOmmOfTZ7qgb/pVFlzzyvhh5HkQMA9Es/c43+t1eZOPDidnlN/vB06Vpl2W10FyWlKDfLep/Y2po26gnr0lCjFunnG2bKNdB+ol9aVL2l1sSmsVpb2v2zaoBTWcUrlWte2/tmzeVHOr1C/qPlWnfEL8eMzXqjW35ovuGMHKWHRwANt0mOWKmfLh7TdVmz3Tk/LpTTfLv7mlrsmf0RZ05n/qb+f1qlp6PbVgcMVvqToe/RVxH7e+xvTty6p0x1nSYH37T5YvtuWFJaoeaPN99nXb2aIweoSUh/Y4e+DB5rpCrFulxmJPM5hw+N/tIAXF6SMvOtfZZPVdXl2h4cDWesigoYDQc3pissxKnU3OA1E+2be7LmPl+jVsdYPf1zEzSDw/V11XHKo+a63dr22kY9lZ+n2dmztMka9hYAgF5cukazuaXdHRxmdtvR8xr+8Ct6Y3H4QM4vz7/WmmmK8sdbyWRszoxpSjdTT5PnUkdgywnVmcnw/LE9NBw7lPL9Mfb92NKz7lPsq2g4lT7VWtcj77/HyFD9PrUebVRNxasqs65tnD9dE5bstp8EAHxl/MfVsN/sp5MLNdG+VNJFt7mVbc375KCaYhXS2OKOBRkTdV8P18p2pk9Tmpl6PvfanZ7heOfW1AdiX7TDdYfb/Juggs5zXnmO1qr6tVe1abnJ4fLGafYLvTQCJ9+nkdENmZbbXMHPoc99OhucAQA3sIEz9eKGqMtuWB2cC8OdWwfj6iR0Du5/p1E86yh5iEJrmZi0dYnWH3Eqf2vstsCYztVrdd46NQzM1nP7juit9ctUtHCRlq6v0Pv7XlGuavTU4l4uewEA6Lt+5RoR+tpedaZZjZ+Y6fhZyo6VB/TCf7xUC8xr+obP1xtWMWdcRTjGqROqt4oqZuQo85bQrG4cY5RtnWTXuVfNwarYq6flo73m+3Rq/lT3ZTuf/Z7mYJtk+oPj5IrVJnl7SrAd0/fxFZzQ0N+czmx1VmYPHefme8y06rE6T8gbo2i2fzmxVycafMHjoux7Yr1bkoaP7rlg6Mr6Gwfre6OtfLpW2zbXXLxMJoArdMdMFY0307rt2mFig3PhfGX1tF8GrnNXWIiTJNcdKRpu3zJnzNfTL+3Rrw+9qNzbo4Lm6Xqtz7tb908v0GPFG1W5/4R8g1xKmzLNvr4mAAA9c9x6Kd4Mvydb+U+s1Vvvfai3u4xeEz6TYaScvcWWW4cp2G15tl3twRlS23+EzpMYeVv3UXT6yuWMnWZa/tffhOKiry3y9A2/WisW6P57Jmt20RKt37JbTd52Ob8/VrmTej5TCABwdXQ0VKva6vA7/apmp0WccBC8TdYmq3FZHlVZF/jvQf9jgc3l7KGx0jBxLrjm6bMm0lnC8a5R67OjtzN0uzcRBZ0XfGp4Nk/3Zk7X3KJibfrlXp04M0iuH0xTTkYv8dI1REPsu10M+F+h6el2nQ/dA4Ab1yS30mJ1NjpGyT3JuuPVl3bVouPmyxfKtHeGFnb8bSjWxLOOBibZxTW9+Mv5UDHlwEHB2OTbv1wLKrxyFZZo0Sj7dfqg9R3r7Hcp5ycl3UdOGOzW0p/MlONUpcoO9DYOHQCgT/qVa1j62V71HyfVZCZWwUS/Sjt/v1kLFlfKmzxHL+9YpNQeinDa9i+JmfPcdWepyc5s9ohzw81n7S0aOV1WIYhfHe1xVLv2WZtOfm69vlspt4fm9KajLRTrupyEGHm7Z4mqg0tEOF4ae9k7l6jmjL2MJd6cTmOU/B37bgw3/Y31b4t8MYpX+pcTd8hnFc50Vmputxw8dHsoVsFQgvobh8/arKfHJ8m7f51mZ96tCU+WquY447cCVyZJWQWLFNrDjFXRjJ5PmAaud1dYiJOjf67aqbftmzWUbm6Gq/twcH6Pti1eoZovUjTPKtRp/li/rTXrbNugpQsLlRn7JE4AAC5KW7j1YrwJxo+CHKUm95RaO+SIdQZJtL+9qVtyfrER+mqJ2K62A8v1oy3HNGTKSr313kf63e+P6F07nhY9ONJeCgDw1ehQ0wf1Ztr1ZIOuN5PrmCV8+xrVeiG4Unz6EqNiGXCTfScsVVmF84OX8ujp5v5uvHHNL8/PluipPSeVUviK3m34WL9rPGzi8Bt6bvkizSeJA4D4fGdYaHQwu5ClO4eSgh2Rx3Xa7gdK+odQp2Kzr+eilLM+q5PKLdc/hh7Hs46Svi2n9d4f+9TjWl+GOjrTXVbTukfVJY0mYkje8gLdG915lr0u2DGrpnWaEJwX7jD16sRvrHdwa8TwHr6F76cp00w9R5q5nCEAfBUico1426sGOfqZe7hGKtUq9jjdqLqmnuOV47vumLnOvMKR3QqM+roNjv5ua1z62D5pS50U6zNG3DKGXTp2GDwy9jKFbg27WNB0tXM6h26KO7e1p2HJbuXG/DyXbiPDf+xE9jcOdCl30xH9es8rWjopRf4jlVr/6Djd++h2tTIqHxC/O8boAWua7lYao+HgBnaFhTh91PqhKk9JzkdXqahboc6Xarv8xRoBAOgDhwYFT71plreXy4bozMnQdYIHJ2lQcIZhx6bWkz0n/v/z197PlvH/d8/P+7zHzL8OpXw3nDW2qfmQ1WidraLlM7sVFXWET38FAHw1vjio3YfMdMQibQkXfna7VWilNbzu6XLV9HC9kP7Fggid7cGOzJj+46SJbGbN4eEzWcPxbpDuy10UvJRHT7fcUf06JzVCixp/aaJlcqFWLnTLFdVwcvYsSRwAxOXWZA23ps2fhXKSbjp0Nngm+xgNC5/RPTQlWJTiP36yhwKZFnk+MJPkkfpe+NIj8awjl1IyzKTTo5MxLjVhaf2kwfzr1MjhoYj07ZiFq/bNLBPMcgYOtud9O7iOdF4dXP4BAL46/co14mivunlQcOSD5tYYl7fqzd+P09KtLypnqFc1Ty/RpqbYpZdJo2bGzHWKFo61R1ww+rgNoZzMqUEXGwSvhj62T9rCo9gl3TMrxmeMuM1IvTTi0G1jYy+z0PzNLi50JTndWfn/Yt/txhrxx5pGHKtE6F9ObL4r6zXOpSg75ue5dMsMj6B3Ffobk4a6lb++Qr8++p5enuUyx0+v6kcv1EeMEgUAQP99JYU4bd6W4MHP0CHhhDvCqRNqjJXch88Q+vxkzDNfWputxB8AgEhJSssYa6YtqjrU82VD2j6qD56ZmZkx5mICO/j2kaGEfV9j7IbqC1417bOSxZ7VHDkWO9nvbFTtO+aZgdOUFmx1t/j02RFrOkRDLibIYX55/tUalQEA8FVpPVQZPEs/dbL7UmNuN0nKnDLTTP2q/iD2Pr9/sSDCgUY1xzzjzq+m2t3mX4dygtfGt1jXybeGhG9UffNVaho8c1It1vbEusyUiYmhkQwAAP02YJTcsxzSpwfVfMqeF6nzhJqtPGGEWyPCfVRJY3SfVQjavFdNsdb5tFH7TkvOqe5QkY8lnnUu5lPHtO9IjF6sCy1q3GP2/8k5cgcvtZGq/JiFq/btpcWhtr3Ri/VKcN4cs4bFKVfwTqOaPo4dx/yeZlktf47bh/V8ORUAQN/0K9eIo73q9jF6wBqF5Z0aNfS30DJ5rNZsXav0gV5VLylUWbz5ze1uTbUKOnrbBr9H9YdMTnYxjl0tSRp5j9tMe2+fDEtKGRmMj00ml0xodndFOV2Lao/2UNFy6rD2WQ2rkccqEfqXEw9TaoY5LuqsVbN1iao+iKu/sa8cTqUvX6l8c9e//0QPRdMAAPTNV1KIM9iVYg7lzIHEoQ/lixzCveOYypaVqiXWtT+TU5RmHTg1bdcvjnY9/OhoLtXq12j4BQB0l5T5iOYNlXyvFWt9XfdY0fHJdq14odFka/M1JzOiRWH4ND2abqaflOqZNz3qiIxXFzrUvHW5yv7Y9SygaP53SrUp+j0v+FRTvFzVJvFNXTxTaRdfwqnvWWebqkH1UaMq+PYs1+oD9gMAwNUX7liUW1N7vU6+5EjLVG4vjcz9iwUROner7IXarvmSYcWEFVZj5Yhlyo1Y0Tn+EWWZ7Wh4tljVrTGaa88c044ttTFPauiTW4cpxfqcTfX6MLIhs48xsb+cLquhWvL8G3kegOudQ2lTC+WSR5uWlapLf6OJF3XPbjTxwqGs/IkRhaFJysybYx57VPbSbnkjO1M7zbxnXpVvYLaenBHuRLXEs04on8pPNvvjraWq/jwyT/GbecXadtps2xMzNTzeS1EEJcmdN998B7HjWEfrbq142uoYdml+Vqh0BwBwBfqVa8TRXjUgVY+scpsIV691y7bLE52edLSo+kDo4oQxJefoxZ+vDBbjVC0oUNnxru/bJwNSlLOwl22wYuyGElWZOJa+cNoVxrHLG5xV2Gv7ZNuR3WoIjoBn3DZRc7LM93+oRKt3tXRtk7RcaFNzeanqwsv31RXmdJ6tJdrxSdQXGezT22iOLhzK/fG0iGOVS/qXE4ePi3za9sxGNcX4jB2tNVr/y0u/n7j6G2PyyXPUJ3/0933er/9rTUeER4kCACA+X82lqe7I0dNWVWvTOj00uUCrN7+qsjUFmpC9QE3/tEqLRtvLdZGi3CeyTUD1qaponCY8uVHbXntVm54095eeUO7yOfZyAABEcKSqaOsGZd7iNQneZN2bHYo7217bqKemZ+j+glflcYzVc1sXKbVLvjlYOaus9awGZhOj7Hi17fkVemh8hh4/OlZPLxxjLxtb/jOP6MtnJ+v+6Su0ycSs0LqTtf6IX0njN+jZGZEXKR6szB/NCSaaVQvG6aHlVpwLbeOUUunJZdaICwCAr4K/uUbbrYbJ8RM19uLlOXrgGKPsGVYAqdfuQ90bVPsXCyI8vFb550o0Zfx0PfX8pbg15dlG+W8xcev5mXJFNhabeWu3mjjS2ahNeSa+hd/PWi9vnIl/C7Ttik7fS9XUn1gN2Y1anztOc9eUatvmYs2dPE6P/cZ92ZjYX4NHu4NngXqezwu91/NLtOOT0HMAcN0ZPl9bSsw+9lSlHsu297F2vFhd96WGF5Zr7fiuwxA4Ri3Ws4Up0pGNemiyHSvMvnLChAJVnXIpf2uJyWXshW3xrGPlU4uena/hZv+/yez/w3nK49n3aW6FV66C7tsWD8eIQv3UijPBODZOE/LyNDvf3IL3N6qpM0mZ61/RvFijyAEA+qdfuUZ87VWDJ23WG1bMOf6q5v5Thh4qKlaZyU+sfqD7/ylPm4KXMuqZ4/aZetHKb+RV1aOz4irG6bYNwW23+6L+ycTY/b5gjH1x0ldQXtGtfTLv4nf/ePbdmvBko9rtRYPFs8+UK3+oX00v5On+i3+nV7VpeZ7ZdpODvWaSu7+xF++zK8np3Fr6k5GqLTBx+dFLf0urT6/qlCP4PS5N79KwelG/c+KLx0W7Q9+N/X7Wtj5mteXmrdPBS19WnP2NsbSpvsj8bcz3/Zj13YQ/44QlqjG/xPylsQuNAADoq6+mEGeAUzkbdum5grFynveo7pfbte8P31b2M3v09hP36e/sxaJZQfm9N5Ypa1SSOo7s1o7y3WoeMFEv7qxQ7vfthQAAiJacrZ/u26OXn8jWyJu9wbizo3yvTtw0Rrmr3tD7h15UVrK9bKTgeju7xKvKI19qeMEbeq9qke67XHvzsBy9/Ks3NMd1UrXl5j3f+VDtt45V/oad+t8bsuWMOtvGMWqZ3gjGOYd8H5g498vDOvv9Qr2+7xXlDLMXAgBcZX6dOLI3OLR15gNu9aVrMXV8YbBBzvNejMsZ9jMWXPQ3w5Sz+aBezxsm7yErbu1W41+cyizYoLf3xY5bVhx5t/YNLZ00RkPO1avaer/yg/IOGKXckgq9vzn7is7gc07ZrLc3zFHmd/zyHKjUjgMtGpJVonerll0+JvbXbTP14huLlH7r+eB7VR5pV9LN9nMAcB1yTnlF7+9cq9zUQfJa+9h3jkkp2Vq67aDeXpgaPNO7K4dSF+7Ue9tM/jC0XY3vmH3+gc805O5Fer12j5aanKK7eNax4ssivW1i2dJJLrV/ZLXH7VXLLfepaNthvftErG2Lh0OuWeY72POKeZ9RGnSmRa2fmtuZQRo5aZle3nNAP51E9xcAJEQ/c4342qvsmPPmWuU/4FS7p1ZVJj+p/le/0grW6q1Zlx/hzHrft96wi3EWF2hbv4txorYhGMO2q6qpQ8MemK/ndh7uIcZeJV3aJ31qsOKwyddOu8Zq6UvLNDbyelEDU7X0ncN63SybdstZe9ntqvVKI2eY76/2FWXFkdxdSU73d3ebv8fOVRqrY8Fcs+qAV4NSeztWscWRE4eOizaYv5v5gf2f0G9nx95jav8Ht/mu9uj9H0f8fuLsb+zOpYkl5rsxv/8W67sx72n9XkdOWtnrcRIAAH31rYBh3wcAAL1o279EE0oalb7+sF7+Ks6eAQB8Y4RjRP6bH2vpKHtmX5yp0ePZ69RUUKHfPcHlNwAAAAAAXx/PltGaW+HWmtpXlHO5EWMjxJ0TAwBwnfpqRsQBAOAbz6+WPzSaqVMjb6cIBwAAAAAAAAAAAEB3FOIAANAX5+pV846ZDsxU2u2hWQAAAAAAAAAAAAAQiUIcAABsnl+uU82nHfajCOc82rGsRA3mbvqymUqNcS1jAAAAAAAAAAAAAKAQBwCAsLM1Wp+foXuz8/TU869q22ulWl00XfdnFmjbcb9cs17R2qlOe2EAAAAAAAAAAAAA6IpCHAAAbKkFO/VcYbZG3vKlGt/Zrh3llaprkZIfmKM1bx7Wuz9xazCj4QAAAAAAAAAAAADowbcChn0fAAAAAAAAAAAAAAAAQJwYEQcAAAAAAAAAAAAAAABIAApxAAAAAAAAAAAAAAAAgASgEAcAAAAAAAAAAAAAAABIAApxAAAAAAAAAAAAAAAAgASgEAcAAAAAAAAAAAAAAABIAApxAAAAAAAAAAAAAAAAgASgEAcAAAAAAAAAAAAAAABIAApxAAAAAAAAAAAAAAAAgASgEAcAAAAAAAAAAAAAAABIAApxAAAAAAAAAAAAAAAAgASgEAcAAAAAAAAAAAAAAABIAApxAAAAAAAAAAAAAAAAgASgEAcAAAAAAAAAAAAAAABIAApxAAAAAAAAAAAAAAAAgASgEAcAAAAAAAAAAAAAAABIAApxAAAAAAAAAAAAAAAAgAT4VtuXZwL2fQAAAAAAAAAAAAAAAABx+lbAsO8DAAAAAAAAAAAAAAAAiBOXpgIAAAAAAAAAAAAAAAASgEIcAAAAAAAAAAAAAAAAIAEoxAEAAAAAAAAAAAAAAAASgEIcAAAAAAAAAAAAAAAAIAEoxAEAAAAAAAAAAAAAAAASgEIcAAAAAAAAAAAAAAAAIAEoxAEAAAAAAAAAAAAAAAASgEIcAAAAAAAAAAAAAAAAIAEoxAEAAAAAAAAAAAAAAAASgEIcAAAAAAAAAAAAAAAAIAEoxAEAAAAAAAAAAAAAAAASgEIcAAAAAAAAAAAAAAAAIAEoxAEAAAAAAAAAAAAAAAASgEIcAAAAAAAAAAAAAAAAIAEoxAEAAAAAAAAAAAAAAAASgEIcAAAAAAAAAAAAAAAAIAEoxAEAAAAAAAAAAAAAAAASgEIcAAAAAAAAAAAAAAAAIAEoxAEAAAAAAAAAALienKnR43eO1l1bPPaMa8S1ul0X2tRcUay5mWbbzPbdXx61fW3HVLWmQPdb235nhnZ8Ys/HN4BHZdbfbUmN2uw5AABcbXEW4thBK8bt/ukLtLrimNou2IsCAHAF2vYvCcaXx/dfPk3yf7Jds90mFj1dS1IFALhireWTQ3mOiSsd9jwAABLqjNWpt0AP2Z1+VsfeQ0WvqrmHwNPRWquy5dPtTsC7NSFvhXYc8clvPx9LPOuoo0V1W1Zc3K57s/P0VHmjfJ32833QUbci9Jl66/SKep+7MqfrqS21au1r4L3gU13J9D7liwAA9Mwvz9ZCPWZikPe2bOUXzlTqAPspS6dHZYULVHbAK9ekOZo3Y6T9RJvqns7QXe487fik18gKANencHGle6Oae90N+lRdYB3zF6j6C3sWcJ27whFxkuS6I0XDL95c0qljJoFeoAkzSuXpR3IOAMC1yH/6mGq2LNHqAz007Pp9at5fqseLKf4BgOuK3+z/K3yh+4cOqv5M6O43GjELAK4pvv0rdH/2ApV98Ec5Rs/UvML5mvewW0P+7FNbjDY134EV+mFesao+alfqDLPsjPs06Ey9tj05WbO3eGIW1sSzjk7X6qmpeVpd8aHaU63tmin3zT41vLZEU/L72N7n92j71nr7QQ9O1+jx7Mj3maOsoe1qrCjW7KkrVHfaXq4HHa01Wp8/Xav3e+05AADE6dRebaww8WT8Bv3qzQ1aunClXn401X5S8u5/XlWnpMz1e/XW+mUqWvWK5o2wnwSAG9mtEzVnlkPq3K1t++x2tBj8RytV9onkmLVIObfZM4Hr3BUW4uTon6t26u2Ltz369dE9em6KVZBTqQVbj/V+dg0AAAnkGDFfbzd+rF9vytZge96V6vjXSq2vaFRHTyO9/blZlSWVauo4b88AAFwP/L9vUE2nyXim5JhHjdp3pOfGhG8MYhYAXDM6DhXroZJ6DZmyVm/XHtbbm1eqaOEiFS3foNd3blDWrfaCYWdqtGlNvTqGztHrZvmXV5llV72od9+rUP5QyVtRrFePR7XCxbOO2lTzfLEazrmU/8Zhvf+StV0r9dM9h/VWQai975nyHgp4Inj3bFZVr4U01vusU1OnU7kvHbTfZ5mee/Ow3i1xy3GuXqufjz2SjnWyRFVxnibkrVNNKy2PAIAr1/aHRrWaaXr6GA2OHAknqE2tR1vM1K30H0S3OA5W1qYj+l3jTs0b4bDnAcCNxKG0vGWyShc9FbvliXl47lPNa7tNDpGqpXljzBrAjeEKC3FicLiUVbxSuQNNYryrUSe4RBUAAACAb5QONey1GgjGKu3HY5Vr5ngqatVKbgMASITORm1bVyt/+lptWZOj4Un2/B751VzxvJrkVNGzy5QWufzAVC19dpF5xqeq6g8jLqUYzzpmraPl2tQkORdu0NIuKzmUuniDipIlX8UuNfZ26ajTNSp7waP0h+cozZ7VTdsxNZj30R1zlJvRtVPTOWWZlt5h7jTVqzm6Eud4qe6dvEBldS266Z5leu6JMfYTAABcgcvkev9DLggAPbttmoqsUXFOV6qyoXuiEB4Nx1mwnNFwcENJfCGOxfH/0/DR1h2vfGeDcwAAAADgm+FMvQ4eMtOsbKUnj1FmsDGhRo3WKZIAAFwh34FyVXc6VbQwR85uZ93HcKFFjfv9UnKO3FaBSrQ73JqabKZ1zZfOQI1nHaPlo73yy6mpGSn2nAgDUuSe7jR3atUc+1RX874+1bzwvJqGLtKivGE9n+36V3t0tr+/SYNC9yIMkuPvQ/f+56+h6SWD5Hpgjp6rOqJfb5ujtL/nfFoAAADg6+VQWm5oVJyGn+2OOpEtPBqOW4/OSmU0HNxQrk4hjv7HOvHGcOrbduJ80QW/fMdrVLY8Tw9ljtZdd5qbe5zmrqlU8xl7maAO1T1tPX+3yo7bs7rxqbrAWmaF6s7ZswAAN64zNXrciitbPPaMrjpONapqzYJL8efODD1UVKyqI95ul55q278kuMyEksbg46aScfY6o/X4/rZL75W9TtaJnGpapwn283ct6TqEevh9Z2ffbb+Ged/lpapr7e00UgDA18V3ZG9w35476T4lWY0JE2aaf33a/t7lL73bdrRSq4um6/7g/v5uTXh0o2qs/f3x0lAM6CFGqaNFdVtWXIpRmdP11JZaxQoV4RgVzJOi1rt/+gqV1Xm7bmc/YhYA4GprU/MREwt6KpCJ5YvP1Nxppg+kanhoTpRhSkm3pifkC18OKp515FVLsxVBMpV6e2hONNdwd3B64ovYl2z0HdioTUecmrfuEQ3vrcjo1pEaM9RMP25Ri7WdkTo/U+vHZjp0jEZGX6Jr1Hy9u3mZsu647DBCAIAowVzl0XG6N5gLXKZtyu+TZ3+pnsoP5zajdW92gVZXHFNbb6PDnPGoxuQnXdrArLa3431pA/PLs2V66L2erJEvzlFoEtP+t0Q1Z9pUs8S6P07rg4lUo9Zn268ZkUd5toSXt2dEutAh75HIHNH6HvNMrlcvb4zksuvfyMonzXYfvcKM7ZxXTRXFeiwv/LrhvLEl5qX4u3yeqHyzt99Alzz1gjneMe85N/w76CW/vagfObElYe2t9vtG/2arufwl0D9Dp2n+DId0qlw1Ry/9/7k0Gk6hJkYf2wPXuatTiHOmWQ3NZjp+pFKjStvaDizXlEfXqerj83KNn695hfOV+wOp5UCpHntwieouHqwkKXOa1eDtV/Vvemis/qJRteY/r2NWrjJvsecBANCNX61vFmjC9CUqO/CZNHpmMP7MmzHGBKBalT05XT8sru2S4Du+6w7FqAzrjE9zoJhhr2Nu7u+a4DZwmNzW41luBZdIdivXfn5eRsSZn8dLTXJr3veDP+qmH4ReI3+SS2c/MIl1XoG2fUJSBwDXlhbVVZj8Y+BMZabZe/MREzU/2USTXQ0K9k/GFGo0nlBUqjpPu1yT5ph9/kyl6bA2mf192W96bgz0f7pdc7Pzgg2a4RiVm9quxopizZ66IiJHitLuUVlBnjb+3qH0GVZ8SZVO1auqeJYef8drL2T0NWYBAK4+/2dqtTrzrAKZTm/fOre+9MkalC3NFcpNunNoyK3Wcy3yhU9Ui2edC1/K96mZpg1Tcg9FNI4hQ4KxpPVMjLh2areeKWmUs7BE80dcLrq4lPvPc+Tq3K0VxbvVam+Dv61F1cXLVd3pUv4/zzRLAQCuXLs8r+Vp8ooKnXZO1Bwr33hgiN02NU6P748urmxTzfLJmltSqebOYcoO5g5WbmMVLCzQ5OW1MYv5fYfW6SETy9ZXfKiz/zhW+WY9qw2s3VNr8qGI/CQmv7y7lmtBhVeOjLV6d3MfR43rIpHtf24NG+jQsIzQZ0+3RpEzETB9lvXY3PqSR3W2aEfhOD30pMkRW0x4NTmb9Vrum31qqKjRiT/by1kumHkloXyy4T+cynzYLPvwWDlPme0umqjZ5R7z6eJhcsbM6Xp8S71O3jwmlAc+nC3XOStvzNPcn/Xyuv9eq6emmnzzN/a2m/VS7N/AhBml8kQX0oaZPHVb/kQ9vsun5HGPBD9z5i1nzWc2+W32EtVcLAC+pN85caLaW0/X6HH7fcOvk/uAM/ibbexvQQ9ww3MofXqhOX73q/pnexWKLIyGgxtcIC4nAqWjRwXuHL3Z3Ivynx8GSmeNMc9NC2xvsedFOFu7ObD9t2ftR5e0/+b5wD3mNX+44zN7jnH+o8DGdPM+6c8Hjp2350Vo2THJvM+YwMbfxngSAHBdOLtvsdnXjwos2dc9dnTzn3sDS6z49FLX6NT+/qpgjLlnbnngRLs9M+yvfwrUrp0WfI8HI2OQ7bLvH37PxXsDMZfw/CLwL/s+C7T/1X4c9m+/CPzIWm/V4UD0JgEAvkZ/KA/80IoZmz4KRGYZodxjVGBFbey99sVY88SuwMn/tmfa2o9tDjxo7fOtW1SMCvz5cKA4mPMsDuz9d3ueLbzePVGxIhyb7km/L7DkV3+y59rC8WX084HG6DTpcjELAHD1eXcF8qx98YatgVenmekD0wIrrPsvrgr8KMtqTzPzpm0OnIiIJX3JicLLFL8fihjxrNOnOBFeJjqP+e8TgVLr80wrD7SEc58+vN75ll2BFePMMtZy4du4xYHKP/Stra8vnxMAbljh/fC0aYG8GG1i5/9tV2CJlYuMXh6o/bM9M+hsoPal8sCx/7Qfhv21PdC4wYpVk7r1/Zz3bA3lPNNKArVReU2g/bPA7tqIPCi8XRG50Z/M/rynfKqvrl7739nA3sXW92RytujvxDjxUqznzHf4hPVdjQn8aMeJbu2CZ3+zN9AY8VYtO+xte+mjrsua7d4bfJ3Y/W2XdyJQuX5voKXb93EyUPmItd2rAvVRz4U+z6TAg9NmBf6lNirf/OvZQOOm0Lb+8Gddv8fwd2it1/0znw+c3Bn6G9/5k4NdjyHiyIn7395q92l2OSY5b37Poc/6qseeFWY+Z4s3+ksDcHntgfpVoThR+vH5wPnf2n3/Zn9PTz5uRFc4Ik6N/iU/T7PDt+kZuit7iarPjdXT1bs0L8bYt4OzlmnePYPtR5ck3eNWjpn6Pm65VE3tGKOcAqfUuVcNv4+qYLWudb3HJyUXKid8pioAAN20qHpLrfwaq7Wl85UaPYL5AKeyilcqd6DkfbOml5EO4jRijtZMSVFS9Fk8t7uVbQ1FX3dClzsnCADwVfGr+b1y+eRQ7oQxXc7UGT5+Tuha1zsP2mf1RIqINSUz5TIxJVJS2jL99CfW2t217ilTXad5v02blXObPdOWlFao+ePNVtXVqznWyXiTNujF6VEjHdw+U/NnWHf26oQ1FAIA4NpyLjRSjd7ZrsrvrtX+Q3v001WLVLR8g95677BeL3BJpyr1TJxnvnf8pf9rxbOOOjoubd8Fn2qKC1X1X26t2Tq/90tSRfqiRqsXblRDW5JSgyPJhUZ3G/yXRpU987waYpwxDwCIwymncp/v3ibmMLnD009YeUq9dh+KzHIGK+uJ+UqLvoTIgCSlZUwzd3wm14gcE8fEgRe3y2sypqdL1yorKq9RUopys2LnQ5a2po16wro01KhF+vmG7vlU33zN7X9R/EfLte6IX44Zm/XGo6nd2gUHZ+QoPdxN1lGvX2z1SiNW6qeLx3Rd1mx3zo8L5TTf7r6mFntmf6Qq/5kcDe/2fbiUnp1i7tTqxB9Ds7ryyf9Pq/R0VlS+OWCw0p8MfY++itjfo9c5Uy92+8wOuWat1NIR5u6hXar9IjTXEldOnJD21g59GTzWSFWKdbnMSOZzDh/KZTCB/ktSZr61z/Kpqrpc24Oj4YxVUQGj4eDGdIWFOB3yftqi1vDtVIcGZ63Vu/s2KPf2Xv5LXfDL9+kxNe2v1LbNxXosP08PZS1Rtf10pOFZVoO3XzVHjndtgGht1D4TJFMLsvue4AMAbjynTqjeSqpm5PR8GUPHGGVb1y/t3Kvmq9Rp2XHKo+a63dr22kY9ZRWvZs/SJmvYdwDAtcN/XA37TdaRXKiJVgNhpNvcyrbmfXJQTRGNhkGnW9R8mVjjShlp34vk1YkGX/AyWNn3xMqfkjR8dM+No5k/GBmjIcOhocPHmKnJuf6TobQB4Jpl9v0vboi67IbVwbkw3Ll1MK5OQufg/ncaxbOOkoeYKGXxy7N1idYfcSp/62blBC/d0Qfn6rU6b50aBmbruX1H9Nb6ZSpauEhL11fo/X2vKFc1empxL5e9AAD0XcZE3RddVGNzpk9Tmpl6Pvd27X+x+H1qPdqomopXVbZmgWbnT9eEJbvtJyOcaVbjJ2Y6fpayowsaLsN/vFQLzGv6hs/XG1YxZ1xFOMY10v4X1vLRXvN9OjV/qvuync9+T7PqzDT9wXFyxerruj1F6WbS5ST2/jrnledorapfe1Wbludpdt44zX6ht8Ieh7Iye+g4N99jplWP1XlC3mAhS1fpWfep+6n4FqfSp1q5qkfefw//2q4sJ76y9tbB+t5o6yKYtdq2uebiZTIBXKE7ZqpovJnWbdcOExucC+crq6f9MnCdu8JCnDl66/cf63fW7eh7er0wVR116/TQT2q6XGczkv/TSj02/m5NyV+gx0tKVd3kVfutI5U5Izt4hmk3t43TVHOU4d/VENEAET5Tdaxmjo+qyAUAIJJ9xulwl7PXxNfpCnVadrTH0drdm9P1Wp93t+6fXqDHijeqcv8J+Qa5lDZlmn19aQDAtaKjoVrVVoff6Vc1O2207roz8jZZm6zGZXlUZV3gP9J/nVSzmVwu1nTXIZ/VSNhZqbnd3i90e6iXxtEh347dcfq//ia0FXGNcAAA+GpMcistVmejY5Tck6w7Xn15NjhHjpsvXyjT3hla2PG3oRgQzzoamGQX1/TiL+cVXGvgoGDM8+1frgUVXrkKS7RoVN+jYOs71tnvUs5PSrqPnDDYraU/mSnHqUqVHeg+Dh0AoJ9MnhK7MMIYYOKANT191mQnYX61VizQ/fdM1uyiJVq/ZbeavO1yfn+scifF6MX5j5NqMhOrYOLy0SfC7zdrweJKeZPn6OUdi5TaQxFO2/4lMXOlu+4sNdmZ7etu/+uiTSc/t17frZTbQ3N609EWinVNJeNifEZzuyfGSezHS2Mve+cS1Zyxl7Fc8Knh2Tzdmzldc4uKtemXe3XizCC5fjBNORm99a2NUfJ37Lsx3PQ31r8t8sUoXnE5e/y1XcxVfW3hX1ucOXGC2luHz9qsp8cnybt/nWZn3q0JT5aq5njc5U4AgpKUVbBIoT3MWBXNsIrpgBvTFRbiRHA4lbawXG8UuOQ/sk7PvBNj4LcztVrx41I135Kjp998T79t/li/3rNTb29eqaKFs2IX4phDxLGTxprpbh38jR2cw2eqjh+rdKroAAB9MMjRt0ZhRx+X6xO/R9sWr1DNFyma99Ie/drEvd/Wmri3bYOWLixUpnXSBQDgGtGhpg/qzTRJrjtSNDzmzRVsWPbta1RrjBMPhgwcZN/rp2S3cgvnBy/J0dNtZM9tmQCAb5LvDAuOPBAuZOnOoaRgR+Rxnbb7gZL+IdSp2OzruSjlrM/qpHLL9Y+hx/Gso6Rvy2m998c+9bjWl6GOznSX1bTuUXVJo6yuRm95ge6N7jzLXhfsmFXTOk0Izgt3mHp14jfWO7g1YngP38L305Rppp4jzfGf/Q8A6LsBN9l3pLYDy/WjLcc0ZMpKvfXeR/rd74/o3aqdoUspPhhrpM+Qvra9XeQaqVSr2ON0o+qaeo5Xju+6Y+ZI8wpHdisw+lra/3rkkKMfV3NInRTrM0bcMoZdOnYYPDL2MoVuDbtY0OSX52dL9NSek0opfEXvNnys3zUe1ttVb+i55Ys0/4obJh26Kd6rVUSv15+cOJHtrQNdyt10RL/e84qWTkqR/0il1j86Tvc+ul2tjMoHxO+OMXrAmqa7lUY/Pm5giSvECXIotXCl8pNNovxCiapP2bNtbf96UE0meGUtXKbcUc6uByEdX4bOqIkhKTM3OCxv3QfHglXZHb+pUbV1zchpY/tXYQ0AuPHcPChYfd3cGmOI3Qg+7zHzr1OD4uxDjan1Q1WaWOh8dJWKMlxR1y3+Um2Xv1gxAOCr8sVB7T5kpiMWaUvVTr0d81ahldbwuqfLVRN5vZABNwUbRJv+LebF9UP+nz3twqFB1tl651KUvXBR8JIcPd0yo0cLAAB8M92arOHWtPkzxU4HOnQ2eCb7GA0Ln9E9NCVYlOI/frKHApkWeT4wk+SR+l740iPxrCOXUjLMpNOjkzEuNWFp/aTB/OvUyOGh3rBvxyxctW9mmWCH4cDB9rxvB9eRzquDyz8AwFens73nNrH/CI3u6RgeHjWnTc2HrCLLbBUtn6nU5K4FKx3h4doi9bHtrZu/H6elW19UzlCvap5eok1NsUsvk0bNjJkjFS0ca4+4YHyd7X/dmDwv2HHVLG/0ZY1jCI9il3TPrBifMeI2I/VSf9htY2Mvs9D8zS4u1KLGX5qjjeRCrVzoliuqM/zs2d4aJs/K/xf7bjfWiD/WNOJYJYL/v3v+C4S+f4dSvhuuqokjJ74K7a1JQ93KX1+hXx99Ty/Pcpnjp1f1oxfqI0aJAgCg/xJciGMMHKNFq2aa8OnRps1dL1Hl+7wxOI01hLp1HUwrlY8pfO3Oulo1netQ0+Ha4MFDTlrXg0AAALq53a2pVkL3To0aemrs9XtUf8gkick5cvdhyNi+avO2BJP/oUPCDc4RTp1QYw+N2wCAr17rocrgWfqpk92XGnO7SVLmlJlm6lf1B8cuNfDanZ3aG3k53Uh+k8Pstu9HGqbUDJPTdNaquc/XsQcAfKMNGCX3LLPv//SgmqNOYAvqPKHmI2Y6wq0R4T6qpDG6zyoEbd6rpljrfNqofSa3cE51h4p8LPGsY+JcWoY1KvUx7TsSoxfrQosa9/gi8qZU5ccsXLVvLy0Ojf4zerFeCc6bY4+G7ZQreKdRTR/H7qVF0IkAAFwPSURBVOIKtxM6bh/W8+VUAAB9c6BRzTFH9zB5Su1u869DOaPDlw7x6TMrDmmIhnTrxvHL86/WKKJRbh+jB6xRWHpre+tJ8lit2bpW6QO9ql5SqLLmOEsfvsb2v+6SNPIet5m2qOpQz5caDktKGRmMj01HQieiJ8yZk2qx/u4u87cMzbnkQnh0up60qPZoDxUtpw5rnzXkXeSxSoQa8zlipsWdjap9xzwzcJrSLh589D8nvqrtrQ6n0pevVL65699/ooeiaQAA+ibxhTiGI32RnssywbPpeW2qu1TF7DQHQ5YP6qMC8Rc1WrFmr/0gttTxhSZNr9eHhw6amzQ8f6yGxzvsHQDgxjEgRTkL3XKYGLJu2XZ5ojPaCz7VbShR1WmH0hdO6xZbBn83NJ5pc8sfYyeRtw5TcImPW3QyaoHBrhTzviYcHvqwS2GqOo6pbFmpWi4OFQsA+FqFOxbl1tRer5Nvcp20zOBonV0aeJPu08wCs17nbm3aUNt1n2/49izX6gP2gy4cSptaaOKIT9ue2aimyGv52zpaa7T+l6ELeVyxXmIWAOCrEt73e7TJ5ARd+hut3OTZjcFRoLPyJ0YUhiYpM2+OeexR2Uu75Y3sTO008555Vb6B2XpyRrgT1RLPOmatzEdCI11vLVX155HBwm/mFWubyZuynph5hW1ySXLnzQ/GpIZni1Xd2jVJ62jdrRVPWx3DLs3Pin0hewBAP5g8peyF2HnKCqswYsQy5V486dmp71mjo6lB9VFnGfSY1wxI1SOreml762hR9YFecprkHL3485XBYpyqBQUqOx5HsnKF7X+JNjirUPOGmu/stWKtr+te8NJ2ZLcawvnfbRM1x+pPO1Si1bta1BF9GeQLbWouL1VdjHyxVyb/S7Fy16Z6fRhZnHKhQ81bl6vsj+G/eWyerSXa8UnUFxls09xoji4cyv3xtIhjlUv875RqU/RnNt9/TfFyc4wjpS6eqUvn2Pc/J05ce6tPnqM++aO/7/N+/V9rOiI8ShQAAPH5VsCw7/eDSdjvLFCV5uit3y+zz2aJcrpGj09ep6aBbj33q1eUZQ1zayX6+Wa9UyblHjpW2eNNyv15vWo/8Cm1ZJVcJetUlb5W77+SEyPA+VRdMFmbPrHup+rpfRXKZXh2ALjute1fogkljXLcmiJXD9nPxKd3Kn+EuXPGxJ5sE3sKKvS7JyKjk1+e1wq0oNw6YyJJrgcmKvP2JJ0/fczEII/aOh0aXliuny9MDSZyXfiPaVPmgmBj+OCMacq5rV0d31+up7PCG+NX8wv36bFdfrONbuVMcan93Pe0bFW2BltJ5vLpWn/Eei5VmePGaMi50HsOmrFWOZ+vU1lTL7EUAPCV8B/dqH8q2i3/+A369aZsEyl659lyt+ZW+JW66j29NcNuejS5zrZ5hdrR6pducSlz/Fi5HD41H66X5/x9em5xslY/Wyl1i1Em0zGx7iET66wzUQePMnlSmlM3dfrkaWpU86kOOQor9FsTo8LCsTH/zY+1dJQ9M0L4+fSSw3p5SmTw7CVm2UsAAL4aF/f9Awcr1eQnaQNPq+FQvbznespNInKacJxRi2oONJp8xmViwi4TE6KzmXjWMWtZl2NYvF2tneHcSWrZv1dNZ/xymTj2tolj3deKIZyfxWzr88u7a7lmv2DHv+HDNMTqFL3wpbytbWZekjLX79RPJ/VeINtzzAMAXNwPP7xWa754Xus9zlAsuKVD3kMH1WByDd0yVs9VvagsazQZm/94qWY/WinvxTY0hZb/r5Fas8yl9SaviZVrdGl7u8et9BFmH376mPYd8KgjMg/qof3u0vv2HKN6F3/7X+/xpE01S8ZpfZNba2pfUc7FSzqGeLaMNvlhjOdO1+qp/OLgCRxWu6Y7w7o8VIcdU8d0XT6i7+xiPnmL1PF5o+o/ajHb7tZzh17RxebIPup2vHHL2VCOevNMrXnQq/Wbu+eV4c+ztMSlmpLdardzVOtv2dv3eDFPfWatvKXr5PlOqA8w6ZzXPsaRkkzO/csN2XJGFUL1KyeOq73V7tPsckxizzPfd1q6W6nJN0X8VuL9DQIIifV/DrjxXJURcYKSc7T0JybMdTZq3Rb7WooDU7W0/A0tnWQC9H/Vq7r8F6r/c4rmv3HQHNwMC67WM6fGPhgaUUfjZymbIhwAuKH4z7So9dPYty+jz1zoxqHUhTv13ptrlf+AU+0f7daO8u2qaurQsAfm67mdh/V2jCQ8yDFGS3++VrkjbgqerbLjQIuJZ5FLOpS2eJfWzEjVTWcaTWyrUeuApNBrDXAqZ8MuPVcwVs7zHtX9crv2/eHbyn5mj95+4j79XXB9AMDXy68TR/aaf6XMB9yXLcKxhEbrlDzvNerieX4m1ymqOqjXn8hW6k0+NbyzPRgzhmSV6O19Lyqrl3THOeUVvb9zg4lRZqH/U6sqE6N27D2m9n9wa+lLe/T+jy81H16ZXmIWAOArFdr3mzwjdZC8Byq1451jUkq2lm472ENuYuc025Ypa2i7GoNx5jMNuXuRXq/d00NHUTzrmLVGLdLbv7La71x27rRXLbfcp6Jth/VuX4twLssh1yzzHex5xbzPKA0K53tnBmnkpGV6ec+ByxbhAAD66G+GKWezyVXyhsl7yMSC8t1q/ItTmQUbQrlKRBGOxTFqmd54w8QOEyd8H5g48MvDOvv9Qr2+7xXl9JjXRLW9eUJ5TfW/+pVWsFZvzbp8TmO971tvzJFLXlUtLtC2fo+McwXtf1dDcrZ+um+PXjY54sib7Ryx/KBOu8aaPG+ZxkZeL8rqO3vncDCftIplQstuV61XGjnDfH+1/S/CsTinbNbbG+Yo8zt+eazjDTtHfbdqme67TPL7d3ebv8fOVRqrYyZ3NN/jAa8GpfZ2rGIblqOXzXHEHNdJ1Vq57Tsfqv3WscrfsFP/O0YRjqVfOXHC2ltdmlhivhvz+2+xvhvzntbvdeSklb0eJwEA0Fdxjojz9QhV1B5T7rYP9fQ9BEEAAAAA3xDHS3XXo5XdRrcBAAAAAOBa0eMIP5dxcUScHkZuBQDgRnP1RsRJOJ/qf9UoDZyp7EsXkAQAAACAa563pTk4zbzdFZwCAAAAAAAAAK5P35xCnE9rVfWJ5CyYqNQYQ9cBAAAAwDXpQosaqlrMHbfSUvty8SsAAAAAAAAAwDfVN6MQ54JPNT8rl29gtp6ckWLPBAAAAIBrQ1tdqXYc9cl/wZ4R5veqbn2xtp2WnA/P0cR+DO0NAAAAAAAAAPjmuaYLcdrqivXU8xv1+OTpWn9ESv/JImXeYj8JAAAAANcKv1fbiibr3vHT9diaUm177VVtWp6nCZnTtXq/V46MldqycIy4yC4AAAAAAAAAXN+u7RFxLnSo4Z3datYY5b+0Ry9PcdpPAAAAAMC1Y3DWSr2+aqYyk6WWA5XaUb5d1R99qSGp2Vpqcpn3N8+Ua6C9MAAAAAAAAADguvWtgGHfBwAAAAAAAAAAAAAAABCna3tEHAAAAAAAAAAAAAAAAOAbgkIcAAAAAAAAAAAAAAAAIAEoxAEAAAAAAAAAAAAAAAASgEIcAAAAAAAAAAAAAAAAIAEoxAEAAAAAAAAAAAAAAAASgEIcAAAAAAAAAAAAAAAAIAEoxAEAAAAAAAAAAAAAAAASgEIcAAAAAAAAAAAAAAAAIAEoxAEAAAAAAAAAAAAAAAASgEIcAAAAAAAAAAAAAAAAIAEoxAEAAAAAAAAAAAAAAAASgEIcAAAAAAAAAAAAAAAAIAEoxAEAAAAAAAAAAAAAAAASgEIcAAAAAAAAAAAAAAAAIAEoxAEAAAAAAAAAAAAAAAASgEIcAAAAAAAAAAAAAAAAIAG+1fblmYB9HwAAAAAAAAAAAAAAAECcvhUw7PsAAAAAAAAAAAAAAAAA4sSlqQAAAAAAAAAAAAAAAIAEoBAHAAAAAAAAAAAAAAAASAAKcQAAAAAAAAAAAAAAAIAEoBAHAAAAAAAAAAAAAAAASAAKcQAAAAAAAAAAAAAAAIAEoBAHAAAAAAAAAAAAAAAASAAKcQAAAAAAAAAAAAAAAIAEoBAHAAAAAAAAAAAAAAAASAAKcQAAAAAAAAAAAAAAAIAEoBAHAAAAAAAAAAAAAAAASAAKcQAAAAAAAAAAAAAAAIAEoBAHAAAAAAAAAAAAAAAASAAKcQAAAAAAAAAAAAAAAIAEoBAHAAAAAAAAAAAAAAAASAAKcQAAAAAAAAAAAAAAAIAEoBAHAAAAAAAAAAAAAAAASAAKcQAAAAAAAAAAAAAAAIAEoBAHAAAAAAAAAAAAAAAASIAbpxDneKnuunO07trisWcAAJAYbfuXBGNM2XF7BgAA16IzNXo8Vk7U03wAAAAA31zX6nH+tbpdF9rUXFGsuZlm28z23V8etX1tx1S1pkD3W9t+Z4Z2fGLPxzeAR2XW321JjdrsOQAAXG1XVohzrkV1rxXrsbxxujd48GFumdP12JpXVfe5314IAID4hYtcom/3ZufpqS018pyxFwQAIMFayyeH4s7Tteqw5wEAkFBnrE69BXrI7vSzOvYeKnpVzT0Eno7WWpUtn253At6tCXkrtOOIT721wsWzjjpaVLdlxcXtCuZf5Y3yddrP90FH3YrQZ+qt0yvqfax2xae21Kq1l8DbdrRSq4vCn2e07p++QKsrjqntgr0AAAD95pdna6EeMzHIe1u28gtnKnWA/ZSl06OywgUqO+CVa9IczZsx0n6iTXVPZ+gud552fEKfGIAbULi40r1Rzb3uBn2qLrCO3wtU/YU9C7jOxV2I09ZUqtmT87S6vFbNZwbJdUeKhpvbYL9XzQe2a/WBFntJAACunOPWUJwJ35I6WtRQsU5zs6er7DiJLgAgwfzHVFPhC90/dFD1FH5eVR2f1wbPLt3B6HIAbiC+/St0f/YClX3wRzlGz9S8wvma97BbQ/7sU1uMghffgRX6YV6xqj5qV+oMs+yM+zToTL22PTlZs7d4YhbWxLOOTtfqqal5Wl3xodpTre2aKffNPjW8tkRT8kvl6Usxjt+j7Vvr7Qc9OF2jx7Mj32eOsoa2q7GiWLOnrlDdaXu5i9rUUDJdE4pKVdcipVmf5+Fsuf5yXHVbFmhy/qt92zYAAKKd2quNFV5p/Ab96s0NWrpwpV5+NNV+UvLuf15Vp6TM9Xv11vplKlr1iuaNsJ8EgBvZrRM1Z5ZD6tytbfvsdrQY/EcrVfaJ5Ji1SDm32TOB61x8hThnarRuSaVav5OjNTuP6HcNe/R21c7g7f3Gj/XrqrXKGWIvCwBAAqQt3Hox1gTjzW8+0v6XZsolr6oWl6jhnL0gAAAJ4P99g2o6pZwpOeZRo/Yd6bkxAVfOe6BYZQc8arcfA8D1ruNQsR4qqdeQKWv1du1hvb15pYoWLlLR8g16fecGZd1qLxh2pkab1tSrY+gcvW6Wf3mVWXbVi3r3vQrlDzX70YpivRp9gkI866hNNc8Xm/zKpfw3Duv9l6ztWqmf7jmstwpc0qlKPVPeQwFPBO+ezarqVkgTyXqfdWrqdCr3pYP2+yzTc28e1rslbjnO1Wv189Ej6fh0Yv9ZZa7aqV8f2qOfWp/HfF9vvXdQL89yyd+6Xf+yixMDAQD91/aHRrWaaXr6GA2OHAknqE2tR6344lb6DwaHZl00WFmbjuh3jTs1b4TDngcANxKH0vKWySpd9FTslidmouBTzWu7TQ6RqqV5Y8wawI0hrkIc7we71WSmuctXKWd4UmhmhKQ7crTm4UvVwgAAJNwAh5wZK/XT5SlSZ61qmrjCLwAgUTrUsNdqIBirtB+PVa6Z46moVSuXvAAAJEJno7atq5U/fa22rMlRjKa1KH41VzyvJjlV9OwypUUuPzBVS59dZJ7xqar6w4hLKcazjnWmark2NUnOhRu0tMtKDqUu3qCiZMlXsUuNvV2z8XSNyl7wKP3hOUqzZ3XTdkwNVuPiHXOUm9G1U9M5ZZmW3mHuNNWruUual6SxbxzQT2ekKCmyk3TAYKX/uFCZ5q634YS8obkAAPTdZXK9/yEXBICe3TZNRdaoOKcrVdnQPVEIj4bjLFjOaDi4ocRViNNxJnR2ieNvqVkDAHy9XKnuYAV10+eMVAAASJAz9Tp4yEyzspWePEaZwcaEGjVap0gCAHCFfAfKVd3pVNHCHDm7nXUfw4UWNe73S8k5clsFKtHucGtqspnWNV86AzWedYyWj/bKL6emZqTYcyIMSJF7utPcqVVz7FNdzfv6VPPC82oaukiL8ob1fLbrX8+Hpn9/kwaF7kUYJMffh+79z19D0xCXUrsUB0W4xSnr4+hTX5fCIgAAAABXm0NpuaFRcRp+tjvqRLbwaDhuPTorldFwcEOJqxDH6XIHp02/ufxQtK3lk3XXnaP1+P6eRirwq/mFu80yk7XjU3tWWEeL6ras0EOZo4OvcVfmdD21pVatvWTUbUcrtbpouu63lr/zbk14tFhVXU+fAQBcTwY7NdK+28WFNnn2l+qpvHG6NxgTRuve7DwTR2rkOWMvE8uFDrXWRa6XoYeWb1ezWadt/5Lg6/Qc0wzzvs0VxZqbbcW2PsQuvy+0nfnh2GVtZ4FWVxxTG2fbAMDXwndkb2gE0En3KclqTJgw0/zr0/b3jvWY/4RjRNlx86A/seBMjR63ltniCT4M5jOPRsagUtX1lgBFv5d7nOauqQzGrYQ451WTef3HIuLp/dNXqKyuRR3d4pRHZdYyS0KXEunyWcLbFRVCPVtCrzm3IvS46tHQY+sW/C4B4Lpj9ttHzD6/pwKZWL74TM2dZvpAqoaH5kQZppR0a3pCvvDloOJZR161NFuRLlOpt4fmRHMND7UJnvgi9okQvgMbtemIU/PWPaLhvRUZ3TpSY4aa6cctarG2M1LnZ2r92EyHjtHI6Et0XU7yIN1k3wUAdNWvXCPe9qozHtVsWaHZ4fzEep+iYlUd7yWnuchv8oPpofd6ska+ONvFOk41qmrNgkv9SuFtOOLtlsOE87gJJY3Bx00l4+x1lqjmTJtqllj3x2m9lSCqUeuz7de0cx5LKKexlrdnRLrQIe+RyD6rcPtkvbwxksuufyO7f+voFfZv9Suni/o8UX10vf0G4s6Jw/rZHxj+O3f5rV0uf47Fft/o32x16+V6PwF0MXSa5s9wSKfKVXP00v+fS6PhFGpif4/tgW+4uApxBo+bqdyB1rWkC7Xgtd4PvIZnzQlWwDUd+jDqus42/3E1WGfojJijrIgGCP+n202QzgsGdY2eqXmF85Wb2q5GE7xnT12hum4HNeYg7bU8TS4ygdbTLtekOWadmUrTMb26YJo2vd/P4AsA+Ebwe1vUbKbDb404M/J0vdbPGKe5JZVqPOdU5sPzTUyYo8x//NLEkXWa+2Ceth2PkUxZZ28uH6fZxZVqODNI7hnWehPl8v5Cjz24RL/4t8skYO0ebcufqMd3+ZQ87pFgHMq85awarNiVbRLYiw3cYSahXz45uJ3NncOUbWJdKHZZCeACTV5eGzt2AgCuIrMPrvBIA80+PM0+T2fERM1PNjFnV4OC/ZO96XcsCGsP5TMrKnTaOVFzrPzngSE6+0GlVueN0+P7Y3R42vHusS318v3jWOWbdfIfcMp7oNTErTzt+ORyG3s5HpVlTtfj5vVP3jxGuVacejhbrnP1qirO09yf9Xxixsn9S4KfpeP/m2Y+y0ylJ3XIY23XjI2hjmHb4FQr9s1X1ojQ49RJocfWbWTXK5UAwPXB/5larc48q0Cm09ulw6nHzq0vfbIGZUtzWaPRxOLQkFut51rkOxeaE9c6F76UzzpJLm2YknsoonEMGSJrrdYzMdrZTu3WMyWNchaWaP6Iy53r6lLuP8+Rq3O3VhTvVqu9Df62FlUXL1d1p0v5/zzTLNVHnx7TB2biyEjt+zoAcMPob64RX3uV79A6PWRi2fqKD3U2nJ9McpkUqVZlv7nchQP98u5argUVXrMvX6t3N/dx1Lgu/Gp9s0ATpi9R2YHPLvYrzZsxxoQ7sw1PTtcPi2u7FPg4vusOLpObEYqXzgx7nUK3hg10aFhG6LOnB4ddcyp9VihXmZfRy6hvYZ0t2lE4Tg89Waq6FhNeg+2MM+W+2Wfywxqd+LO9nOWCmVcyXROKStXwH3Zb5sNj5TxltrtoomaXX/6k+Njiz+n077V6amqeNv7G3nazXor9G5gwo1Se6ELasDhy4n73Bx4v1f3W3/mDP+qmH4SWt35rod90gbb1NRc+XaPH7fcNv06uyamt32xjfwt6gBueQ+nTC82xuF/VP9urUGRhNBzc4ALx8h0O/Mu0UYE7R5tb+qzAv1SfCJz9q/1cF38K7H7EWu6RwO5/t2dFaH9/VfA1flT9J3uO8efDgeJ063UXB/ZGrdN+bHPgQbP8PasOB9rteRbrde6x5j+xK3Dyv+2Ztvb/f3v3AxxVfe///9Whs37l3jDegdZ7s2OH5ecMqR0C2gZxstKagJOIhYAS/jQ0/iGl/NPyR/mjXEJTEVSCCKI0oE0T+RMsBL5AGCHRYjJF0layTnXzrWWZa5eWSqYM+d70sl+Z/X3O7tmw2Wz+LatFeD5mlrM5e87+Szjv8/583ufz8ZQFH7Kez3qvLzbZawEAXwbn9s0LHb/n7ztnr4ny2Z+De+fFxJjPPgpuDcWnicGf1kTFFlt7TMhcFqz9u73S5t02MfRaD6x9t1NM+/Ov5oXiTLz3EnmPD0ycGnxoW1PwQod9LwZP7bD3ffJQh9hl9gzWvFgWPPFX+8eIzy4E61ePNM85LrjVa68DAHwx/lAW/L45Zo9a+545gl/m3TYudKxfXNPxSB6RcCz4697gfGv9xInBaQ+XBZtinv7iH3cG54dymUXBmui4FRXvSk/E7PRf5jmtfSaWBb3R7yPyWrE5UVfrg03BipK9QW/sR/7sVLAilOOZWNrhsaZgqfU8mSODoyauC3Z4W+2xbURw2o5T9srLml60nm9EsPR9ewUAXKt8O4PTrGPl6k3Bl63j+D0Tg4ut+y8sCz6UEz5O3mGOoU1RbVvd5kS2yDbL3woffBPZpz0ezNtrMpUuRLaJaZcL/reJAdbniY49vXi+i96dwcVjzDbWdpHbmHnBij9ER+EetOeFE8mfACBa5Djc11wjgfaqi55NoX6bOyYWB2ti+4EufBTcVROVa8TJP/5sYlJX/Tu91d5HFOezWrGiZqXd7rftI3vlZd3HzXN2nJkX3Bv7nRjhXCb2MfMdPm59VyPj5Ifm0V/vDdZHvVR7m+SL73Xc1opxoedJNMb1NaeLfJ5xody2U9vqZ+eC9WvD7/X7P+/4PUa+wz7nxAn0BwY9vwz+dN9Hnb7X4B9/GXzIeo3Y7SO5aodzkovm7zn8WV/22KsizOf0+mK/NAA9uxCsXRaOE6XvXwxe/M2zof/33zfH+z6c3QPXjIRGxAlJzdaK3Uf16uO5Giqvqp8t1L3fnaaS/bHD2TmVOy3bLD2qOR5bWd2qhqM1ZpmtKWMvX6HTvGe9Drc5lL92nfJusVfaUjKKNHOsFDhcq8b2glSvqjbUKGCeZ2XxFLn626ttKcNm6j/nWePyAACuCZcCajldr23zTdxpkFyFi9rjRWvdL7X5tIk+s1drRU7nqz+tmPCzx01MaKtRxZGouNRaq19u8pn4NlfPLHJrYMxVN85J6/SCNbRiN3zOKXrhkXSldNjXIdfUpVpgXel/ZKdqPgmvDRuonMdnKiN2SMZ+KcoYPdHc8aupmTFxAOCLE1DjgTJz9DW5yL0jO1ypM3RseKTPuh2H7Kt64ut7LLCddir/2ZlKjxrgzeK4dYqWWHFLtdoVFbci8S79yXVakBGz0y15mltoYuDpatV/bK9LSLoKns7T0JinVz+XMnPTzJ0aNf0pvKqDtjQtKF2oDm/LxLbMaQtD06M0H/cy4huA69f58Eg12r1VFd9Yqf1H9uj5ZXM1Z9FqvX7gqF4tdJnjd4WeTvDK99Z/9H2vRPZRa+vl92eNLLq8SJV/c2vFppndT0kV7ZNqPTV7jepaUpQeGtnaupo9XQP/Ua/1Tz+rui5HkYtijSBQMt/khQ5lFm/Uo/Hn4QKA61sfc42+t1eZOPDCVvlM/rCkdKVyYvp0lJKm/Jyu+2daGtbocWtqqBFz9YvVnft3eieqj6i082dVP6dyli8Nz/TwWnXPI51eocDxMq06FpBj8jpt6ZQfmm94dJ4yIyOARtokhy3V8/NGdtzWvO+8HxXJab7dfQ1ee2VfJJjTmd9p4LvLtCS2bbXfQGX+JPw9+svjf499zYn73h9oDJuhFePTOn2vutWtXGvmjcNN5hvrSas+DZ1rpCvNmi4zmvmcQwfHfmkAepairALrmOVXZVWZtoZGw8nWnEJGw8H1KfFCHIsJRhmFq7W97oBene02p2deVRdP6zS8X0pWfigwew7Ud2y0Pl+v2iMmBE/NV9ZN9joTHpvqzFb9pyh3VLz/likaenvMCcIZrxqtgDk5L+p5OnKlDbfvAQC+jC7P0WxuGXeGhpndfPyihv5go7bMi5zIBeT5rVXgmaaCsVasiM85eqIyzdLT4LncEeht0mGzGFqQ3UXDsUNp3xpp348vM+duEwvjcSpzgrWvR77/ipOhBvxqPl6v6vKXtd6a27hgku6dv8t+EADwhYlMm5tapPvsqZLa3eJWrrXug0NqiFdIY0s4Foy+T3d3MVe2M3OiMszS87HP7vSMxDu3JtwTfwIO121u82+SCjrP++Q5XqOqV17W2kXTNH3aGE1/rptG4NS7NTy2IdNyiyv0OfSxX+dCKwDgOtZ/il5YHTPthtXBOTvSuXUooU5C58C+dxolso9SBym8l4lJm+ar5JhTBZvWKS80dUcvnK/VU9NWqa5/rp7Zd0yvlyzUnNlztaCkXG/t26h8VeuJed1Me2FpOaHNRZP0xP5zylq2Uy+M73whBgDA6FOuEaW37VVnG1X/gVmOnarceHlANwInSzXLPKd/6ExtsYo5EyrCMU43qbaHPiI5RirXusiuba8aQ1Wxnx/ve3vN9+nUzAnuHjufA57GUJtk5gNj5IrXJnlrWqgd0//+FVzQ0NeczrzrnKwuOs7N95hl1WO1NckXp2i2bzlxAv2BUVpPe9R4eJc2v7JGTxSYz5U7VWutaTZ7ZaC+ebuVT9do87rq9mkyAVyh26ZozlizPLxV20xscM6eqZyujsvANe7KCnEiHE5lFG3UWzU7tGS0Q61HluvxTVFX7kROcD6oVsNpe53hP7JTddbJyP3RV5u2huejbqvQwxl2h2vM7cHYE4S/nVKjWQx1OXs8qQEAfDk5bk7T0Nvs26hcFTy+Uq8feFfbO4xeE7mSYbic3TUA3zxEoW7Lcxd0IbRCavlL+DqJ4bck3njrcsZPMy3/66vhCOVvib58I6Dm8ln63qj7NX3OfJVs2KUG3wU5v5Wt/HFdXykEAPh8tNZVqcrq8DvzsqZ3ykXu11qrcVkeVVoT/Heh77HAZnKZLvc0cS6055lzJtJZIvGuXiW5se8zfLsrGQWd1igDP5umu7Im6eE5y7X2jb1qOjtAru9MVN7obuKla5AG2Xc76Pe/wsszF3QxfA8Arl/j3MqI19noGCH3OOuOT5/aVYuOG3sulLnQFt7Y8S/hWJPIPuqfYhfXdOMfF8PFlP0HhGKTf/8izSr3yVVUrLkj7Ofphebd1tXvUt6TxZ1HThjo1oInp8hxukLrD3a4pK9d6wdb9fCEWdp2eoQWlB/U85NdtAkCQFf6lGtY+the9ZdTajALq2CiT6Wdv1+nWfMq5EudoZe2zVV6F0U4Lfvnx815vn1HqcnObPaIcz31ETldViFIQK0XEqh27bUWnfrYen630m4Nr+lOa0s41nW4CDH6Nmq+qkJbRDlZGn/bO+ar+qy9jSXRnE4jlfp1+24cN3zV+tcrf5zilb7lxAn0B1rO1Kpk2p363qRC/Xj5GlXsb5J/gEsZ4ycqs7dFwcbQqeu0ZGyKfPtXaXrWnbr3J6WqPsn4rcCVSVFO4VyFjzDZmjO56wumgWtdcgpxIqwhBteVa85gyVdepkNRAT99rDUUlVeVdZGg6VfDAXOalJond7xhY1Pdyi+aGRqWtqvb8Jh4PsBByg0A16qM2Zu0vXJH+LZ5tRYU5ik9tavjvkOOeFeQxPqXGzol5+2N0J+XqPfVcnCRHtpwQoPGL9XrB97T735/TG+azxcamv4BRnIDgC9WqxrerjXLFLkihZ+dbq5Qw7J/X72aO0zH20e9iVHx9LvBvhORrpw4eVL0zf2NRONaQJ6fz9cTe04prWij3qx7X7+rP2ri8BY9s2iuZmbFH4kHANCDrw8Jjw5mF7J05lBKqCPypM7Y/UAp/x7uVGz0xy9KsZzzW+1tbrn+I/xzIvso5WtyWq/9vr/jiNbRPg13dGa6rKZ1j6qK60MX4vnKCnVXbOdZ7qpQx6waVune0LpIh6lPTb+2XsGtYUO7+Ba+laEss/Qca4y5+j8g3+7F+n7hy/JlLtWbB7aoYFifun0BAPFE5RqJtlf1uX/GNVzpVrHHmXodbug6Xjm+4Y6b6zxaNLxTgVFv34PjC+lL6mX7pC19XLzPGHUbPeTyucPA4fG3KXJrSHtB0+ed0zl0Q8K5rb2M6Et/YMCjzfMWq/qTND364h690/i+flNjtxfPLlKfPlZ/l/LXHtM7ezZqwbg0BY5VqOSRMbrrka1q7m5UPgDdu22k7rGWmW5lMBoOrmPJLcSx9EtTxnetO/Xy/SW0Juy2XJMYS/499eG5sJtrVPmBObkozI2ZAsShAVbF6vk05c42J3bd3LIiV8yYk0TrBKTR1/XJmv6fvQQAXMNMDAm1wTbK1820ITp7KjxP8MAUDQitMOxY1Hyq61jyP591f7VM4L+7ftzvO2H+dSjtG5GssUWNR6xG61zNWTSlU1FRa+TyVwDAF+OTQ9p1xCyHzdWGSOFnp1u5llrD654pU3UX84X0LRZEabsQ6siM6y/hEUAdQyNXskbi3QDdnR8/V4rc8kck2jnpVf0bJlqmFmnpbLdcMQ0n5871POM+ACCOm1MVuh6t8aNwTtJJq86FLmwbqSGRK7oHp4WKUgInT3VRIOOV522zSB2ub0amHklkH7mUNtos2jw6FWeqCUvzB3XmX6eGDw1HpK/FLVy1b2abUJbTf6C97muhfaSLak1w+gdrBJ7pz74r17wdemvtFLm6GD0BABClT7lGAu1VNw4IjXzQ2Bxneqvu/NsYLdj0gvIG+1S9ZL7WNsQfiSRlxJS4uc6c2dn2iAtGL99DOCdzakB7g+DnoZftk7bIKHYpo6bG+YxRt8npl0ccuiU7/jazze+sfaMryenOKfAP+24n1og/1jLqXCVK33LiBPoDm99VxWnzW3xkmeaMdimlQ//ip2pJIFVNGexWQUm53jl+QC9NdZnzp5f10HO1UaNEAQDQd8kvxDGnOa2hStE0OTsEdqeyH3BLZ6pV/6GJlceq5Ve2poxtP1WyDVH6aHNy11ajxt7O5Th0uPKs5d46NcStUg2o4WgShmYHAFzlUpQxOtssvao80vW0IS3v1YauzMwaPbI9gR146/Bwwr6vPn5D9SWfGvZZyWLXqo+diJ/st9WrZrd5pP9EZbSPAufXR8es5SANak+QIwLy/NYalQEA8EVpPlIRuko//X735cbcTlKUNX6KWQZU9Xb8Y37fYkGUg/Vq7CqXqdll/nUoLzQ3vsWaJ98aEr5etY2fU9Pg2VPyWu8n3jRTJiaGRzIAAPRZvxFyT3VIHx5SY9T07e3amtRo5QnD3BoW6aNKGam7rULQxr0dpnxv92G99p2RnBPc4SIfSyL7tOdTJ7TvWJxerEte1e8xx39rdOvQVBvpKohbuGrfXpwXHv3n9nnaGFo3w+xhccoVulOvhvfjx7GAp1FWyY/j1iGXRzs4X6MXi+ulyeu05ZG0cJEPAKBnfco1EmivunWk7rEKI3dXq66vhZap2VqxaaUy+/tUNb9I6xPNb251a4JV0NHdewh4VHvE5GTtcezzkqLho9xm2X37ZERK2vBQfGwwuWRSs7sryum8qjneRUXL6aPaZzWsRp+rROlbTtz3/sAWnzf0/IMHRQp8o5xuUn0XxcS94nAqc9FSFZi7gf1NXRRNAwDQOwkV4njeWKWqk34F4gzH3nKsVOt3mzvD8pQ5OLwuYuDo+5RlTuT2Hd+l+n0myE/OU1anIakcyphQJJfZbvPTa9QQPZ+lrbW5WiVvtM/+aXYZqdxCpwnWu7T+uRr5Y96Xf88iPXXQ/gEAcE1LyfqhHjXxx//KcpUc7pxQtn6wVYufqzfZ2kzNyIpqURg6UY9kmuUHpXr6NY9ao2PJpVY1blqk9X/qvqk3sLtUa2Nf85Jf1csXqcokvunzpiij/Smc+qZ1tanqVBszqgJxCwC+YJGORbk1odt58k3qkZGl/G4amfsWC6J0k8ssthorhy1UftSOzrE/VI55H3U/W66q5jjNtWdPaNuGGiU8u/3NQ5Rmfc6GWr0b3ZDZy5jYV06X1VBtcs0/do7dAHBtibR7ebR2Yak69DeaeHH4Z2tMvHAop+C+qMLQFGVNm2F+9mj9i7vki+5MbTPrnn5Z/v65+snkSCeqJZF9wvlUQao5Hm8qVdXH0XlKwKxbrs1nzHt7fErM6NZ9lSL3tJnmO4gfx1qbd2nxEqtj2KWZOeHSHUvLsUOh4pz8MW6KcACgL/qUayTQXtUvXT9cZh2ba7Vq4VZ5YtOTVq+qDkb158RKzdMLv1gaKsapnFWo9Sc7vm6v9EtT3uxu3oMVY1cXq9LEsczZE68wjvVsYE5Rt+2TLcd2qS7S93XLfZqRY77/I8V6aqe3Y5uk5VKLGstKdThOX1m3rjCn82wq1rYPYr7I1hNav3CNObtwKP9HE6POVS7rW07c9/7Aga5wMW7DkXc7/k2H3lupvNZn7hW/PMfj9HNeDOj/WsthkVGiAABIzFeChn2/1zwbbtfD5eH7KYPTlGoHtsAZr3xWY/RN2Xqm8gXlmMS9o4Aan7tbP95pnUiZQL35XS0ZFT/Y+/fP14OheaYdGjgiW7kZTt3QZgJjQ70aT7fKUVSu38y+nIxbjQibHy3Stmbz3De5lDU2W66bWuU7YpL08yP1zLxUPfWzCqmwXL97PGo/AMBVrcXEg3tNPMgsPqqXxvcy/TlToycKloc6SB03pytrzEg5+9sxwcSQLuNUvP0CPtUdqZX/5placr9XJes6v5fIeyx4eqV8pavk+bqJW2NdSjkf3teKjSljV+uN1blyRiX6gZOlmv5IhXxKkeue+5R1q8Lv8W/DtWKhSyUmbvXpcwMAEhI4vkbfnbNLAXOsfmdtrjkqd8+z4U6TDwWUvuyAXp8cbnpMNBbobLUey12lhh+s1IpPnlWJx9kxl+kmbl2OI1ZeZr+ezH7Hjqq+uUWB0av11ou5lxsPI68VmxN1sb49J+s/UOkmTmXcdE6NR2vluXGKVjzgC8XEgtfe14IR9g5WZ+8dharMXKm3NubFabS0H9cMvf77hfaoCLZPdunhCVaDborSx+Upo79PN9y/UY8Osx8HgGtMp2Ns/zN2vHBoaFGZfjE7PdTJdFlAnlcKNavMq0Ck3UteVR+sV0ubyxyPd5rjcWwbWyL7WPHlZT00b6ua2y7nKd79e9VwNiCXiRXbTayI35oXIxJf4saFgHw7F2n6c3bb39AhGmTFx0ufymfFMBMPskp26Plxl7v4Iu2R0W2RcY1dpu2FtP0BQKK5RmLtVVExx9pvlFuZw8wx/MwJ7TvoUWt0rtFF/nH5dbuOUd2LeQ+h956ii+Y91LztMbGvqxjbU/tji6rnj1FJg1srajYqr31Kx7BwfIrzWId2xjS5R1vTQ7XaMXVkx+2tItkCkytZo9i1929JrR/Xq/Y9r3nvbj1zZKNyOidZ3ep7Tnf58ywodqm6eJcu2P1z1u+yu+8x4ZzY6FN/oFXUs2iSSo6Zre3220Hnw+9twOSVyvt4ldY3xOac8XJVe535vjMy3UpPvSHqbyXRv0EAYT21DwHXh4RGxHGNXalHx40MzfV88bRXzR+a2+lP5UjNVkFxud46Eq8Ix+JQxr1TwsE5tUh5cS8FDXOO36i3dqxWwT1DpP9To8qyrdq294Qu/Ls5AXhxj976UUxC3T9dcyoP6dXHc5V+g191u832u09I3zXJ9z7zfszTAACuE6m5en7fHr1kYsLwG306/IaJCWV71XTDSOUv29J1nArtt0PPFGbLedET2q/i2KcaWrhFByrn6u6eemaH5OmlX23RDNcp1Vhxa/e7unCziY2rd+h/x0kyHSMWasuWhcoxSZ3/7V3a9sZRnftWkV7dZxJx4hYAfEECajq21/wrZd3jVk+Hekv62KLQlX+eA3GmM+xjLGj31SHKW2fymWlD5Dtixa1dqv+HU1mFq8P5TJy4ZcWRN2u2aIHJzQadr1WV9Xplh+TrN0L5Vl62LqoIJwHO8eu0ffUMZX09IM/BCm076NWgnGK9Wbmw55jYV7dM0Qtb5irz5ouh16o4dkEpN9qPAcA1KNzutVL56QPks46xVhtWWq4WbD6k7XE6CK02tfTZO3Rgs8kfBl9QvdXudfAjDbpzrl6t2dNFR1Ei+1jxZa62m1i2YJxLF94zeYrJpbw33a05m4/qzd4W4fTIIddU8x3s2WheZ4QGnLXbF88O0PBxC/XSnoMdinCitUbaIru6nbc3BACE9THXSKy9yo45r61UwT1OXfCE+3SqfhtQRuFKvT41pj8nDut1X98yQy75VDmvUJv7PDJOzHsIxbCtqmxo1ZB7ZuqZHUe7iLGfkw7tk3aflcnXzriyteDFhcqOni+qf7oW7D4a6t+yimXC225VjU8aPtl8fzV9L8KxXElO9693mt/HjmXK1olQrll50KcB6d2dq9gSyIn71B/Yz6m81Ts7tN/u+8PXlPv0Hm1//G79q71Zz1y6r9h8N+bv32t9N+Y1rb/X4eOWdnueBABAbyU0Is4VOVmqux6pUFrU1aMAAHwZtF8dU3JUL42jjhsAcFn71X8xVxP2qKtRagAAAAAA+IJ1OcJPDxLOiQEAuEYlNCJO4gJqfMua49mtCaMpwgEAfJkE5P1DvVk6NfxWinAAAAAAAAAAAAAAdPbFFuJYw6XvDEhj71N2HyppAQD4pzMxrHq3WfbPUsat4VUAAAAAAAAAAAAAEO0LLMQJyFNepjq5NOeRXPUw/SQAAF84zxurVP1hq/1TlPMebVtYbGKYlLlwitLjzGUMAAAAAAAAAAAAAJ9/Ic4HW/XwijV6qnCMHi73yVVYrBlD7ccAALianKtWScFo3ZU7TU88+7I2v1Kqp+ZM0veyCrX5ZECuqRu1cgJTKwIAAAAAAAAAAACI7wsYEeeivAd36fAnLuUsK9fr89LlsB8BAOBqkl64Q88U5Wr4TZ+qfvdWbSur0GGvlHrPDK147ajefNKtgYyGAwAAAAAAAAAAAKALXwka9n0AAAAAAAAAAAAAAAAACfoCRsQBAAAAAAAAAAAAAAAArn0U4gAAAAAAAAAAAAAAAABJQCEOAAAAAAAAAAAAAAAAkAQU4gAAAAAAAAAAAAAAAABJQCEOAAAAAAAAAAAAAAAAkAQU4gAAAAAAAAAAAAAAAABJQCEOAAAAAAAAAAAAAAAAkAQU4gAAAAAAAAAAAAAAAABJQCEOAAAAAAAAAAAAAAAAkAQU4gAAAAAAAAAAAAAAAABJQCEOAAAAAAAAAAAAAAAAkAQU4gAAAAAAAAAAAAAAAABJQCEOAAAAAAAAAAAAAAAAkAQU4gAAAAAAAAAAAAAAAABJQCEOAAAAAAAAAAAAAAAAkAQU4gAAAAAAAAAAAAAAAABJ8JWWT88G7fsAAAAAAAAAAAAAAAAAEvSVoGHfBwAAAAAAAAAAAAAAAJAgpqYCAAAAAAAAAAAAAAAAkoBCHAAAAAAAAAAAAAAAACAJKMQBAAAAAAAAAAAAAAAAkoBCHAAAAAAAAAAAAAAAACAJKMQBAAAAAAAAAAAAAAAAkoBCHAAAAAAAAAAAAAAAACAJKMQBAAAAAAAAAAAAAAAAkoBCHAAAAAAAAAAAAAAAACAJKMQBAAAAAAAAAAAAAAAAkoBCHAAAAAAAAAAAAAAAACAJKMQBAAAAAAAAAAAAAAAAkoBCHAAAAAAAAAAAAAAAACAJKMQBAAAAAAAAAAAAAAAAkoBCHAAAAAAAAAAAAAAAACAJKMQBAAAAAAAAAAAAAAAAkoBCHAAAAAAAAAAAAAAAACAJKMQBAAAAAAAAAAAAAAAAkoBCHAAAAAAAAAAAAAAAACAJKMQBAAAAAAAAAAC4lpyt1mN33K5vb/DYK64SV+v7utSixvLlejjLvDfz/r5XFvP+Wk6ockWhvme99ztGa9sH9np8CXi03vq9za9Wi70GAIDPW4KFOHbQinP73qRZeqr8hFou2ZsCAHAFWvbPD8WXx/b3nCYFPtiq6W4Ti5bUkFQBAK5Yc9n94TzHxJVWex0AAEl11urUm6UH7U4/q2PvwTkvq7GLwNPaXKP1iybZnYB36t5pi7XtmF8B+/F4EtlHrV4d3rC4/X3dlTtNT5TVy99mP94LrYcXhz9Td51eMa/z7axJemJDjZq7Cbwtxyv01JzI56EtEgCQDAF5NhXpxyYG+W7JVUHRFKX3sx+ytHm0vmiW1h/0yTVuhh6dPNx+oEWHl4zWt93TtO2DbiMrAFybIsWV7jVq7PYw6FdVoXX+XqiqT+xVwDXuCkfESZHrtjQNbb+5pNMnTAI9S/dOLpWnD8k5AABXo8CZE6reMF9PHeyi6TjgV+P+Uj22nOIfALimBMzxv9wfvn/kkGrPhu9+qRGzAOCq4t+/WN/LnaX1b/9Jjtun6NGimXr0B24N+rtfLXHa1PwHF+v705ar8r0LSp9stp18twacrdXmn9yv6Rs8cQtrEtlHZ2r0xIRpeqr8XV1It97XFLlv9KvulfkaX9DL9r6AR1s31do/dOFMtR7LjX6dGcoZfEH15cs1fcJiHT5jb9euRXXFk3TvnFId9koZ1uf5Qa5c/zgZaou8v+Bl2iIBAIk5vVdryn3S2NX61WurtWD2Ur30SLr9oOTb/6wqT0tZJXv1eslCzVm2UY8Osx8EgOvZzfdpxlSH1LZLm/fZ7WhxBI5XaP0HkmPqXOXdYq8ErnFXWIiTp/+s3KHt7bc9euf4Hj0z3irIqdCsTSe6v7oGAIAkcgybqe317+udtbkaaK+7Uq2/rVBJeb1au7q68u+NqiiuUEPrRXsFAOBaEPh9narbTMYzPs/8VK99x7puTPjSIGYBwFWj9chyPVhcq0HjV2p7zVFtX7dUc2bP1ZxFq/XqjtXKudneMOJstdauqFXr4Bl61Wz/0jKz7bIX9OaBchUMlnzly/XyyZhWuET2UYuqn12uuvMuFWw5qrdetN7XUj2/56heLwy39z1d1kUBTxTfnnWq7FRIE816nVVqaHMq/8VD9uss1DOvHdWbxW45ztfqqWdjR9Lxq2n/OWUt26F3juzR89bnMd/X6wcO6aWpLgWat+qnO732tgAA9F7LH+rVbJaZmSM1MHoknJAWNR+34otbmd+JbXEcqJy1x/S7+h16dJjDXgcA1xOHMqYtlFW66CnfJU/cRMGv6ld2mRwiXQumjTR7ANeHKyzEicPhUs7ypcrvLwV21quJYWEBAAAAfKm0qm6v1UCQrYwfZSvfrPGU16iZ3AYAkAxt9dq8qkaBzJXasCJPQ1Ps9V0KqLH8WTXIqTk/W6iM6O37p2vBz+aaR/yqrHo3airFRPYxex0v09oGyTl7tRZ02Mmh9HmrNSdV8pfvVH13czaeqdb65zzK/MEMZdirOmk5oTrzOrpthvJHd+zUdI5fqAW3mTsNtWrsUImTouwtB/X85DSlRHeS9huozB8VKcvc9dU1yRdeCwBA7/WQ6/0PuSAAdO2WiZpjjYpzpkIVdZ0ThchoOM7CRYyGg+tK8gtxLI7/T0Nvt+745D8XWgMAAAAAXw5na3XoiFnm5CozdaSyQo0J1aq3LpEEAOAK+Q+WqarNqTmz8+TsdNV9HJe8qt8fkFLz5LYKVGLd5taEVLM83Hj5CtRE9jG87+1VQE5NGJ1mr4nSL03uSU5zp0aN8S91Na/rV/Vzz6ph8FzNnTak66tdP7NHZ/u3GzQgfC/KADn+LXzvfz4LL8NcSu9QHBTlJqesj6MP/R0KiwAAAAB83hzKyA+PilP3810xF7JFRsNx65Gp6YyGg+vK51OIo/+xLrwxnPqanTi3uxSQ/2S11i+apgezbte37zA39xg9vKJCjWftbUJadXiJ9fidWn/SXtWJX1WF1jaLdfi8vQoAcP06W63HrLiywWOv6Kj1dL0qV8y6HH/uGK0H5yxX5TFfp6mnWvbPD21zb3F96OeG4jH2Prfrsf0tl18rd5WsCznVsEr32o9/e37HIdQjrzs99077OczrLirV4WaaiAHgauQ/tjd0bM8fd7dSrMaEe6eYf/3aeqDnqXdbjlfoqTmT9L3Q8f5O3fvIGlVbx/uTpeEY0EWMUqtXhzcsvhyjsibpiQ01ihcqIjEqlCfF7Pe9SYu1/rCv4/vsQ8wCAHzeWtR4zMSCrgpk4vnkIzW2meU96RoaXhNjiNIyrWWT/JHpoBLZRz55G60IkqX0W8NrYrmGukPLpk/iT9noP7hGa4859eiqH2pod0VGNw/XyMFm+b5XXut9Rmv7SM3vm+XgkRoeO0VXT1IH6Ab7LgCgo1Cu8sgY3RXKBXpomwr45dlfqicKIrnN7bort1BPlZ9QS3ejw5z1qNrkJx3awKy2t5O9aQMLyLNhUvi1flItf4Kj0CSn/W++qs+2qHq+dX+MSkKJVL1Kcu3njMqjPBsi29srol1qle9YdI5ofY/TTK5XK1+c5LLj78jKJ837Pn6FGdt5nxrKl+vH0yLPG8kbvXGn4u/weWLyze7+BjrkqZfM+Y55zYcjfwfd5Lft+pATW5LW3mq/buzfbFVzT9k/gA4GT9TMyQ7pdJmqj1/+/3N5NJwi3dfXc3vgS+7zKcQ526i6RrMcO1zpMaVtLQcXafwjq1T5/kW5xs7Uo0Uzlf8dyXuwVD9+YL4Ot5+spChrotXgHVDVr7torP6kXjXmP69jar6ybrLXAQDQSUDNrxXq3knztf7gR9LtU0Lx59HJI00AqtH6n0zS95fXdEjwHd9wh2PUaOuKT3OiONrex9zc3zDBrf8Qua2fp7oV2iLVrXz78UdHR135ebLUJLfmdd/+k274Tvg5Csa5dO5tk1hPK9TmD0jqAODq4tXhcpN/9J+irAz7aD7sPs1MNdFkZ51C/ZNxhRuN751TqsOeC3KNm2GO+VOUoaNaa47363/ddWNg4MOtejh3WqhBMxKj8tMvqL58uaZPWByVI8W44NH6wmla83uHMidb8SVdOl2ryuVT9djuqIk5ehuzAACfv8BHarY686wCmTZf7zq3PvXLGpQtwxXOTTpzaNDN1mNe+SMXqiWyz6VP5f/QLDOGKLWLIhrHoEGhWNJ8Nk5cO71LTxfXy1lUrJnDeoouLuX/5wy52nZp8fJdarbfQ6DFq6rli1TV5lLBf04xW/XShyf0tlk4Rqf3fh8AuG5ckOeVabp/cbnOOO/TDCvfuGeQ3TY1Ro/tjy2ubFH1ovv1cHGFGtuGKDeUO1i5jVWwMEv3L6qJW8zvP7JKD5pYVlL+rs79R7YKzH5WG9gFT43Jh3qaODAg385FmlXuM8fylXpzXS9Hjesgme1/bg3p79CQ0eHPnhkads2pzKnWz+bWmzyqzattRWP04E9Mjug14dXkbNZzuW/0q668Wk1/t7ezXDLrisP5ZN1fnMr6gdn2B9lynjbve859ml7mMZ8uESZnzJqkxzbU6tSNI8N54A9y5Tpv5Y3T9PDPu3ne/6rRExNMvvlr+72b/dLsv4F7J5fKE1tIG2Hy1M0F9+mxnX6ljvlh6DNn3XTOfGaT3+bOV3V7AfBlfc6Jk9XeeqZaj9mvG3me/Hucob/Z+r4W9ADXPYcyJxWZc/GAqn6+V+HIwmg4uM4FE9IULL19RPCO29eZezH++m6wdOpI89jE4FavvS7KuZp1wa2/OWf/dNmFXz8bHGWe8/vbPrLXGBffC67JNK+T+WzwxEV7XRTvtnHmdUYG1/wmzoMAgGvCuX3zzLF+RHD+vs6xo5O/7g3Ot+LTix2j04W3loVizKiHy4JNF+yVEZ/9OVizcmLoNR6IjkG2Hl8/8prz9gbjbuH5ZfCn+z4KXvjM/jnij78MPmTtt+xoMPYtAQD+if5QFvy+FTPWvheMzjLCuceI4OKa+Eft9ljz+M7gqf+2V9ounFgXfMA65lu3mBgV/PvR4PJQzjMvuPe/7HW2yH6jYmJFJDaNyrw7OP9Xf7bX2iLx5fZng/WxaVJPMQsA8Pnz7QxOs47FqzcFX55olvdMDC627r+wLPhQjtWeZtZNXBdsioolvcmJItssfyscMRLZp1dxIrJNbB7z303BUuvzTCwLeiO5Ty+e76J3Z3DxGLONtV3kNmZesOIPfWjrMznd3nnWvvHbIgHguhU5Dk+cGJwWp03s4h93Budbucjti4I1f7dXhpwL1rxYFjzxV/vHiM8uBOtXW7FqXKfj7UXPpnDOM7E4WBOT1wQvfBTcVROVB0XeV1Ru9GcTk7rKp3rr82v/O2fHGZOzxX4nRtOL8R4z3+Hj1nc1MvjQtqZO7YLnfr03WB/1Ut5t9nt78b2O21oxLvQ8ica4pmBFyd6gt9P3cSpY8UPrfS8L1sY8Fv4844IPTJwa/GlNTL752blg/drwe/3+zzt+j5Hv0Nqv82e+GDy1I/w7vuPJQx3PIRLIifve3mr3aXY4J7lo/p7Dn/Vlj70qwnxOry/2SwPQswvB2mXhOFH6/sXgxd/Yff/meE9PPq5HVzgiTrV+WjBN0yO3SaP17dz5qjqfrSVVO/VonLFvB+Ys1KOjBto/XZYyyq08s/S/771cTe0YqbxCp9S2V3W/j6lgtea63uOXUouUF7lSFQCATryq2lCjgLK1snSm0lPs1RH9nMpZvlT5/SXfa9XdjHSQoGEztGJ8mlJir+K51a1cayj6w03q6ZogAMAXJaDGA2Xyy6H8e0d2uFJn6NgZ4bmudxyyr+qJFhVriqfIZWJKtJSMhXr+SWvvzpr3rNfhNvN6a9cp7xZ7pS0lo0gzx5p3dbhWjfEuxhu3Wi9Mihnp4NYpmjnZurNXTdZQCACAq8v58Eg12r1VFd9Yqf1H9uj5ZXM1Z9FqvX7gqF4tdEmnK/R0gle+t/6j73slso9aWy+/v0t+VS8vUuXf3FqxaWb3U1JF+6RaT81eo7qWFKWHRpILj+428B/1Wv/0s6qLc8V8J9YIAiXzVdLgUGbxxrhtkQBw3TvtVP6zndvEHCZ3WPK4lafUateR6CxnoHIen6mM2ClE+qUoY/REc8dvco3oMXFMHHhhq3wmY1pSulI5MXmNUtKUnxM/H7K0NKzR49bUUCPm6herO+dTvfNPbv+LETheplXHAnJMXqctj6R3ahccODpPmZFustZa/XKTTxq2VM/PG9lxW/O+835UJKf5dvc1eO2VfZGugqfzNLTT9+FSZm6auVOjpj+FV3XkV+C7y7QkJybf7DdQmT8Jf4/+8vjfo885RS90+swOuaYu1YJh5u6Rnar5JLzWklBOnJT21lZ9GjrXSFeaNV1mNPM5hw6O/dIA9CxFWQXWMcuvyqoybQ2NhpOtOYWMhoPr0xUW4rTK96FXzZHb6VYNzFmpN/etVv6t3fyXuhSQ/8MTathfoc3rluvHBdP0YM58VdkPRxuaYzV4B1R97GTHBojmeu0zQTK9MLf3CT4A4Ppzukm1VlI1Oa/raQwdI5VrzV/atleNn1OnZetpjxoP79LmV9boCat4NXeq1lrDvgMArh6Bk6rbb7KO1CLdZzUQRrvFrVxr3QeH1BDVaBhyxqvGHmKNK224fS+aT011/tA0WLmj4uVPKRp6e9eNo1nfGR6nIcOhwUNHmqXJuf7KUNoAcNUyx/4XVsdMu2F1cM6OdG4dSqiT0Dmw751Gieyj1EEmSlkC8myar5JjThVsWqe80NQdvXC+Vk9NW6W6/rl6Zt8xvV6yUHNmz9WCknK9tW+j8lWtJ+Z1M+2FpeWENhdN0hP7zylr2U69MD6msxAAEDb6Pt0dW1Rjc2ZOVIZZej72dex/sQT8aj5er+ryl7V+xSxNL5ike+fvsh+McrZR9R+Y5dipyo0taOhB4GSpZpnn9A+dqS1WMWdCRTjGVdL+F+F9b6/5Pp2aOcHdY+dzwNOow2aZ+cAYueL1dd2apkyz6HARe1+d98lzvEZVr7ystYumafq0MZr+XHeFPQ7lZHXRcW6+xyyrHqutSb5QIUtHmTl3q/Ol+BanMidYuapHvv+K/LVdWU58Ze2tA/XN260JLWu0eV11+zSZAK7QbVM0Z6xZHt6qbSY2OGfPVE5Xx2XgGneFhTgz9Prv39fvrNvxA3q1KF2th1fpwSerO8yzGS3wYYV+PPZOjS+YpceKS1XV4NOFm4cra3Ju6ArTTm4ZownmLCOwsy6qASJypWq2powlyQYAdMO+4nSoy9lt4ut0hTstWy8k0NrdnTO1Kpl2p743qVA/Xr5GFfub5B/gUsb4ifb80gCAq0VrXZWqrA6/My9resbt+vYd0bf7tdZqXJZHldYE/9H+dkqNZtFTrOmsVX6rkbCtQg93er3w7cFuGkcHfS1+x+n/+mr4XSQ0wgEA4Isxzq2MeJ2NjhFyj7Pu+PTpudAaOW7suVDmQlt4Y8e/hGNAIvuof4pdXNONf1xUaK/+A0Ixz79/kWaV++QqKtbcEb2Pgs27ravfpbwnizuPnDDQrQVPTpHjdIXWH+w8Dp2l9YOtenjCLG07PUILyg/q+cmuPsZgALiOmDwlfmGE0c/EAWt55pzJTiICai6fpe+Nul/T58xXyYZdavBdkPNb2cofF6cX5y+n1GAWVsFEz9Enyu/Xada8CvlSZ+ilbXOV3kURTsv++XFzpW/fUWqyM9s/u/2vgxad+th6frfSbg2v6U5rSzjWNRSPifMZzW1UnIvYT5bG3/aO+ao+a29jsUaO+9k03ZU1SQ/PWa61b+xV09kBcn1novJGd9e3NlKpX7fvxnHDV61/vfLHKV5xObv8a2vPVf0tkb+2BHPiJLW3Dp26TkvGpsi3f5WmZ92pe39SquqTCZc7AQhJUU7hXIWPMNmaM9kqpgOuT1dYiBPF4VTG7DJtKXQpcGyVnt4dZ+C3szVa/KNSNd6UpyWvHdBvGt/XO3t2aPu6pZoze2r8Qhxzipg9Ltssd+nQr+3gHLlSdWy2MqmiAwD0wgBH75plHb3crlcCHm2et1jVn6Tp0Rf36B0T935TY+Le5tVaMLtIWdZFFwCAq0SrGt6uNcsUuW5L09C4N1eoYdm/r17NcS48GNR/gH2vj1Ldyi+aGZqSo6vb8K7bMgEAXyZfHxIaeSBSyNKZQymhjsiTOmP3A6X8e7hTsdEfvyjFcs5vdVK55fqP8M+J7KOUr8lpvfb7fnW516fhjs5Ml9W07lFVcb2srkZfWaHuiu08y10V6phVwyrdG1oX6TD1qenX1iu4NWxoF9/CtzKUZZaeY40xV/8H5Nu9WN8vfFm+zKV688AWFQzrU7cvACCefjfYd6SWg4v00IYTGjR+qV4/8J5+9/tjerNyR3gqxQfijfQZ1tu2t3au4Uq3ij3O1OtwQ9fxyvENd9wc6dGi4Z0KjP4p7X9dcsjRh9kc0sfF+4xRt9FDLp87DBwef5sit4a0FzQF5Pn5fD2x55TSijbqzbr39bv6o9peuUXPLJqrmVfcMOnQDYnOVhG7X19y4mS2t/Z3KX/tMb2zZ6MWjEtT4FiFSh4Zo7se2arm7kblA9C920bqHmuZ6VYG/fi4jiWvECfEofSipSpINYnyc8WqOm2vtrX89pAaTPDKmb1Q+SOcHU9CWj8NX1ETR0pWfmhY3sNvnwhVZbf+ulpV1pyRE7P7VmENALj+3DggVH3d2BxniN0oft8J869TAxLsQ42r+V1VmFjofGSZ5ox2xcxb/Klaep6sGADwRfnkkHYdMcthc7Whcoe2x72Va6k1vO6ZMlVHzxfS74ZQg2jDH+NOrh/2/+xlBw4NsK7WO5+m3NlzQ1NydHXLih0tAADw5XRzqoZay8aPFD8daNW50JXsIzUkckX34LRQUUrg5KkuCmS88rxtFqnD9c3I1COJ7COX0kabRZtHp+JMNWFp/qDO/OvU8KHh3rCvxS1ctW9mm1CHYf+B9rqvhfaRLqo1wekfrBF4pj/7rlzzduittVPk6mL0BABAlLYLXbeJ/SU8uqdjaGTUnBY1HrGKLHM1Z9EUpad2LFhpjQzXFq2XbW+d/NsYLdj0gvIG+1S9ZL7WNsQfiSRlxJS4OdKc2dn2iAvGP7P9rxOT54U6rhrli53WOI7IKHYpo6bG+YxRt8npl/vDbsmOv81s8ztr38ir+jfM2UZqkZbOdssV0xl+7lx3DZPnFPiHfbcTa8Qfaxl1rhIl8N9d/wbC379Dad+IVNUkkBN/Du2tKYPdKigp1zvHD+ilqS5z/vSyHnquNmqUKAAA+i7JhThG/5Gau2yKCZ8erV3XcYoq/8f1oWW8IdSteTCtVD6uyNydh2vUcL5VDUdrQicPeRkdTwIBAOjkVrcmWAnd7mrVddXYG/Co9ohJElPz5O7FkLG91eLzhpL/wYMiDc5RTjepvovGbQDAF6/5SEXoKv30+92XG3M7SVHW+ClmGVDV2ycuN/DanZ3aGz2dbrSAyWF22fejDVH6aJPTtNWosdfz2AMAvtT6jZB7qjn2f3hIjTEXsIW0NanxmFkOc2tYpI8qZaTutgpBG/eqId4+H9Zrn8ktnBPc4SIfSyL7mDiXMdoalfqE9h2L04t1yav6Pf6ovCldBXELV+3bi/PCo//cPk8bQ+tm2KNhO+UK3alXw/vxu7gi7YSOW4dcHu3gfI1eLK6XJq/TlkfSwkU+AICeHaxXY9zRPUyeUrPL/OtQ3u2RqUP8+siKQxqkQZ26cQLy/NYaRTTGrSN1j1UY2V3bW1dSs7Vi00pl9vepan6R1jcmWPrwT2z/6yxFw0e5zdKryiNdTzUckZI2PBQfG46FL0RPmrOn5LV+7y7zuwyvuexSZHS6rnhVc7yLipbTR7XPGvIu+lwlSrX5HHHT4rZ61ew2j/SfqIz2k4++58Sfa3urw6nMRUtVYO4G9jd1UTQNAEDvJL8Qx3BkztUzOSZ4NjyrtYcvVzE7zcmQ5e3amED8SbUWr9hr/xBf+tgik6bX6t0jh8xNGlqQraGJDnsHALh+9EtT3my3HCaGrFq4VZ7YjPaSX4dXF6vyjEOZsyd2ii0DvxEez7TR+6f4SeTNQxTa4n2vTsVsMNAVbhxuOPJuh8JUtZ7Q+oWl8nL1JgBcHSIdi3JrQrfz5JtcJyMrNFpnhwbelLs1pdDs17ZLa1fXdDzmG/49i/TUQfuHDhzKmFBk4ohfm59eo4boufxtrc3VKnkjPJHHFesmZgEAviiRY79Ha01O0KG/0cpNfrYmNAp0TsF9UYWhKcqaNsP87NH6F3fJF92Z2mbWPf2y/P1z9ZPJkU5USyL7mL2yfhge6XpTqao+jg4WAbNuuTabvCnn8SlX2CaXIve0maGYVPez5apq7piktTbv0uIlVsewSzNzLk9k33LsUKg4J3+Mld8BAHrN5Cnrn4ufpyy2CiOGLVR++0XPTn3TGh3NHHFrY64y6DKv6ZeuHy7rpu2t1auqg93kNKl5euEXS0PFOJWzCrX+ZALJyhW2/yXbwJwiPTrYfGevLFfJ4c4FLy3Hdqkukv/dcp9mWP1pR4r11E6vWmOnQb7UosayUh2Oky92y+R/aVbu2lCrd6OLUy61qnHTIq3/U/fR1LOpWNs+iPkiQ22aa8zZhUP5P5oYda5yWWB3qdbGfmbz/VcvX2TOcaT0eVN0+Rr7vufEyWtv9ctz3K9A7Pd9MaD/ay2HRUaJAgAgMV8JGvb9PjAJ+x2FqtQMvf77hfbVLDHOVOux+1epob9bz/xqo3KsYW6tRL/A7HfapNyDs5U71qTcH9eq5m2/0ouXyVW8SpWZK/XWxrw4Ac6vqsL7tfYD6366luwrVz7DswPANa9l/3zdW1wvx81pcnWR/dy3ZIcKhpk7Z03syTWxp7Bcv3s8OjoF5HmlULPKrCsmUuS65z5l3Zqii2dOmBjkUUubQ0OLyvSL2emhRK6DwAmtzZoVagwfOHqi8m65oNZvLdKSnMibCajxubv1450B8x7dyhvv0oXz39TCZbkaaCWZiyap5Jj1WLqyxozUoPPh1xwweaXyPl6l9Q3dxFIAwBcicHyNvjtnlwJjV+udtbkmUnTPs+FOPVweUPqyA3p9st30aHKdzY8WaVtzQLrJpayx2XI5/Go8WivPxbv1zLxUPfWzCqlTjDKZjol1D5pYZ12JOnCEyZMynLqhzS9PQ70aT7fKUVSu35gYFRGJjQWvva8FI+yVUSKPZxYf1Uvjo4NnNzHL3gIA8MVoP/b3H6h0k59k9D+juiO18p3vKjeJymkicUZeVR+sN/mMy8SEnSYmxGYziexj9rKmY5i3Vc1tkdxJ8u7fq4azAblMHNtu4ljnveKI5Gdx2/oC8u1cpOnP2fFv6BANsjpFL30qX3OLWZeirJIden7c5S4+z4bbTfy12hTTlNpdJ9vYZdpeSIYFAO3H4R+s1IpPnlWJxxmOBTe1ynfkkOpMrqGbsvVM5QvKsUaTsQVOlmr6IxXytbehKbz934ZrxUKXSkxeEy/X6ND2NsqtzGHmGH7mhPYd9Kg1Og/qov3u8ut2HaO6l3j7X9c5lKVF1fPHqKTBrRU1G5XXPqVjWDg+xXnsTI2eKFgeuoDDatd0j7amh2q1Y+rIjttH9Z2155M3Sa0f16v2Pa957249c2Sj2psje6nT+cZN58I56o1TtOIBn0rWdc4rI59nQbFL1cW7dMHOUa3fZXffY3ue+vRK+UpXyfP1cB9gynmffY5jYrjJud9YnStnTCFUn3LihNpb7T7NDuck9jrzfWdkupWeekPU30qif4MAwuL9nwOuP5/LiDghqXla8KQJc231WrXBnkuxf7oWlG3RgnEmQP+tVlVlv1Tt39M0c8shc3IzJLRb15zKfiA8oo7GTlUuRTgAcF0JnPWq+cP4t09jr1zoxKH02Tt04LWVKrjHqQvv7dK2sq2qbGjVkHtm6pkdR7U9ThIe4hipBb9YqfxhN4SuVtl20GviWfSWDmXM26kVk9N1w9l6E9uq1dwvJfxc/ZzKW71TzxRmy3nRo8NvbNW+P3xNuU/v0fbH79a/hvYHAPxzBdR0bK/5V8q6x91jEY4lPFqn5DlQr/br/EyuM6fykF59PFfpN/hVt3trKGYMyinW9n0vKKebdMc5fqPe2rHaxCiz0f+pUaWJUdv2ntCFf3drwYt79NaPLjcfXpluYhYA4AsVPvabPCN9gHwHK7Rt9wkpLVcLNh/qIjexc5rNC5Uz+ILqQ3HmIw26c65erdnTRUdRIvuYvUbM1fZfWe13Ljt32ivvTXdrzuajerO3RTg9csg11XwHezaa1xmhAZF87+wADR+3UC/tOdihCCda6+mO+WCnW1+nRQGAa91XhyhvnclVpg2R74iJBWW7VP8Pp7IKV4dzlagiHItjxEJt2WJih4kT/rdNHHjjqM59q0iv7tuovC7zmpi2N084r6n6bUAZhSv1+tSecxrrdV/fMkMu+VQ5r1Cb+zwyzhW0/30eUnP1/L49esnkiMNvtHPEskM648o2ed5CZUfPF2X1ne0+GsonrWKZ8LZbVeOThk82319N34twLM7x67R99QxlfT0gj3W+Yeeob1Yu1N09JL//eqf5fexYpmydMLmj+R4P+jQgvbtzFduQPL1kziNmuE6pxsptd7+rCzdnq2D1Dv3vOEU4lj7lxElrb3XpvmLz3Zi/f6/13ZjXtP5eh49b2u15EgAAvZXgiDj/HOGK2hPK3/yulowiCAIAAAD4kjhZqm8/UtFpdBsAAAAAAK4WXY7w04OeRm4FAOB68/mNiJN0ftX+ql7qP0W5lyeQBAAAAICrns/bGFpm3eoKLQEAAAAAAAAA16YvTyHOhzWq/EByFt6n9DhD1wEAAADAVemSV3WVXnPHrYz03kx+BQAAAAAAAAD4svpyFOJc8qv652Xy98/VTyan2SsBAAAA4OrQcrhU2477Fbhkr4gI+HS4ZLk2n5GcP5ih+/owtDcAAAAAAAAA4Mvnqi7EaTm8XE88u0aP3T9JJcekzCfnKusm+0EAAAAAuFoEfNo8537dNXaSfryiVJtfeVlrF03TvVmT9NR+nxyjl2rD7JFikl0AAAAAAAAAuLZd3SPiXGpV3e5datRIFby4Ry+Nd9oPAAAAAMDVY2DOUr26bIqyUiXvwQptK9uqqvc+1aD0XC0wucxb66bI1d/eGAAAAAAAAABwzfpK0LDvAwAAAAAAAAAAAAAAAEjQ1T0iDgAAAAAAAAAAAAAAAPAlQSEOAAAAAAAAAAAAAAAAkAQU4gAAAAAAAAAAAAAAAABJQCEOAAAAAAAAAAAAAAAAkAQU4gAAAAAAAAAAAAAAAABJQCEOAAAAAAAAAAAAAAAAkAQU4gAAAAAAAAAAAAAAAABJQCEOAAAAAAAAAAAAAAAAkAQU4gAAAAAAAAAAAAAAAABJQCEOAAAAAAAAAAAAAAAAkAQU4gAAAAAAAAAAAAAAAABJQCEOAAAAAAAAAAAAAAAAkAQU4gAAAAAAAAAAAAAAAABJQCEOAAAAAAAAAAAAAAAAkAQU4gAAAAAAAAAAAAAAAABJQCEOAAAAAAAAAAAAAAAAkARfafn0bNC+DwAAAAAAAAAAAAAAACBBXwka9n0AAAAAAAAAAAAAAAAACWJqKgAAAAAAAAAAAAAAACAJKMQBAAAAAAAAAAAAAAAAkoBCHAAAAAAAAAAAAAAAACAJKMQBAAAAAAAAAAAAAAAAkoBCHAAAAAAAAAAAAAAAACAJKMQBAAAAAAAAAAAAAAAAkoBCHAAAAAAAAAAAAAAAACAJKMQBAAAAAAAAAAAAAAAAkoBCHAAAAAAAAAAAAAAAACAJKMQBAAAAAAAAAAAAAAAAkoBCHAAAAAAAAAAAAAAAACAJKMQBAAAAAAAAAAAAAAAAkoBCHAAAAAAAAAAAAAAAACAJKMQBAAAAAAAAAAAAAAAAkoBCHAAAAAAAAAAAAAAAACAJKMQBAAAAAAAAAAAAAAAAkoBCHAAAAAAAAAAAAAAAACAJKMQBAAAAAAAAAAAAAAAAkoBCHAAAAAAAAAAAAAAAACAJKMQBAAAAAAAAAAAAAAAArpj0/wO2wwjciF1c6QAAAABJRU5ErkJggg==;" vertex="1" parent="1">
                    <mxGeometry x="70" y="520" width="870.04" height="220" as="geometry"/>
                </mxCell>
                <mxCell id="33" value="All records where IsActive = 'Y'" style="text;html=1;align=center;verticalAlign=middle;resizable=0;points=[];autosize=1;strokeColor=none;fillColor=none;" vertex="1" parent="1">
                    <mxGeometry x="965" y="320" width="190" height="30" as="geometry"/>
                </mxCell>
                <mxCell id="36" value="Appeals data coming through in Service Bus messages without change in schema&lt;br style=&quot;font-size: 16px;&quot;&gt;&lt;br style=&quot;font-size: 16px;&quot;&gt;Appeals records visible in standardised and harmonised layers automatically without changes in ODW&lt;br style=&quot;font-size: 16px;&quot;&gt;&lt;br style=&quot;font-size: 16px;&quot;&gt;Curated layer ETL code amended to add appeals data based on sourceSystem field" style="text;html=1;align=left;verticalAlign=middle;resizable=0;points=[];autosize=1;strokeColor=none;fillColor=none;fontSize=16;" vertex="1" parent="1">
                    <mxGeometry x="980" y="520" width="750" height="110" as="geometry"/>
                </mxCell>
                <mxCell id="42" value="" style="group" vertex="1" connectable="0" parent="1">
                    <mxGeometry x="1260" y="102" width="40" height="238" as="geometry"/>
                </mxCell>
                <mxCell id="37" value="" style="shape=actor;whiteSpace=wrap;html=1;fontSize=16;fillColor=#3399FF;" vertex="1" parent="42">
                    <mxGeometry width="40" height="60" as="geometry"/>
                </mxCell>
                <mxCell id="40" value="" style="shape=actor;whiteSpace=wrap;html=1;fontSize=16;fillColor=#3399FF;" vertex="1" parent="42">
                    <mxGeometry y="89" width="40" height="60" as="geometry"/>
                </mxCell>
                <mxCell id="41" value="" style="shape=actor;whiteSpace=wrap;html=1;fontSize=16;fillColor=#3399FF;" vertex="1" parent="42">
                    <mxGeometry y="178" width="40" height="60" as="geometry"/>
                </mxCell>
                <mxCell id="43" style="edgeStyle=none;html=1;exitX=0;exitY=0.75;exitDx=0;exitDy=0;entryX=1;entryY=0.5;entryDx=0;entryDy=0;fontSize=16;" edge="1" parent="1" source="40" target="18">
                    <mxGeometry relative="1" as="geometry"/>
                </mxCell>
                <mxCell id="44" style="edgeStyle=none;html=1;exitX=0.1;exitY=0.5;exitDx=0;exitDy=0;exitPerimeter=0;entryX=1;entryY=0.5;entryDx=0;entryDy=0;fontSize=16;" edge="1" parent="1" source="37" target="18">
                    <mxGeometry relative="1" as="geometry"/>
                </mxCell>
                <mxCell id="45" style="edgeStyle=none;html=1;exitX=0;exitY=0.75;exitDx=0;exitDy=0;entryX=1;entryY=0.5;entryDx=0;entryDy=0;fontSize=16;" edge="1" parent="1" source="41" target="18">
                    <mxGeometry relative="1" as="geometry"/>
                </mxCell>
            </root>
        </mxGraphModel>
    </diagram>
</mxfile>